<?xml version="1.0" encoding="utf-8" standalone="no"?>
<!DOCTYPE svg PUBLIC "-//W3C//DTD SVG 1.1//EN"
  "http://www.w3.org/Graphics/SVG/1.1/DTD/svg11.dtd">
<svg xmlns:xlink="http://www.w3.org/1999/xlink" width="720pt" height="432pt" viewBox="0 0 720 432" xmlns="http://www.w3.org/2000/svg" version="1.1">
 <metadata>
  <rdf:RDF xmlns:dc="http://purl.org/dc/elements/1.1/" xmlns:cc="http://creativecommons.org/ns#" xmlns:rdf="http://www.w3.org/1999/02/22-rdf-syntax-ns#">
   <cc:Work>
    <dc:type rdf:resource="http://purl.org/dc/dcmitype/StillImage"/>
    <dc:date>2025-11-14T13:45:16.377685</dc:date>
    <dc:format>image/svg+xml</dc:format>
    <dc:creator>
     <cc:Agent>
      <dc:title>Matplotlib v3.9.2, https://matplotlib.org/</dc:title>
     </cc:Agent>
    </dc:creator>
   </cc:Work>
  </rdf:RDF>
 </metadata>
 <defs>
  <style type="text/css">*{stroke-linejoin: round; stroke-linecap: butt}</style>
 </defs>
 <g id="figure_1">
  <g id="patch_1">
   <path d="M 0 432 
L 720 432 
L 720 0 
L 0 0 
z
" style="fill: #ffffff"/>
  </g>
  <g id="axes_1">
   <g id="patch_2">
    <path d="M 90 384.48 
L 648 384.48 
L 648 51.84 
L 90 51.84 
z
" style="fill: #ffffff"/>
   </g>
   <g id="line2d_1">
    <path d="M 115.363636 369.36 
L 123.073829 369.286154 
L 171.45467 369.138462 
L 193.539908 368.990769 
L 198.542913 368.843077 
L 208.287074 368.621538 
L 228.12555 368.030769 
L 233.318977 367.587692 
L 244.998781 367.144615 
L 255.214227 366.110769 
L 257.087317 365.963077 
L 257.46671 365.889231 
L 258.717109 365.741538 
L 261.956157 365.150769 
L 263.854718 364.929231 
L 263.893043 364.855385 
L 264.554764 364.707692 
L 264.595012 364.633846 
L 265.721491 364.412308 
L 265.773762 364.264615 
L 267.195754 363.821538 
L 268.839342 363.6 
L 273.230614 362.713846 
L 274.423423 362.270769 
L 274.53059 362.196923 
L 277.617979 361.532308 
L 280.277169 360.941538 
L 280.902839 360.72 
L 281.938412 360.276923 
L 283.195474 360.129231 
L 283.222797 360.055385 
L 287.860433 358.135385 
L 287.910902 358.061538 
L 289.259537 357.692308 
L 290.106245 357.396923 
L 290.522891 357.101538 
L 290.59015 356.88 
L 292.126704 356.363077 
L 292.24181 356.141538 
L 293.136223 355.403077 
L 293.528813 355.107692 
L 294.413303 354.96 
L 294.539747 354.886154 
L 295.279885 354.664615 
L 295.646165 354.221538 
L 295.663153 354.073846 
L 296.239759 353.704615 
L 296.241622 353.630769 
L 298.91964 351.932308 
L 299.966944 351.710769 
L 299.991075 351.636923 
L 300.617087 351.267692 
L 300.646939 351.12 
L 303.100606 349.569231 
L 303.957377 349.273846 
L 305.199397 348.387692 
L 305.270124 348.313846 
L 305.664815 348.092308 
L 305.854778 347.870769 
L 306.541164 347.575385 
L 306.601706 347.353846 
L 308.419741 346.910769 
L 308.588013 346.689231 
L 309.628423 346.246154 
L 309.65278 346.172308 
L 310.18529 346.024615 
L 310.405033 345.729231 
L 311.005812 345.507692 
L 311.022611 345.433846 
L 311.672155 345.212308 
L 311.712969 345.138462 
L 312.263832 344.843077 
L 312.459761 344.473846 
L 313.290717 344.104615 
L 313.433753 343.883077 
L 314.004135 343.587692 
L 314.314533 343.366154 
L 314.362891 343.292308 
L 315.439835 342.996923 
L 315.587159 342.627692 
L 315.869774 342.406154 
L 316.335429 342.184615 
L 316.58211 341.889231 
L 316.897902 341.667692 
L 316.98522 341.52 
L 317.328241 341.372308 
L 317.569253 341.224615 
L 317.943508 340.781538 
L 318.839676 340.338462 
L 319.594764 339.747692 
L 319.595861 339.673846 
L 319.830331 339.452308 
L 321.051422 337.68 
L 321.181193 337.458462 
L 321.405793 337.310769 
L 321.468817 337.163077 
L 321.814079 337.015385 
L 322.192012 336.72 
L 322.430531 336.424615 
L 322.708182 336.203077 
L 322.816766 335.907692 
L 322.856247 335.76 
L 323.348823 335.464615 
L 323.360553 335.390769 
L 323.865455 335.169231 
L 323.990617 334.947692 
L 324.006571 334.873846 
L 324.193918 334.726154 
L 324.327126 334.504615 
L 324.903464 334.209231 
L 324.925872 334.135385 
L 325.157267 333.987692 
L 325.511075 333.544615 
L 325.824742 333.323077 
L 326.047762 333.027692 
L 326.133793 332.658462 
L 326.477243 332.510769 
L 326.543906 332.363077 
L 327.260834 331.92 
L 327.39075 331.698462 
L 327.567331 331.476923 
L 327.738004 331.255385 
L 327.882397 331.033846 
L 328.072748 330.516923 
L 328.62356 329.926154 
L 328.786636 329.778462 
L 329.012304 329.556923 
L 329.14493 329.261538 
L 329.371964 328.892308 
L 329.504041 328.596923 
L 330.287576 328.08 
L 330.408783 327.784615 
L 330.462 327.710769 
L 330.822264 327.563077 
L 330.932474 327.341538 
L 331.715499 326.824615 
L 331.983482 326.455385 
L 332.33728 326.16 
L 332.48431 325.938462 
L 332.705103 325.790769 
L 332.708874 325.716923 
L 333.132628 325.347692 
L 333.190345 325.2 
L 333.382268 325.052308 
L 334.939991 323.132308 
L 335.232327 322.910769 
L 335.538197 322.615385 
L 335.638052 322.467692 
L 335.90864 322.246154 
L 335.983794 322.098462 
L 336.275907 321.876923 
L 336.3516 321.655385 
L 336.522708 321.507692 
L 336.652652 321.212308 
L 336.773334 320.990769 
L 336.855656 320.769231 
L 337.087581 320.473846 
L 337.311769 319.883077 
L 337.986542 319.144615 
L 338.380108 318.775385 
L 338.45624 318.553846 
L 338.874186 318.258462 
L 339.430693 317.446154 
L 339.690261 317.224615 
L 339.805511 317.003077 
L 340.664648 315.673846 
L 340.952974 315.452308 
L 340.99642 315.304615 
L 341.368601 315.083077 
L 341.445818 314.935385 
L 341.607616 314.713846 
L 341.765492 314.344615 
L 342.027871 314.049231 
L 342.142346 313.901538 
L 342.419891 313.753846 
L 342.477409 313.458462 
L 342.636433 313.236923 
L 342.720011 313.015385 
L 343.458134 312.72 
L 343.571315 312.424615 
L 343.72631 312.203077 
L 343.940329 312.055385 
L 344.028973 311.907692 
L 344.133467 311.612308 
L 344.244622 311.316923 
L 344.405272 310.873846 
L 344.734448 310.578462 
L 344.877818 310.209231 
L 345.114731 309.987692 
L 345.24011 309.692308 
L 345.424604 309.101538 
L 345.822062 308.732308 
L 345.939984 308.510769 
L 346.3873 307.476923 
L 346.67159 307.329231 
L 346.841668 307.033846 
L 347.236604 306.590769 
L 347.301112 306.443077 
L 347.679036 306.295385 
L 347.767954 306.073846 
L 347.811277 305.926154 
L 348.012094 305.630769 
L 348.10907 305.261538 
L 348.357679 304.818462 
L 348.548837 304.523077 
L 348.627371 304.375385 
L 348.832456 304.227692 
L 348.970025 303.784615 
L 349.197058 303.636923 
L 349.545341 302.898462 
L 349.648679 302.676923 
L 349.830826 302.307692 
L 350.227786 301.864615 
L 350.406764 301.716923 
L 350.960425 301.126154 
L 351.06356 300.978462 
L 351.212025 300.756923 
L 351.576796 300.313846 
L 351.666617 300.166154 
L 352.01791 299.575385 
L 352.180652 299.427692 
L 354.0908 296.547692 
L 354.326294 296.4 
L 354.417547 295.809231 
L 354.899619 295.218462 
L 355.039085 295.070769 
L 355.243707 294.332308 
L 355.404064 293.889231 
L 355.407676 293.815385 
L 355.662425 293.667692 
L 356.314836 292.929231 
L 356.415879 292.707692 
L 356.568348 292.486154 
L 356.640242 292.264615 
L 356.944793 291.821538 
L 357.155201 291.304615 
L 357.393831 291.083077 
L 357.486092 290.713846 
L 357.650236 290.492308 
L 358.295476 289.458462 
L 359.062695 288.424615 
L 359.362832 288.129231 
L 359.641369 287.686154 
L 359.89591 287.464615 
L 359.946095 287.316923 
L 360.196433 287.169231 
L 360.303603 286.947692 
L 361.126895 284.658462 
L 361.242583 284.215385 
L 361.492451 283.92 
L 361.545219 283.772308 
L 361.717067 283.624615 
L 361.778299 283.329231 
L 361.984195 282.96 
L 363.324378 279.784615 
L 363.456159 279.563077 
L 363.766919 279.267692 
L 363.839104 279.12 
L 364.024137 278.750769 
L 364.337685 278.086154 
L 364.549501 277.643077 
L 364.839102 277.495385 
L 365.031213 276.756923 
L 365.255071 276.609231 
L 365.472264 276.166154 
L 365.764701 275.723077 
L 365.880458 275.28 
L 366.158894 274.689231 
L 366.291851 274.32 
L 366.522696 273.803077 
L 366.649199 273.581538 
L 366.776802 273.286154 
L 366.932605 272.769231 
L 367.213409 272.4 
L 367.330316 272.252308 
L 367.345665 272.178462 
L 367.535284 271.956923 
L 367.877835 271.587692 
L 367.882952 271.513846 
L 368.290767 271.218462 
L 368.372555 270.849231 
L 368.481308 270.553846 
L 368.581543 270.332308 
L 368.734937 270.036923 
L 368.803894 269.593846 
L 368.917285 269.372308 
L 369.076183 269.003077 
L 369.984122 267.230769 
L 370.19275 267.009231 
L 370.295792 266.713846 
L 370.567963 266.344615 
L 370.652069 266.123077 
L 371.036963 265.68 
L 371.13635 265.532308 
L 371.228281 265.310769 
L 372.325035 263.316923 
L 372.409594 263.095385 
L 372.829479 262.356923 
L 372.938185 262.061538 
L 373.140315 261.84 
L 373.33692 261.692308 
L 373.539201 261.027692 
L 373.704359 260.806154 
L 374.291628 259.993846 
L 374.429561 259.846154 
L 374.49369 259.624615 
L 374.709404 259.329231 
L 374.750746 259.107692 
L 374.912891 258.96 
L 375.030162 258.738462 
L 375.173025 258.590769 
L 375.980768 256.523077 
L 376.096028 256.301538 
L 376.258213 255.636923 
L 376.469783 255.415385 
L 377.424795 253.643077 
L 377.540297 253.273846 
L 377.711229 252.978462 
L 377.980172 252.387692 
L 378.160861 252.24 
L 378.263005 251.870769 
L 378.411523 251.353846 
L 378.66788 250.910769 
L 378.779547 250.689231 
L 378.969832 250.098462 
L 379.18192 249.876923 
L 379.450916 249.138462 
L 379.605612 248.916923 
L 379.736834 248.621538 
L 379.895402 248.326154 
L 380.027879 248.104615 
L 380.249029 247.883077 
L 380.601677 246.996923 
L 380.708059 246.701538 
L 380.877384 246.553846 
L 380.972883 246.258462 
L 381.478983 245.076923 
L 381.92152 244.781538 
L 382.273604 244.043077 
L 383.241615 241.901538 
L 383.349261 241.753846 
L 383.65268 241.163077 
L 383.817073 240.793846 
L 383.953561 240.350769 
L 384.060494 240.055385 
L 384.37 239.538462 
L 384.567882 239.243077 
L 384.722774 238.873846 
L 384.830078 238.652308 
L 385.186097 237.84 
L 385.432237 237.544615 
L 385.580803 237.027692 
L 385.723953 236.658462 
L 385.859626 236.363077 
L 386.613446 234.073846 
L 386.884271 233.556923 
L 388.288442 231.193846 
L 388.774293 229.790769 
L 388.943436 229.569231 
L 389.101823 229.2 
L 389.266994 228.978462 
L 390.210757 227.28 
L 390.297402 227.132308 
L 390.571192 226.836923 
L 390.714377 226.393846 
L 391.794552 223.735385 
L 392.10551 223.513846 
L 392.245351 222.996923 
L 392.378687 222.406154 
L 392.630056 222.036923 
L 393.247783 220.190769 
L 393.35151 219.969231 
L 393.413202 219.747692 
L 393.636092 219.452308 
L 394.176418 218.418462 
L 394.24652 218.270769 
L 394.610494 218.049231 
L 395.372859 216.276923 
L 395.557237 216.129231 
L 395.601622 216.055385 
L 395.966357 215.833846 
L 396.782715 214.652308 
L 396.889225 214.430769 
L 397.360142 213.101538 
L 397.498833 212.953846 
L 397.654102 212.510769 
L 398.27019 211.476923 
L 398.296091 211.107692 
L 398.428559 210.96 
L 398.528567 210.369231 
L 399.007629 209.852308 
L 399.171108 209.630769 
L 399.323566 209.261538 
L 399.925308 207.932308 
L 400.665801 206.233846 
L 400.777517 206.086154 
L 400.861155 205.864615 
L 400.978007 205.495385 
L 401.237796 205.2 
L 401.329988 204.756923 
L 401.48864 204.24 
L 401.671211 203.796923 
L 401.955716 203.28 
L 402.178212 202.984615 
L 402.465941 202.246154 
L 402.645525 202.024615 
L 402.729242 201.803077 
L 402.875787 201.581538 
L 403.001118 201.286154 
L 403.222533 200.695385 
L 403.419031 200.473846 
L 403.717473 199.44 
L 404.109593 198.923077 
L 404.217676 198.627692 
L 404.48421 198.406154 
L 404.868257 197.889231 
L 405.391007 197.446154 
L 405.656822 196.781538 
L 405.929105 196.633846 
L 405.991133 196.338462 
L 406.194068 196.116923 
L 406.521969 195.452308 
L 407.026957 194.566154 
L 407.091041 194.418462 
L 407.310657 194.196923 
L 407.552187 193.827692 
L 407.58347 193.68 
L 407.775462 193.458462 
L 408.027373 192.572308 
L 408.205121 191.907692 
L 408.828928 191.095385 
L 409.065889 190.652308 
L 409.32401 190.283077 
L 409.433256 189.987692 
L 409.585796 189.766154 
L 409.644993 189.618462 
L 409.804711 189.396923 
L 410.011521 188.88 
L 410.484487 187.550769 
L 410.58657 187.329231 
L 410.739681 186.738462 
L 410.92687 186.516923 
L 411.137333 185.852308 
L 411.33457 185.483077 
L 411.460224 185.04 
L 411.628149 184.818462 
L 411.848332 184.227692 
L 411.942513 183.932308 
L 412.485414 182.898462 
L 412.587436 182.603077 
L 413.311379 181.052308 
L 413.404091 180.904615 
L 413.557281 180.683077 
L 413.600015 180.461538 
L 413.848212 180.313846 
L 413.882126 180.24 
L 414.065798 180.092308 
L 414.202076 179.649231 
L 414.282213 179.427692 
L 414.795631 178.024615 
L 414.963743 177.507692 
L 415.348251 177.286154 
L 415.743036 176.4 
L 415.884097 176.178462 
L 416.146395 175.587692 
L 416.447396 175.218462 
L 416.559862 174.775385 
L 416.687151 174.48 
L 417.136009 173.372308 
L 417.186653 173.150769 
L 417.407751 172.855385 
L 417.521057 172.56 
L 417.550155 172.338462 
L 417.748041 172.116923 
L 417.781274 171.969231 
L 417.994381 171.821538 
L 418.208316 171.452308 
L 418.348911 171.156923 
L 418.514828 171.009231 
L 418.602186 170.787692 
L 418.8823 170.566154 
L 418.983534 170.196923 
L 419.111881 169.975385 
L 419.242633 169.68 
L 419.356591 169.163077 
L 419.674853 168.424615 
L 420.037284 167.981538 
L 420.140687 167.686154 
L 421.817244 164.141538 
L 422.177962 163.181538 
L 422.29278 163.033846 
L 422.400031 162.738462 
L 422.70509 162.295385 
L 422.842806 161.926154 
L 423.178801 161.261538 
L 423.183568 161.187692 
L 423.39795 161.04 
L 423.593937 160.301538 
L 423.84895 160.08 
L 423.905203 159.858462 
L 424.131595 159.563077 
L 424.537247 159.12 
L 424.684418 158.824615 
L 425.008389 158.307692 
L 425.016924 158.233846 
L 425.217703 158.012308 
L 425.621838 156.904615 
L 425.715872 156.683077 
L 425.824111 156.461538 
L 426.23559 155.723077 
L 426.421702 155.575385 
L 426.532268 155.28 
L 427.070481 154.763077 
L 427.189529 154.467692 
L 427.440698 154.024615 
L 427.562259 153.803077 
L 427.633359 153.507692 
L 427.709351 153.212308 
L 428.347294 152.4 
L 428.507089 151.956923 
L 428.602635 151.735385 
L 428.875495 150.996923 
L 429.455591 150.332308 
L 429.55077 149.963077 
L 429.757523 149.446154 
L 429.910776 149.003077 
L 430.006848 148.707692 
L 430.26717 148.56 
L 430.611288 147.969231 
L 431.055801 147.6 
L 431.301555 147.009231 
L 431.445899 146.787692 
L 431.910391 145.753846 
L 432.131922 145.606154 
L 432.174319 145.458462 
L 432.505572 145.163077 
L 432.808233 144.498462 
L 433.205035 144.129231 
L 433.68209 142.726154 
L 433.876808 142.504615 
L 434.674033 141.249231 
L 434.829226 141.027692 
L 435.596439 139.624615 
L 435.644761 139.476923 
L 435.780213 139.329231 
L 435.892423 139.033846 
L 436.022212 138.812308 
L 436.1571 138.664615 
L 436.321027 138.369231 
L 436.369937 138.147692 
L 436.523971 137.852308 
L 436.58441 137.483077 
L 437.033869 136.818462 
L 437.18123 136.523077 
L 437.427419 136.227692 
L 437.964585 135.415385 
L 438.057496 135.193846 
L 438.481117 134.381538 
L 438.504427 134.307692 
L 438.697368 134.16 
L 439.168688 133.126154 
L 439.35192 132.904615 
L 441.25003 129.876923 
L 441.486497 129.729231 
L 441.487637 129.655385 
L 441.746411 129.433846 
L 441.844757 128.990769 
L 441.971912 128.769231 
L 442.095651 128.4 
L 442.359255 128.030769 
L 442.819092 127.292308 
L 443.119055 127.070769 
L 443.229624 126.849231 
L 443.34357 126.701538 
L 443.47088 126.332308 
L 443.798466 125.963077 
L 444.13781 125.003077 
L 444.88264 124.338462 
L 445.166944 123.969231 
L 445.362974 123.821538 
L 445.612444 123.304615 
L 445.717031 123.156923 
L 445.721807 123.083077 
L 445.885683 122.861538 
L 445.903039 122.787692 
L 446.466729 122.566154 
L 446.638758 122.049231 
L 446.916249 121.753846 
L 446.951665 121.606154 
L 447.184998 121.384615 
L 447.63551 120.793846 
L 447.93707 120.646154 
L 448.054802 120.424615 
L 448.241106 120.276923 
L 448.482419 119.833846 
L 448.914257 119.464615 
L 449.173633 119.095385 
L 449.300791 118.8 
L 449.753168 118.430769 
L 450.039326 118.209231 
L 450.225661 117.618462 
L 450.919682 116.658462 
L 451.152216 116.510769 
L 451.20892 116.363077 
L 451.491568 116.215385 
L 451.681897 115.846154 
L 452.548724 114.886154 
L 453.022358 114.295385 
L 453.215464 114.073846 
L 453.798871 113.483077 
L 453.960709 113.187692 
L 454.749005 112.227692 
L 454.794651 112.08 
L 455.250904 111.858462 
L 455.452186 111.489231 
L 455.878487 111.12 
L 456.138594 110.824615 
L 456.252729 110.676923 
L 456.470978 110.307692 
L 456.878738 110.012308 
L 456.955206 109.643077 
L 457.154597 109.421538 
L 457.285907 109.2 
L 457.79561 108.830769 
L 458.191824 108.387692 
L 458.638695 108.018462 
L 458.783087 107.870769 
L 459.179865 107.649231 
L 459.332628 107.353846 
L 459.507513 107.132308 
L 459.736405 106.984615 
L 460.186781 106.32 
L 460.597215 106.098462 
L 460.784856 105.876923 
L 460.86654 105.655385 
L 461.29927 105.36 
L 461.56227 104.695385 
L 461.577832 104.547692 
L 461.86504 104.252308 
L 461.909912 104.030769 
L 462.193348 103.883077 
L 462.23157 103.735385 
L 462.617309 103.513846 
L 463.494155 102.627692 
L 464.191445 102.184615 
L 464.660461 101.593846 
L 464.767316 101.446154 
L 466.701887 100.412308 
L 466.745015 100.338462 
L 467.496567 99.969231 
L 467.935225 99.673846 
L 468.122763 99.452308 
L 468.367314 99.230769 
L 468.58659 99.009231 
L 468.638422 98.787692 
L 469.543361 98.270769 
L 469.544615 98.196923 
L 469.83738 97.975385 
L 470.413775 97.236923 
L 471.843815 96.572308 
L 472.230707 96.203077 
L 472.468939 96.055385 
L 472.695249 95.907692 
L 473.051517 95.686154 
L 473.053221 95.612308 
L 473.437533 95.316923 
L 473.530179 95.169231 
L 474.27695 94.578462 
L 474.446655 94.283077 
L 474.618354 93.987692 
L 475.491373 93.470769 
L 475.849435 92.953846 
L 476.745805 92.732308 
L 477.509574 92.215385 
L 477.857064 91.92 
L 478.037634 91.772308 
L 478.050726 91.698462 
L 478.59926 91.329231 
L 478.617304 91.255385 
L 478.919537 91.107692 
L 479.137938 90.812308 
L 479.331953 90.590769 
L 480.146351 90.295385 
L 480.741058 89.778462 
L 481.131925 89.556923 
L 481.17489 89.483077 
L 481.760109 89.335385 
L 482.032276 89.04 
L 482.86205 88.227692 
L 483.180233 88.006154 
L 483.343863 87.636923 
L 483.523858 87.489231 
L 483.594696 87.341538 
L 485.613806 86.676923 
L 485.691452 86.529231 
L 486.022225 86.381538 
L 486.161053 86.16 
L 487.406245 85.864615 
L 487.831997 85.569231 
L 488.366013 85.273846 
L 488.388933 85.2 
L 489.025523 84.978462 
L 489.150542 84.830769 
L 489.635563 84.535385 
L 490.289037 84.24 
L 491.037061 83.870769 
L 491.191936 83.723077 
L 491.431116 83.575385 
L 491.500006 83.353846 
L 492.088085 83.058462 
L 493.411263 82.467692 
L 494.291327 81.950769 
L 495.158775 81.803077 
L 495.227394 81.581538 
L 496.059436 81.36 
L 496.210877 81.064615 
L 496.385435 80.843077 
L 496.671899 80.695385 
L 497.752963 80.030769 
L 498.329074 79.735385 
L 500.865686 79.513846 
L 501.133246 79.292308 
L 502.280696 79.070769 
L 502.47021 78.996923 
L 503.372924 78.849231 
L 503.954845 78.701538 
L 504.705605 78.48 
L 504.793219 78.406154 
L 505.564121 78.258462 
L 505.780828 78.110769 
L 506.35683 77.963077 
L 506.383424 77.889231 
L 507.578869 77.372308 
L 507.756705 77.224615 
L 507.837469 77.150769 
L 509.470581 76.707692 
L 509.557039 76.633846 
L 510.348741 76.412308 
L 510.511995 76.264615 
L 510.87512 76.190769 
L 512.534519 76.043077 
L 512.667276 75.895385 
L 513.964009 75.6 
L 514.072364 75.452308 
L 516.079121 75.009231 
L 516.495116 74.713846 
L 516.59934 74.492308 
L 516.604105 74.418462 
L 517.295248 74.270769 
L 517.341994 74.196923 
L 518.895429 73.901538 
L 521.128898 73.163077 
L 523.616887 72.941538 
L 523.965321 72.793846 
L 525.370857 72.646154 
L 526.321276 72.424615 
L 526.396043 72.276923 
L 526.840166 72.055385 
L 532.876876 71.390769 
L 536.471858 71.095385 
L 537.698504 70.8 
L 537.735817 70.726154 
L 538.138853 70.652308 
L 542.072363 70.356923 
L 542.083414 70.283077 
L 542.988023 70.061538 
L 547.057429 69.766154 
L 548.447173 69.544615 
L 549.295835 69.249231 
L 553.282617 69.027692 
L 555.328815 68.732308 
L 555.494901 68.658462 
L 558.986427 68.436923 
L 567.240622 68.215385 
L 570.855033 68.067692 
L 571.32162 67.993846 
L 580.3571 67.772308 
L 580.453129 67.698462 
L 601.509245 67.403077 
L 602.772654 67.329231 
L 618.305605 67.107692 
L 622.636364 66.96 
L 622.636364 66.96 
" clip-path="url(#pf80fb1c3cb)" style="fill: none; stroke: #0000ff; stroke-width: 1.5; stroke-linecap: square"/>
   </g>
   <g id="line2d_2">
    <path d="M 206.693327 369.36 
L 246.32269 369.064615 
L 247.528202 368.916923 
L 258.408652 368.547692 
L 258.779149 368.4 
L 263.507505 368.178462 
L 268.946169 367.44 
L 270.058222 366.996923 
L 270.236976 366.849231 
L 271.874387 366.553846 
L 272.056806 366.406154 
L 275.177381 365.963077 
L 279.889312 365.52 
L 282.06779 365.076923 
L 287.023372 364.338462 
L 287.051068 364.264615 
L 288.005193 364.043077 
L 288.024635 363.969231 
L 288.47597 363.821538 
L 288.620729 363.6 
L 289.035843 363.304615 
L 291.155457 362.787692 
L 291.225439 362.713846 
L 291.665839 362.492308 
L 291.873508 362.344615 
L 292.573468 362.123077 
L 292.737451 361.827692 
L 293.290707 361.606154 
L 293.358933 361.532308 
L 294.026165 361.236923 
L 295.308639 360.498462 
L 295.878066 360.350769 
L 295.883678 360.276923 
L 296.658844 359.981538 
L 296.713513 359.907692 
L 297.576359 359.686154 
L 297.640224 359.612308 
L 298.499339 359.316923 
L 299.163542 359.095385 
L 299.845959 358.8 
L 299.905171 358.726154 
L 300.15488 358.578462 
L 300.217956 358.504615 
L 301.325204 358.061538 
L 301.471969 357.913846 
L 302.121075 357.618462 
L 302.287074 357.396923 
L 303.168006 357.101538 
L 303.583181 356.584615 
L 303.69573 356.289231 
L 304.547342 355.993846 
L 304.587278 355.92 
L 305.268644 355.624615 
L 305.46683 355.403077 
L 305.990434 355.033846 
L 306.295906 354.738462 
L 308.106349 353.852308 
L 308.348574 353.704615 
L 308.65174 353.335385 
L 308.804289 353.113846 
L 309.235031 352.670769 
L 309.524104 352.523077 
L 309.691735 352.227692 
L 310.490327 351.858462 
L 310.701544 351.489231 
L 310.706157 351.415385 
L 311.059034 351.193846 
L 311.258597 350.898462 
L 311.622332 350.676923 
L 312.006503 350.529231 
L 312.266699 350.233846 
L 313.005776 349.716923 
L 314.076618 349.273846 
L 314.332502 349.126154 
L 314.405142 348.978462 
L 315.216934 348.166154 
L 315.564718 347.870769 
L 316.409702 347.427692 
L 316.451949 347.353846 
L 316.697426 347.206154 
L 316.82138 347.058462 
L 317.54938 346.836923 
L 317.928507 346.615385 
L 318.015593 346.541538 
L 318.388811 346.393846 
L 318.39325 346.32 
L 318.673291 346.172308 
L 318.916965 345.876923 
L 319.604142 345.36 
L 319.877599 345.212308 
L 319.95229 344.990769 
L 320.00501 344.621538 
L 320.32318 344.4 
L 320.54384 343.956923 
L 321.096792 343.809231 
L 321.22701 343.661538 
L 321.634611 343.218462 
L 321.722091 342.996923 
L 321.944768 342.627692 
L 322.067548 342.406154 
L 322.304822 342.258462 
L 322.543484 341.741538 
L 322.935832 341.446154 
L 324.44363 339.895385 
L 324.527288 339.6 
L 324.999452 339.452308 
L 325.656592 338.64 
L 325.896088 338.418462 
L 325.912733 338.270769 
L 326.414022 337.901538 
L 326.60864 337.458462 
L 326.663429 337.310769 
L 326.929657 337.015385 
L 327.035024 336.646154 
L 327.510736 336.350769 
L 327.534039 336.276923 
L 327.771371 336.055385 
L 327.898318 335.76 
L 328.660529 334.947692 
L 328.955556 334.430769 
L 329.187314 334.209231 
L 329.929565 333.027692 
L 330.307619 332.510769 
L 330.578698 332.363077 
L 330.809103 332.215385 
L 330.940468 331.92 
L 331.19937 331.550769 
L 331.755258 331.255385 
L 332.323438 330.443077 
L 332.402243 330.295385 
L 332.698715 330 
L 333.284709 329.852308 
L 333.466577 329.630769 
L 333.776178 329.187692 
L 333.777119 329.113846 
L 333.944777 328.966154 
L 334.040575 328.818462 
L 334.475108 328.08 
L 334.844583 327.932308 
L 335.018961 327.636923 
L 335.324378 327.12 
L 335.705523 326.898462 
L 335.779818 326.603077 
L 335.961145 326.381538 
L 335.977902 326.307692 
L 336.215849 326.086154 
L 336.569693 325.495385 
L 336.678251 325.2 
L 337.352828 324.609231 
L 337.57296 324.24 
L 337.743911 323.944615 
L 337.983168 323.796923 
L 338.207658 323.28 
L 338.398199 322.984615 
L 338.632164 322.541538 
L 338.851068 322.246154 
L 338.983482 322.024615 
L 339.11362 321.876923 
L 339.30203 321.581538 
L 339.60569 321.286154 
L 339.892679 321.138462 
L 339.918585 320.916923 
L 340.195804 320.769231 
L 340.276696 320.547692 
L 340.609012 320.104615 
L 340.789484 319.956923 
L 342.29084 317.076923 
L 342.753668 315.969231 
L 342.967293 315.747692 
L 343.031898 315.6 
L 343.212576 315.304615 
L 344.391152 313.089231 
L 344.492415 312.867692 
L 344.651006 312.498462 
L 344.828442 311.981538 
L 345.200375 311.76 
L 345.357525 311.538462 
L 345.60742 311.021538 
L 346.013504 310.430769 
L 346.063006 310.209231 
L 346.301629 309.987692 
L 346.438667 309.618462 
L 346.60907 309.249231 
L 346.809732 309.027692 
L 347.148206 308.289231 
L 347.388192 307.92 
L 348.091331 306.590769 
L 348.247908 306.369231 
L 349.489876 304.006154 
L 349.667532 303.415385 
L 349.851887 303.12 
L 350.313638 302.233846 
L 350.32233 302.16 
L 350.586385 301.938462 
L 350.767647 301.273846 
L 350.965799 301.052308 
L 351.039292 300.756923 
L 351.244357 300.535385 
L 351.384394 300.166154 
L 351.59105 299.944615 
L 351.730454 299.501538 
L 351.86102 299.353846 
L 351.942395 299.058462 
L 352.117465 298.763077 
L 352.341119 298.393846 
L 352.66508 298.098462 
L 352.72382 297.950769 
L 352.862014 297.729231 
L 353.023675 296.916923 
L 353.755328 295.956923 
L 354.243429 295.366154 
L 354.378548 295.070769 
L 354.749272 293.741538 
L 355.11072 293.150769 
L 355.219945 292.929231 
L 355.645038 292.190769 
L 356.022682 291.673846 
L 356.452068 290.935385 
L 356.563488 290.492308 
L 356.830216 289.901538 
L 356.984905 289.606154 
L 357.874527 288.276923 
L 358.88742 285.84 
L 359.083783 285.396923 
L 359.929231 283.624615 
L 360.053253 283.403077 
L 360.210591 283.107692 
L 360.706382 282.221538 
L 361.470533 280.227692 
L 361.797927 279.415385 
L 362.06086 278.972308 
L 362.190672 278.676923 
L 363.035449 277.716923 
L 363.092797 277.421538 
L 363.189838 277.2 
L 363.368052 276.904615 
L 363.483319 276.535385 
L 363.527277 276.24 
L 363.828098 276.092308 
L 363.96087 275.870769 
L 364.788571 273.950769 
L 365.37143 273.286154 
L 365.423195 273.138462 
L 365.77209 272.769231 
L 365.97088 272.104615 
L 366.29883 271.661538 
L 366.394869 271.070769 
L 366.511511 270.775385 
L 366.585063 270.406154 
L 366.879149 269.889231 
L 367.048956 269.667692 
L 367.816107 267.895385 
L 367.927142 267.526154 
L 368.267301 266.196923 
L 368.508097 265.606154 
L 368.696864 265.089231 
L 368.755881 264.867692 
L 368.865349 264.350769 
L 369.101912 264.055385 
L 369.492356 263.021538 
L 369.604448 262.726154 
L 369.748953 262.209231 
L 370.160536 260.953846 
L 370.383901 260.732308 
L 370.52626 260.510769 
L 370.775261 259.772308 
L 370.866568 259.476923 
L 370.952475 259.181538 
L 371.093162 258.664615 
L 371.35937 257.926154 
L 371.520502 257.778462 
L 371.583958 257.630769 
L 371.787077 257.409231 
L 371.827009 257.261538 
L 372.061025 257.113846 
L 372.270269 256.670769 
L 372.359729 256.375385 
L 372.594945 256.08 
L 373.033714 255.489231 
L 373.116445 255.267692 
L 373.254786 254.972308 
L 373.377809 254.529231 
L 373.590702 254.012308 
L 373.731295 253.790769 
L 373.880928 253.569231 
L 373.966944 253.2 
L 374.106019 252.683077 
L 374.235838 252.461538 
L 374.335194 252.166154 
L 374.444449 251.723077 
L 374.778768 250.836923 
L 374.937632 250.541538 
L 375.391218 249.064615 
L 375.679912 248.547692 
L 375.773975 248.326154 
L 375.93838 248.030769 
L 376.109977 247.735385 
L 376.259758 247.44 
L 376.622585 246.184615 
L 377.022979 245.446154 
L 377.164889 245.224615 
L 377.582467 244.707692 
L 377.744763 244.412308 
L 377.952965 244.116923 
L 378.022964 243.895385 
L 378.232512 243.452308 
L 379.817903 240.203077 
L 380.019431 239.981538 
L 380.300184 239.612308 
L 380.523391 239.169231 
L 381.193088 237.618462 
L 381.329549 237.175385 
L 381.467706 236.953846 
L 381.605831 236.732308 
L 381.734625 236.584615 
L 381.833528 236.436923 
L 382.051471 236.289231 
L 382.272883 235.624615 
L 382.345051 235.329231 
L 382.765678 235.033846 
L 382.90092 234.369231 
L 383.057627 234 
L 383.498008 233.04 
L 384.468491 230.233846 
L 384.603881 229.938462 
L 384.806967 229.495385 
L 385.085403 229.2 
L 385.097148 229.126154 
L 385.268557 228.978462 
L 385.403293 228.535385 
L 385.533531 228.24 
L 385.939185 226.984615 
L 386.09383 226.689231 
L 386.163364 226.32 
L 386.41887 225.876923 
L 386.57114 225.286154 
L 386.776137 224.843077 
L 387.006517 223.735385 
L 387.158043 223.366154 
L 387.221072 223.070769 
L 387.384919 222.849231 
L 387.484285 222.553846 
L 387.984018 221.298462 
L 388.439273 219.821538 
L 388.563778 219.6 
L 388.628163 219.304615 
L 388.766835 219.156923 
L 388.97394 218.787692 
L 389.101505 218.492308 
L 389.19182 218.123077 
L 389.414434 217.532308 
L 390.199807 215.390769 
L 390.488979 215.095385 
L 390.572523 214.8 
L 390.789893 214.209231 
L 390.853928 213.987692 
L 391.142875 213.766154 
L 391.273701 213.470769 
L 391.432053 213.175385 
L 391.632876 212.584615 
L 393.150578 209.261538 
L 393.762621 207.858462 
L 393.963572 207.415385 
L 394.373251 206.750769 
L 394.393891 206.603077 
L 394.563464 206.381538 
L 394.848231 205.790769 
L 394.919267 205.569231 
L 395.054242 205.347692 
L 396.567815 201.950769 
L 396.666156 201.655385 
L 396.93205 200.769231 
L 396.971733 200.621538 
L 397.13684 200.4 
L 397.475446 199.366154 
L 397.670152 199.144615 
L 397.894388 198.849231 
L 398.064018 198.553846 
L 398.180197 198.406154 
L 398.584749 197.889231 
L 398.677768 197.667692 
L 398.741326 197.446154 
L 398.845294 197.224615 
L 398.955668 196.929231 
L 399.090203 196.338462 
L 399.239775 196.190769 
L 399.35789 195.821538 
L 399.412802 195.673846 
L 399.665457 195.452308 
L 399.85898 195.156923 
L 400.4434 193.827692 
L 400.603001 193.606154 
L 400.730556 193.163077 
L 400.961524 192.867692 
L 401.542927 190.873846 
L 401.638888 190.652308 
L 402.240162 189.470769 
L 402.56082 188.584615 
L 403.197063 187.624615 
L 403.257449 187.181538 
L 403.367845 187.033846 
L 403.481506 186.664615 
L 404.07459 185.335385 
L 404.221825 184.892308 
L 404.408713 184.227692 
L 404.700208 183.415385 
L 404.775172 183.193846 
L 405.056729 182.381538 
L 405.152532 182.012308 
L 405.330493 181.864615 
L 406.125198 180.461538 
L 406.197844 180.24 
L 406.320654 179.870769 
L 406.466486 179.427692 
L 406.672448 179.132308 
L 407.105702 178.393846 
L 407.226567 178.098462 
L 407.616554 177.286154 
L 407.732917 176.769231 
L 407.876757 176.547692 
L 408.032157 175.956923 
L 408.225166 175.587692 
L 408.444329 175.144615 
L 408.569795 174.775385 
L 408.803577 174.553846 
L 408.880399 174.406154 
L 409.024341 174.184615 
L 409.025955 174.110769 
L 409.294198 173.889231 
L 409.5907 173.224615 
L 409.745738 173.003077 
L 409.972607 172.707692 
L 410.198197 171.821538 
L 410.412384 171.452308 
L 410.420676 171.304615 
L 410.691347 171.083077 
L 410.798185 170.861538 
L 410.849785 170.492308 
L 411.108504 170.196923 
L 411.384565 169.384615 
L 411.620997 168.941538 
L 412.129017 167.907692 
L 412.345352 167.686154 
L 412.42697 167.390769 
L 412.598841 167.243077 
L 412.79984 166.356923 
L 413.26167 165.027692 
L 413.431713 164.584615 
L 414.459341 162.369231 
L 414.58408 162.073846 
L 414.751399 161.704615 
L 415.065957 160.966154 
L 415.18287 160.744615 
L 415.282402 160.523077 
L 415.701885 160.301538 
L 415.709339 160.227692 
L 416.005434 159.932308 
L 416.722698 158.012308 
L 416.952851 157.347692 
L 417.134795 157.052308 
L 417.374368 156.756923 
L 417.506501 156.24 
L 417.852354 155.501538 
L 418.118563 154.836923 
L 418.493165 153.950769 
L 418.654884 153.729231 
L 419.614196 152.326154 
L 419.652746 152.104615 
L 419.836229 151.956923 
L 420.067569 151.292308 
L 420.227983 151.070769 
L 420.289194 150.849231 
L 420.463937 150.627692 
L 421.185163 148.929231 
L 421.349887 148.781538 
L 421.487624 148.486154 
L 422.553255 146.492308 
L 422.829323 146.270769 
L 423.014056 146.049231 
L 423.196994 145.827692 
L 423.386152 145.532308 
L 423.48072 145.089231 
L 424.713665 142.504615 
L 424.825993 142.283077 
L 424.933928 141.987692 
L 425.043771 141.766154 
L 425.285613 141.470769 
L 425.662269 140.953846 
L 426.125306 139.92 
L 426.423734 139.476923 
L 426.630344 138.812308 
L 426.808668 138.664615 
L 427.02896 138 
L 427.035551 137.852308 
L 427.216452 137.704615 
L 427.725696 136.523077 
L 427.881851 136.301538 
L 428.035486 136.153846 
L 428.318922 135.636923 
L 428.740259 135.12 
L 428.760709 135.046154 
L 428.979073 134.824615 
L 429.014823 134.455385 
L 429.117632 134.233846 
L 429.247037 133.790769 
L 429.926617 132.830769 
L 429.996024 132.609231 
L 430.16981 132.461538 
L 430.499806 131.944615 
L 430.623848 131.723077 
L 430.853983 131.427692 
L 431.071594 131.132308 
L 431.236403 130.541538 
L 431.648819 130.32 
L 431.958669 129.581538 
L 432.272636 129.36 
L 432.279341 129.286154 
L 432.624097 129.064615 
L 432.835473 128.326154 
L 433.517766 126.48 
L 433.644492 126.258462 
L 433.879789 125.52 
L 434.281091 125.076923 
L 434.31733 124.855385 
L 434.545245 124.633846 
L 435.110776 123.821538 
L 435.375145 123.526154 
L 435.492726 123.304615 
L 435.503503 123.230769 
L 435.806817 122.935385 
L 435.899308 122.787692 
L 436.438124 122.196923 
L 436.765567 121.384615 
L 437.086458 121.236923 
L 437.387855 120.793846 
L 437.598939 120.646154 
L 439.234492 117.766154 
L 439.242787 117.692308 
L 439.710211 117.323077 
L 439.825943 117.175385 
L 440.146435 116.806154 
L 440.305875 116.436923 
L 440.506783 116.289231 
L 440.574965 115.993846 
L 441.072457 115.476923 
L 441.285058 115.255385 
L 441.510312 114.886154 
L 441.621744 114.664615 
L 441.759061 114.295385 
L 442.079897 114.147692 
L 442.489318 113.704615 
L 442.664486 113.483077 
L 442.910193 113.261538 
L 443.004769 112.966154 
L 443.314403 112.523077 
L 443.36817 112.375385 
L 443.63233 112.08 
L 444.083758 111.563077 
L 444.740062 110.972308 
L 445.297435 110.307692 
L 445.435322 109.569231 
L 446.174726 108.830769 
L 446.502315 108.535385 
L 446.748385 108.166154 
L 446.977797 107.796923 
L 447.290404 107.575385 
L 448.197986 105.950769 
L 448.213143 105.876923 
L 448.453818 105.655385 
L 448.587788 105.507692 
L 448.668395 105.433846 
L 448.967985 105.286154 
L 449.238387 104.990769 
L 449.501113 104.769231 
L 449.595787 104.547692 
L 449.770435 104.252308 
L 450.205091 104.030769 
L 450.5431 103.513846 
L 450.687805 103.070769 
L 450.908783 102.775385 
L 451.108647 102.332308 
L 451.4431 102.110769 
L 451.831389 101.667692 
L 452.667689 101.224615 
L 453.128801 100.707692 
L 453.486493 100.56 
L 453.700494 100.190769 
L 453.849748 99.969231 
L 454.396432 99.747692 
L 454.783775 99.156923 
L 454.811109 99.083077 
L 455.114507 98.861538 
L 455.258923 98.418462 
L 455.628505 98.123077 
L 456.824191 97.310769 
L 458.349237 95.612308 
L 458.748222 95.390769 
L 458.935419 95.021538 
L 459.331818 94.504615 
L 459.828605 93.470769 
L 460.112457 93.323077 
L 460.25072 92.953846 
L 460.594319 92.806154 
L 460.722259 92.584615 
L 461.240626 92.215385 
L 462.281729 91.403077 
L 462.680547 91.181538 
L 462.77067 90.96 
L 463.130316 90.516923 
L 463.300177 90.147692 
L 463.462974 89.852308 
L 463.843437 89.556923 
L 463.964282 89.335385 
L 464.783225 88.523077 
L 464.808806 88.449231 
L 465.560883 88.301538 
L 466.07907 87.932308 
L 466.440173 87.784615 
L 466.441451 87.710769 
L 467.40069 87.341538 
L 467.520011 87.046154 
L 468.144845 86.603077 
L 468.434509 86.233846 
L 469.039803 85.938462 
L 469.251067 85.495385 
L 469.567705 85.2 
L 469.59664 85.126154 
L 470.31264 84.978462 
L 470.449643 84.756923 
L 471.779189 84.387692 
L 472.672555 84.018462 
L 473.569088 83.28 
L 474.057383 82.984615 
L 474.063127 82.910769 
L 474.773232 82.615385 
L 474.78607 82.541538 
L 474.980635 82.393846 
L 474.995468 82.32 
L 475.777153 81.803077 
L 476.227553 81.433846 
L 476.934607 81.064615 
L 477.651737 80.843077 
L 477.672579 80.769231 
L 477.818365 80.695385 
L 478.688086 80.473846 
L 479.685238 80.178462 
L 480.18477 79.883077 
L 481.005958 79.661538 
L 481.145379 79.44 
L 481.836662 79.218462 
L 481.914746 79.144615 
L 482.738305 78.923077 
L 482.743136 78.849231 
L 484.389702 78.553846 
L 484.524156 78.48 
L 486.040593 78.184615 
L 487.533152 77.815385 
L 487.643112 77.741538 
L 488.348265 77.52 
L 488.636519 77.298462 
L 489.605107 76.929231 
L 490.532061 76.486154 
L 491.770013 76.190769 
L 491.940568 75.969231 
L 492.500065 75.673846 
L 492.904313 75.526154 
L 492.914268 75.452308 
L 494.77491 74.566154 
L 494.820633 74.492308 
L 495.620624 74.270769 
L 496.145974 73.901538 
L 496.975463 73.68 
L 497.191847 73.532308 
L 497.192996 73.458462 
L 499.090092 72.72 
L 499.485628 72.498462 
L 499.745253 72.350769 
L 501.258958 71.981538 
L 502.320056 71.76 
L 504.249207 71.538462 
L 505.093722 71.316923 
L 506.924074 70.947692 
L 507.378701 70.8 
L 508.316917 70.652308 
L 508.326141 70.578462 
L 511.570589 70.209231 
L 512.048914 69.987692 
L 514.161662 69.766154 
L 520.254 68.806154 
L 522.587756 68.584615 
L 523.025895 68.510769 
L 537.402462 67.92 
L 537.907306 67.846154 
L 543.639347 67.624615 
L 547.168648 67.476923 
L 551.406137 67.329231 
L 552.294532 67.255385 
L 590.381546 66.96 
L 590.381546 66.96 
" clip-path="url(#pf80fb1c3cb)" style="fill: none; stroke: #ffa500; stroke-width: 1.5; stroke-linecap: square"/>
   </g>
   <g id="LineCollection_1">
    <path d="M 418.8823 170.566154 
L 418.8823 153.373214 
" clip-path="url(#pf80fb1c3cb)" style="fill: none; stroke: #000000; stroke-width: 1.5"/>
   </g>
   <g id="patch_3">
    <path d="M 90 384.48 
L 90 51.84 
" style="fill: none; stroke: #808080; stroke-width: 0.8; stroke-linejoin: miter; stroke-linecap: square"/>
   </g>
   <g id="patch_4">
    <path d="M 648 384.48 
L 648 51.84 
" style="fill: none; stroke: #808080; stroke-width: 0.8; stroke-linejoin: miter; stroke-linecap: square"/>
   </g>
   <g id="patch_5">
    <path d="M 90 384.48 
L 648 384.48 
" style="fill: none; stroke: #808080; stroke-width: 0.8; stroke-linejoin: miter; stroke-linecap: square"/>
   </g>
   <g id="patch_6">
    <path d="M 90 51.84 
L 648 51.84 
" style="fill: none; stroke: #808080; stroke-width: 0.8; stroke-linejoin: miter; stroke-linecap: square"/>
   </g>
   <g id="matplotlib.axis_1">
    <g id="xtick_1">
     <g id="line2d_3">
      <path d="M 187.016472 384.48 
L 187.016472 51.84 
" clip-path="url(#pf80fb1c3cb)" style="fill: none; stroke: #b0b0b0; stroke-width: 0.5; stroke-linecap: square"/>
     </g>
     <g id="line2d_4">
      <defs>
       <path id="ma8c91d1a0c" d="M 0 0 
L 0 3.5 
" style="stroke: #000000; stroke-width: 0.8"/>
      </defs>
      <g>
       <use xlink:href="#ma8c91d1a0c" x="187.016472" y="384.48" style="stroke: #000000; stroke-width: 0.8"/>
      </g>
     </g>
     <g id="text_1">
      <!-- $\mathdefault{−4}$ -->
      <g transform="translate(180.176472 400.22875) scale(0.12 -0.12)">
       <defs>
        <path id="FreeSans-2212" d="M 3418 1709 
L 3418 1261 
L 320 1261 
L 320 1709 
L 3418 1709 
z
" transform="scale(0.015625)"/>
        <path id="FreeSans-34" d="M 2093 1088 
L 179 1088 
L 179 1683 
L 2240 4538 
L 2656 4538 
L 2656 1594 
L 3328 1594 
L 3328 1088 
L 2656 1088 
L 2656 0 
L 2093 0 
L 2093 1088 
z
M 2093 1594 
L 2093 3578 
L 672 1594 
L 2093 1594 
z
" transform="scale(0.015625)"/>
       </defs>
       <use xlink:href="#FreeSans-2212" transform="translate(0 0.09375)"/>
       <use xlink:href="#FreeSans-34" transform="translate(58.399994 0.09375)"/>
      </g>
     </g>
    </g>
    <g id="xtick_2">
     <g id="line2d_5">
      <path d="M 289.068902 384.48 
L 289.068902 51.84 
" clip-path="url(#pf80fb1c3cb)" style="fill: none; stroke: #b0b0b0; stroke-width: 0.5; stroke-linecap: square"/>
     </g>
     <g id="line2d_6">
      <g>
       <use xlink:href="#ma8c91d1a0c" x="289.068902" y="384.48" style="stroke: #000000; stroke-width: 0.8"/>
      </g>
     </g>
     <g id="text_2">
      <!-- $\mathdefault{−2}$ -->
      <g transform="translate(282.228902 400.22875) scale(0.12 -0.12)">
       <defs>
        <path id="FreeSans-32" d="M 320 2963 
Q 365 4538 1818 4538 
Q 2464 4538 2867 4166 
Q 3270 3795 3270 3206 
Q 3270 2362 2310 1837 
L 1670 1491 
Q 1254 1267 1075 1056 
Q 896 845 851 557 
L 3238 557 
L 3238 0 
L 218 0 
Q 256 749 518 1155 
Q 781 1562 1491 1965 
L 2080 2298 
Q 2694 2650 2694 3194 
Q 2694 3558 2438 3801 
Q 2182 4045 1798 4045 
Q 947 4045 883 2963 
L 320 2963 
z
" transform="scale(0.015625)"/>
       </defs>
       <use xlink:href="#FreeSans-2212" transform="translate(0 0.09375)"/>
       <use xlink:href="#FreeSans-32" transform="translate(58.399994 0.09375)"/>
      </g>
     </g>
    </g>
    <g id="xtick_3">
     <g id="line2d_7">
      <path d="M 391.121332 384.48 
L 391.121332 51.84 
" clip-path="url(#pf80fb1c3cb)" style="fill: none; stroke: #b0b0b0; stroke-width: 0.5; stroke-linecap: square"/>
     </g>
     <g id="line2d_8">
      <g>
       <use xlink:href="#ma8c91d1a0c" x="391.121332" y="384.48" style="stroke: #000000; stroke-width: 0.8"/>
      </g>
     </g>
     <g id="text_3">
      <!-- $\mathdefault{0}$ -->
      <g transform="translate(387.761332 400.22875) scale(0.12 -0.12)">
       <defs>
        <path id="FreeSans-30" d="M 275 2195 
Q 275 2765 371 3200 
Q 467 3635 614 3881 
Q 762 4128 966 4281 
Q 1171 4435 1360 4486 
Q 1549 4538 1760 4538 
Q 3245 4538 3245 2157 
Q 3245 1600 3149 1168 
Q 3053 736 2864 445 
Q 2675 154 2396 3 
Q 2118 -147 1760 -147 
Q 1030 -147 652 451 
Q 275 1050 275 2195 
z
M 2669 2208 
Q 2669 4038 1760 4038 
Q 851 4038 851 2189 
Q 851 1568 950 1152 
Q 1050 736 1251 528 
Q 1453 320 1747 320 
Q 2221 320 2445 781 
Q 2669 1242 2669 2208 
z
" transform="scale(0.015625)"/>
       </defs>
       <use xlink:href="#FreeSans-30" transform="translate(0 0.09375)"/>
      </g>
     </g>
    </g>
    <g id="xtick_4">
     <g id="line2d_9">
      <path d="M 493.173761 384.48 
L 493.173761 51.84 
" clip-path="url(#pf80fb1c3cb)" style="fill: none; stroke: #b0b0b0; stroke-width: 0.5; stroke-linecap: square"/>
     </g>
     <g id="line2d_10">
      <g>
       <use xlink:href="#ma8c91d1a0c" x="493.173761" y="384.48" style="stroke: #000000; stroke-width: 0.8"/>
      </g>
     </g>
     <g id="text_4">
      <!-- $\mathdefault{2}$ -->
      <g transform="translate(489.813761 400.22875) scale(0.12 -0.12)">
       <use xlink:href="#FreeSans-32" transform="translate(0 0.09375)"/>
      </g>
     </g>
    </g>
    <g id="xtick_5">
     <g id="line2d_11">
      <path d="M 595.226191 384.48 
L 595.226191 51.84 
" clip-path="url(#pf80fb1c3cb)" style="fill: none; stroke: #b0b0b0; stroke-width: 0.5; stroke-linecap: square"/>
     </g>
     <g id="line2d_12">
      <g>
       <use xlink:href="#ma8c91d1a0c" x="595.226191" y="384.48" style="stroke: #000000; stroke-width: 0.8"/>
      </g>
     </g>
     <g id="text_5">
      <!-- $\mathdefault{4}$ -->
      <g transform="translate(591.866191 400.22875) scale(0.12 -0.12)">
       <use xlink:href="#FreeSans-34" transform="translate(0 0.09375)"/>
      </g>
     </g>
    </g>
    <g id="text_6">
     <!-- Value -->
     <g transform="translate(351.201375 418.342875) scale(0.144 -0.144)">
      <defs>
       <path id="FreeSans-56" d="M 2413 0 
L 1773 0 
L 96 4666 
L 736 4666 
L 2106 717 
L 3398 4666 
L 4032 4666 
L 2413 0 
z
" transform="scale(0.015625)"/>
       <path id="FreeSans-61" d="M 339 2362 
Q 378 3450 1683 3450 
Q 2304 3450 2624 3216 
Q 2944 2982 2944 2534 
L 2944 563 
Q 2944 301 3232 301 
Q 3290 301 3347 314 
L 3347 -90 
Q 3123 -147 2982 -147 
Q 2726 -147 2595 -28 
Q 2464 90 2432 346 
Q 2150 83 1878 -32 
Q 1606 -147 1293 -147 
Q 954 -147 707 -25 
Q 461 96 326 320 
Q 192 544 192 845 
Q 192 992 221 1113 
Q 250 1235 285 1328 
Q 320 1421 409 1501 
Q 499 1581 560 1632 
Q 621 1683 765 1731 
Q 909 1779 985 1801 
Q 1062 1824 1254 1856 
Q 1446 1888 1536 1901 
Q 1626 1914 1856 1946 
Q 2170 1984 2291 2067 
Q 2413 2150 2413 2317 
L 2413 2458 
Q 2413 2701 2217 2829 
Q 2022 2957 1664 2957 
Q 1293 2957 1101 2813 
Q 909 2669 877 2362 
L 339 2362 
z
M 1408 320 
Q 1850 320 2131 553 
Q 2413 787 2413 1056 
L 2413 1658 
Q 2253 1581 1929 1529 
Q 1606 1478 1369 1440 
Q 1133 1402 941 1258 
Q 749 1114 749 858 
Q 749 602 921 461 
Q 1094 320 1408 320 
z
" transform="scale(0.015625)"/>
       <path id="FreeSans-6c" d="M 922 4666 
L 922 0 
L 384 0 
L 384 4666 
L 922 4666 
z
" transform="scale(0.015625)"/>
       <path id="FreeSans-75" d="M 3053 0 
L 2573 0 
L 2573 467 
Q 2336 134 2080 -6 
Q 1824 -147 1453 -147 
Q 966 -147 675 102 
Q 384 352 384 768 
L 384 3354 
L 915 3354 
L 915 979 
Q 915 678 1100 499 
Q 1286 320 1606 320 
Q 2022 320 2272 630 
Q 2522 941 2522 1453 
L 2522 3354 
L 3053 3354 
L 3053 0 
z
" transform="scale(0.015625)"/>
       <path id="FreeSans-65" d="M 3219 1498 
L 749 1498 
Q 762 973 1021 659 
Q 1280 346 1734 346 
Q 2387 346 2611 1018 
L 3149 1018 
Q 3046 467 2668 160 
Q 2291 -147 1715 -147 
Q 1011 -147 601 329 
Q 192 806 192 1632 
Q 192 2458 611 2954 
Q 1030 3450 1728 3450 
Q 3219 3450 3219 1498 
z
M 762 1933 
L 2650 1933 
Q 2650 2368 2387 2662 
Q 2125 2957 1721 2957 
Q 1318 2957 1056 2678 
Q 794 2400 762 1933 
z
" transform="scale(0.015625)"/>
      </defs>
      <use xlink:href="#FreeSans-56"/>
      <use xlink:href="#FreeSans-61" x="64.499985"/>
      <use xlink:href="#FreeSans-6c" x="118.799973"/>
      <use xlink:href="#FreeSans-75" x="140.199966"/>
      <use xlink:href="#FreeSans-65" x="193.899963"/>
     </g>
    </g>
   </g>
   <g id="matplotlib.axis_2">
    <g id="ytick_1">
     <g id="line2d_13">
      <path d="M 90 369.433846 
L 648 369.433846 
" clip-path="url(#pf80fb1c3cb)" style="fill: none; stroke: #b0b0b0; stroke-width: 0.5; stroke-linecap: square"/>
     </g>
     <g id="line2d_14">
      <defs>
       <path id="m5ea226da56" d="M 0 0 
L -3.5 0 
" style="stroke: #000000; stroke-width: 0.8"/>
      </defs>
      <g>
       <use xlink:href="#m5ea226da56" x="90" y="369.433846" style="stroke: #000000; stroke-width: 0.8"/>
      </g>
     </g>
     <g id="text_7">
      <!-- $\mathdefault{0.0}$ -->
      <g transform="translate(66.56 373.808221) scale(0.12 -0.12)">
       <defs>
        <path id="FreeSans-2e" d="M 1178 666 
L 1178 0 
L 512 0 
L 512 666 
L 1178 666 
z
" transform="scale(0.015625)"/>
       </defs>
       <use xlink:href="#FreeSans-30" transform="translate(0 0.09375)"/>
       <use xlink:href="#FreeSans-2e" transform="translate(55.599991 0.09375)"/>
       <use xlink:href="#FreeSans-30" transform="translate(80.599976 0.09375)"/>
      </g>
     </g>
    </g>
    <g id="ytick_2">
     <g id="line2d_15">
      <path d="M 90 308.939077 
L 648 308.939077 
" clip-path="url(#pf80fb1c3cb)" style="fill: none; stroke: #b0b0b0; stroke-width: 0.5; stroke-linecap: square"/>
     </g>
     <g id="line2d_16">
      <g>
       <use xlink:href="#m5ea226da56" x="90" y="308.939077" style="stroke: #000000; stroke-width: 0.8"/>
      </g>
     </g>
     <g id="text_8">
      <!-- $\mathdefault{0.2}$ -->
      <g transform="translate(66.56 313.313452) scale(0.12 -0.12)">
       <use xlink:href="#FreeSans-30" transform="translate(0 0.09375)"/>
       <use xlink:href="#FreeSans-2e" transform="translate(55.599991 0.09375)"/>
       <use xlink:href="#FreeSans-32" transform="translate(80.599976 0.09375)"/>
      </g>
     </g>
    </g>
    <g id="ytick_3">
     <g id="line2d_17">
      <path d="M 90 248.444308 
L 648 248.444308 
" clip-path="url(#pf80fb1c3cb)" style="fill: none; stroke: #b0b0b0; stroke-width: 0.5; stroke-linecap: square"/>
     </g>
     <g id="line2d_18">
      <g>
       <use xlink:href="#m5ea226da56" x="90" y="248.444308" style="stroke: #000000; stroke-width: 0.8"/>
      </g>
     </g>
     <g id="text_9">
      <!-- $\mathdefault{0.4}$ -->
      <g transform="translate(66.56 252.818683) scale(0.12 -0.12)">
       <use xlink:href="#FreeSans-30" transform="translate(0 0.09375)"/>
       <use xlink:href="#FreeSans-2e" transform="translate(55.599991 0.09375)"/>
       <use xlink:href="#FreeSans-34" transform="translate(80.599976 0.09375)"/>
      </g>
     </g>
    </g>
    <g id="ytick_4">
     <g id="line2d_19">
      <path d="M 90 187.949538 
L 648 187.949538 
" clip-path="url(#pf80fb1c3cb)" style="fill: none; stroke: #b0b0b0; stroke-width: 0.5; stroke-linecap: square"/>
     </g>
     <g id="line2d_20">
      <g>
       <use xlink:href="#m5ea226da56" x="90" y="187.949538" style="stroke: #000000; stroke-width: 0.8"/>
      </g>
     </g>
     <g id="text_10">
      <!-- $\mathdefault{0.6}$ -->
      <g transform="translate(66.56 192.323913) scale(0.12 -0.12)">
       <defs>
        <path id="FreeSans-36" d="M 275 2067 
Q 275 2669 384 3126 
Q 493 3584 656 3846 
Q 819 4109 1046 4272 
Q 1274 4435 1475 4486 
Q 1677 4538 1901 4538 
Q 2419 4538 2761 4224 
Q 3104 3910 3187 3354 
L 2624 3354 
Q 2554 3680 2355 3859 
Q 2157 4038 1862 4038 
Q 1376 4038 1117 3593 
Q 858 3149 851 2317 
Q 1222 2822 1894 2822 
Q 2502 2822 2892 2419 
Q 3283 2016 3283 1382 
Q 3283 941 3094 592 
Q 2906 243 2566 48 
Q 2227 -147 1798 -147 
Q 275 -147 275 2067 
z
M 1824 2323 
Q 1408 2323 1145 2057 
Q 883 1792 883 1370 
Q 883 934 1145 643 
Q 1408 352 1805 352 
Q 2195 352 2451 630 
Q 2707 909 2707 1338 
Q 2707 1792 2470 2057 
Q 2234 2323 1824 2323 
z
" transform="scale(0.015625)"/>
       </defs>
       <use xlink:href="#FreeSans-30" transform="translate(0 0.09375)"/>
       <use xlink:href="#FreeSans-2e" transform="translate(55.599991 0.09375)"/>
       <use xlink:href="#FreeSans-36" transform="translate(80.599976 0.09375)"/>
      </g>
     </g>
    </g>
    <g id="ytick_5">
     <g id="line2d_21">
      <path d="M 90 127.454769 
L 648 127.454769 
" clip-path="url(#pf80fb1c3cb)" style="fill: none; stroke: #b0b0b0; stroke-width: 0.5; stroke-linecap: square"/>
     </g>
     <g id="line2d_22">
      <g>
       <use xlink:href="#m5ea226da56" x="90" y="127.454769" style="stroke: #000000; stroke-width: 0.8"/>
      </g>
     </g>
     <g id="text_11">
      <!-- $\mathdefault{0.8}$ -->
      <g transform="translate(66.56 131.829144) scale(0.12 -0.12)">
       <defs>
        <path id="FreeSans-38" d="M 2502 2387 
Q 3283 2016 3283 1254 
Q 3283 634 2857 243 
Q 2432 -147 1760 -147 
Q 1318 -147 969 29 
Q 621 205 429 528 
Q 237 851 237 1261 
Q 237 2016 1011 2387 
Q 666 2605 531 2809 
Q 397 3014 397 3328 
Q 397 3859 777 4198 
Q 1158 4538 1760 4538 
Q 2362 4538 2742 4198 
Q 3123 3859 3123 3328 
Q 3123 3008 2988 2803 
Q 2854 2598 2502 2387 
z
M 2332 3843 
Q 2118 4038 1760 4038 
Q 1402 4038 1187 3843 
Q 973 3648 973 3322 
Q 973 3002 1187 2806 
Q 1402 2611 1760 2611 
Q 2112 2611 2329 2803 
Q 2547 2995 2547 3315 
Q 2547 3648 2332 3843 
z
M 2444 1891 
Q 2182 2138 1760 2138 
Q 1338 2138 1075 1891 
Q 813 1645 813 1248 
Q 813 851 1072 601 
Q 1331 352 1747 352 
Q 2176 352 2441 598 
Q 2707 845 2707 1248 
Q 2707 1645 2444 1891 
z
" transform="scale(0.015625)"/>
       </defs>
       <use xlink:href="#FreeSans-30" transform="translate(0 0.09375)"/>
       <use xlink:href="#FreeSans-2e" transform="translate(55.599991 0.09375)"/>
       <use xlink:href="#FreeSans-38" transform="translate(80.599976 0.09375)"/>
      </g>
     </g>
    </g>
    <g id="ytick_6">
     <g id="line2d_23">
      <path d="M 90 66.96 
L 648 66.96 
" clip-path="url(#pf80fb1c3cb)" style="fill: none; stroke: #b0b0b0; stroke-width: 0.5; stroke-linecap: square"/>
     </g>
     <g id="line2d_24">
      <g>
       <use xlink:href="#m5ea226da56" x="90" y="66.96" style="stroke: #000000; stroke-width: 0.8"/>
      </g>
     </g>
     <g id="text_12">
      <!-- $\mathdefault{1.0}$ -->
      <g transform="translate(66.56 71.334375) scale(0.12 -0.12)">
       <defs>
        <path id="FreeSans-31" d="M 1658 3232 
L 653 3232 
L 653 3635 
Q 1306 3718 1504 3865 
Q 1702 4013 1850 4538 
L 2221 4538 
L 2221 0 
L 1658 0 
L 1658 3232 
z
" transform="scale(0.015625)"/>
       </defs>
       <use xlink:href="#FreeSans-31" transform="translate(0 0.09375)"/>
       <use xlink:href="#FreeSans-2e" transform="translate(55.599991 0.09375)"/>
       <use xlink:href="#FreeSans-30" transform="translate(80.599976 0.09375)"/>
      </g>
     </g>
    </g>
    <g id="text_13">
     <!-- Cumulative Probability -->
     <g transform="translate(58.42125 288.232875) rotate(-90) scale(0.144 -0.144)">
      <defs>
       <path id="FreeSans-43" d="M 256 2278 
Q 256 2598 310 2912 
Q 365 3226 518 3565 
Q 672 3904 899 4157 
Q 1126 4410 1513 4576 
Q 1901 4742 2387 4742 
Q 3910 4742 4186 3219 
L 3578 3219 
Q 3475 3718 3174 3968 
Q 2874 4218 2317 4218 
Q 1638 4218 1244 3699 
Q 851 3181 851 2285 
Q 851 1709 1036 1277 
Q 1222 845 1564 611 
Q 1907 378 2368 378 
Q 2944 378 3251 701 
Q 3558 1024 3667 1702 
L 4282 1702 
Q 4211 1088 3974 675 
Q 3738 262 3334 57 
Q 2931 -147 2362 -147 
Q 1882 -147 1501 16 
Q 1120 179 893 428 
Q 666 678 515 1014 
Q 365 1350 310 1657 
Q 256 1965 256 2278 
z
" transform="scale(0.015625)"/>
       <path id="FreeSans-6d" d="M 384 3354 
L 877 3354 
L 877 2880 
Q 1094 3181 1334 3315 
Q 1574 3450 1907 3450 
Q 2528 3450 2810 2938 
Q 3046 3219 3276 3334 
Q 3507 3450 3840 3450 
Q 4307 3450 4560 3210 
Q 4813 2970 4813 2515 
L 4813 0 
L 4275 0 
L 4275 2310 
Q 4275 2630 4112 2806 
Q 3949 2982 3654 2982 
Q 3328 2982 3097 2726 
Q 2867 2470 2867 2106 
L 2867 0 
L 2330 0 
L 2330 2310 
Q 2330 2630 2166 2806 
Q 2003 2982 1709 2982 
Q 1382 2982 1152 2726 
Q 922 2470 922 2106 
L 922 0 
L 384 0 
L 384 3354 
z
" transform="scale(0.015625)"/>
       <path id="FreeSans-74" d="M 1664 3354 
L 1664 2918 
L 1114 2918 
L 1114 621 
Q 1114 442 1174 381 
Q 1235 320 1408 320 
Q 1568 320 1664 346 
L 1664 -102 
Q 1414 -147 1229 -147 
Q 915 -147 748 -9 
Q 582 128 582 384 
L 582 2918 
L 128 2918 
L 128 3354 
L 582 3354 
L 582 4275 
L 1114 4275 
L 1114 3354 
L 1664 3354 
z
" transform="scale(0.015625)"/>
       <path id="FreeSans-69" d="M 960 3354 
L 960 0 
L 429 0 
L 429 3354 
L 960 3354 
z
M 960 4666 
L 960 3994 
L 422 3994 
L 422 4666 
L 960 4666 
z
" transform="scale(0.015625)"/>
       <path id="FreeSans-76" d="M 1824 0 
L 1242 0 
L 64 3354 
L 666 3354 
L 1562 634 
L 2509 3354 
L 3110 3354 
L 1824 0 
z
" transform="scale(0.015625)"/>
       <path id="FreeSans-20" transform="scale(0.015625)"/>
       <path id="FreeSans-50" d="M 3878 3296 
Q 3878 2701 3516 2339 
Q 3155 1978 2573 1978 
L 1107 1978 
L 1107 0 
L 512 0 
L 512 4666 
L 2438 4666 
Q 3130 4666 3504 4310 
Q 3878 3955 3878 3296 
z
M 1107 2502 
L 2349 2502 
Q 2778 2502 3018 2720 
Q 3258 2938 3258 3322 
Q 3258 3706 3018 3923 
Q 2778 4141 2349 4141 
L 1107 4141 
L 1107 2502 
z
" transform="scale(0.015625)"/>
       <path id="FreeSans-72" d="M 1997 2886 
Q 1459 2874 1190 2637 
Q 922 2400 922 1741 
L 922 0 
L 384 0 
L 384 3354 
L 877 3354 
L 877 2746 
Q 1107 3123 1321 3286 
Q 1536 3450 1792 3450 
Q 1862 3450 1997 3430 
L 1997 2886 
z
" transform="scale(0.015625)"/>
       <path id="FreeSans-6f" d="M 1702 3450 
Q 2426 3450 2826 2973 
Q 3226 2496 3226 1626 
Q 3226 1216 3120 883 
Q 3014 550 2819 323 
Q 2624 96 2342 -25 
Q 2061 -147 1709 -147 
Q 992 -147 592 329 
Q 192 806 192 1651 
Q 192 2496 595 2973 
Q 998 3450 1702 3450 
z
M 1709 2957 
Q 1261 2957 1005 2608 
Q 749 2259 749 1651 
Q 749 1043 1005 694 
Q 1261 346 1709 346 
Q 2150 346 2409 694 
Q 2669 1043 2669 1632 
Q 2669 2253 2416 2605 
Q 2163 2957 1709 2957 
z
" transform="scale(0.015625)"/>
       <path id="FreeSans-62" d="M 384 4666 
L 915 4666 
L 915 2899 
Q 1280 3450 1952 3450 
Q 2618 3450 3002 2976 
Q 3386 2502 3386 1690 
Q 3386 1274 3280 931 
Q 3174 589 2985 352 
Q 2797 115 2525 -16 
Q 2253 -147 1926 -147 
Q 1242 -147 864 429 
L 864 0 
L 384 0 
L 384 4666 
z
M 1850 2950 
Q 1427 2950 1171 2595 
Q 915 2240 915 1651 
Q 915 1062 1171 707 
Q 1427 352 1850 352 
Q 2285 352 2557 707 
Q 2829 1062 2829 1632 
Q 2829 2234 2563 2592 
Q 2298 2950 1850 2950 
z
" transform="scale(0.015625)"/>
       <path id="FreeSans-79" d="M 2419 3354 
L 2995 3354 
L 1504 -704 
Q 1242 -1395 640 -1395 
Q 442 -1395 282 -1312 
L 282 -832 
Q 454 -870 563 -870 
Q 730 -870 826 -796 
Q 922 -723 992 -544 
L 1197 -13 
L 64 3354 
L 634 3354 
L 1491 742 
L 2419 3354 
z
" transform="scale(0.015625)"/>
      </defs>
      <use xlink:href="#FreeSans-43"/>
      <use xlink:href="#FreeSans-75" x="70.899994"/>
      <use xlink:href="#FreeSans-6d" x="124.599991"/>
      <use xlink:href="#FreeSans-75" x="205.799973"/>
      <use xlink:href="#FreeSans-6c" x="259.499969"/>
      <use xlink:href="#FreeSans-61" x="280.899963"/>
      <use xlink:href="#FreeSans-74" x="335.199951"/>
      <use xlink:href="#FreeSans-69" x="363.199936"/>
      <use xlink:href="#FreeSans-76" x="385.399933"/>
      <use xlink:href="#FreeSans-65" x="434.999924"/>
      <use xlink:href="#FreeSans-20" x="488.299911"/>
      <use xlink:href="#FreeSans-50" x="513.299896"/>
      <use xlink:href="#FreeSans-72" x="578.899887"/>
      <use xlink:href="#FreeSans-6f" x="612.099884"/>
      <use xlink:href="#FreeSans-62" x="665.499878"/>
      <use xlink:href="#FreeSans-61" x="721.399872"/>
      <use xlink:href="#FreeSans-62" x="775.69986"/>
      <use xlink:href="#FreeSans-69" x="831.599854"/>
      <use xlink:href="#FreeSans-6c" x="853.79985"/>
      <use xlink:href="#FreeSans-69" x="875.199844"/>
      <use xlink:href="#FreeSans-74" x="897.399841"/>
      <use xlink:href="#FreeSans-79" x="925.399826"/>
     </g>
    </g>
   </g>
   <g id="text_14">
    <!-- Cumulative Distribution Function (CDF) Comparison -->
    <g transform="translate(207.007875 45.84) scale(0.144 -0.144)">
     <defs>
      <path id="FreeSans-44" d="M 512 0 
L 512 4666 
L 2310 4666 
Q 3200 4666 3705 4045 
Q 4211 3424 4211 2336 
Q 4211 1901 4128 1533 
Q 4045 1165 3881 883 
Q 3718 602 3488 403 
Q 3258 205 2960 102 
Q 2662 0 2310 0 
L 512 0 
z
M 1107 525 
L 2208 525 
Q 2899 525 3257 985 
Q 3616 1446 3616 2330 
Q 3616 3219 3257 3680 
Q 2899 4141 2208 4141 
L 1107 4141 
L 1107 525 
z
" transform="scale(0.015625)"/>
      <path id="FreeSans-73" d="M 781 998 
Q 819 698 988 522 
Q 1158 346 1600 346 
Q 1952 346 2166 490 
Q 2381 634 2381 870 
Q 2381 1056 2259 1165 
Q 2138 1274 1862 1338 
L 1363 1459 
Q 768 1600 534 1814 
Q 301 2029 301 2426 
Q 301 2893 653 3171 
Q 1005 3450 1587 3450 
Q 2170 3450 2483 3181 
Q 2797 2912 2803 2419 
L 2240 2419 
Q 2221 2957 1568 2957 
Q 1242 2957 1050 2819 
Q 858 2682 858 2451 
Q 858 2272 1005 2160 
Q 1152 2048 1478 1971 
L 1990 1850 
Q 2490 1728 2714 1507 
Q 2938 1286 2938 915 
Q 2938 595 2768 355 
Q 2598 115 2284 -16 
Q 1971 -147 1555 -147 
Q 896 -147 566 134 
Q 237 416 218 998 
L 781 998 
z
" transform="scale(0.015625)"/>
      <path id="FreeSans-6e" d="M 384 3354 
L 877 3354 
L 877 2790 
Q 1101 3142 1360 3296 
Q 1619 3450 1990 3450 
Q 2477 3450 2765 3200 
Q 3053 2950 3053 2534 
L 3053 0 
L 2522 0 
L 2522 2323 
Q 2522 2624 2336 2803 
Q 2150 2982 1830 2982 
Q 1421 2982 1171 2672 
Q 922 2362 922 1850 
L 922 0 
L 384 0 
L 384 3354 
z
" transform="scale(0.015625)"/>
      <path id="FreeSans-46" d="M 1107 2125 
L 1107 0 
L 512 0 
L 512 4666 
L 3642 4666 
L 3642 4141 
L 1107 4141 
L 1107 2650 
L 3334 2650 
L 3334 2125 
L 1107 2125 
z
" transform="scale(0.015625)"/>
      <path id="FreeSans-63" d="M 3008 2227 
L 2470 2227 
Q 2419 2579 2214 2768 
Q 2010 2957 1677 2957 
Q 1242 2957 995 2601 
Q 749 2246 749 1619 
Q 749 1024 998 685 
Q 1248 346 1690 346 
Q 2374 346 2509 1152 
L 3046 1152 
Q 2995 538 2636 195 
Q 2278 -147 1677 -147 
Q 992 -147 592 329 
Q 192 806 192 1619 
Q 192 2451 598 2950 
Q 1005 3450 1683 3450 
Q 2266 3450 2614 3136 
Q 2963 2822 3008 2227 
z
" transform="scale(0.015625)"/>
      <path id="FreeSans-28" d="M 1510 4666 
L 1862 4666 
Q 986 3251 986 1658 
Q 986 70 1862 -1357 
L 1510 -1357 
Q 1030 -730 748 86 
Q 467 902 467 1657 
Q 467 2413 748 3225 
Q 1030 4038 1510 4666 
z
" transform="scale(0.015625)"/>
      <path id="FreeSans-29" d="M 595 -1357 
L 243 -1357 
Q 1120 58 1120 1651 
Q 1120 3238 243 4666 
L 595 4666 
Q 1075 4038 1356 3222 
Q 1638 2406 1638 1651 
Q 1638 896 1356 83 
Q 1075 -730 595 -1357 
z
" transform="scale(0.015625)"/>
      <path id="FreeSans-70" d="M 384 -1395 
L 384 3354 
L 877 3354 
L 877 2848 
Q 1254 3450 1946 3450 
Q 2611 3450 2998 2957 
Q 3386 2464 3386 1619 
Q 3386 1222 3283 892 
Q 3181 563 2995 336 
Q 2810 109 2541 -19 
Q 2272 -147 1952 -147 
Q 1331 -147 922 352 
L 922 -1395 
L 384 -1395 
z
M 1856 2950 
Q 1434 2950 1178 2595 
Q 922 2240 922 1651 
Q 922 1062 1178 707 
Q 1434 352 1856 352 
Q 2291 352 2560 707 
Q 2829 1062 2829 1632 
Q 2829 2234 2563 2592 
Q 2298 2950 1856 2950 
z
" transform="scale(0.015625)"/>
     </defs>
     <use xlink:href="#FreeSans-43"/>
     <use xlink:href="#FreeSans-75" x="70.899994"/>
     <use xlink:href="#FreeSans-6d" x="124.599991"/>
     <use xlink:href="#FreeSans-75" x="205.799973"/>
     <use xlink:href="#FreeSans-6c" x="259.499969"/>
     <use xlink:href="#FreeSans-61" x="280.899963"/>
     <use xlink:href="#FreeSans-74" x="335.199951"/>
     <use xlink:href="#FreeSans-69" x="363.199936"/>
     <use xlink:href="#FreeSans-76" x="385.399933"/>
     <use xlink:href="#FreeSans-65" x="434.999924"/>
     <use xlink:href="#FreeSans-20" x="488.299911"/>
     <use xlink:href="#FreeSans-44" x="513.299896"/>
     <use xlink:href="#FreeSans-69" x="583.099884"/>
     <use xlink:href="#FreeSans-73" x="605.299881"/>
     <use xlink:href="#FreeSans-74" x="654.599869"/>
     <use xlink:href="#FreeSans-72" x="682.599854"/>
     <use xlink:href="#FreeSans-69" x="715.79985"/>
     <use xlink:href="#FreeSans-62" x="737.999847"/>
     <use xlink:href="#FreeSans-75" x="793.899841"/>
     <use xlink:href="#FreeSans-74" x="847.599838"/>
     <use xlink:href="#FreeSans-69" x="875.599823"/>
     <use xlink:href="#FreeSans-6f" x="897.79982"/>
     <use xlink:href="#FreeSans-6e" x="951.199814"/>
     <use xlink:href="#FreeSans-20" x="1004.899811"/>
     <use xlink:href="#FreeSans-46" x="1029.899796"/>
     <use xlink:href="#FreeSans-75" x="1089.799789"/>
     <use xlink:href="#FreeSans-6e" x="1143.499786"/>
     <use xlink:href="#FreeSans-63" x="1197.199783"/>
     <use xlink:href="#FreeSans-74" x="1247.799774"/>
     <use xlink:href="#FreeSans-69" x="1275.799759"/>
     <use xlink:href="#FreeSans-6f" x="1297.999756"/>
     <use xlink:href="#FreeSans-6e" x="1351.39975"/>
     <use xlink:href="#FreeSans-20" x="1405.099747"/>
     <use xlink:href="#FreeSans-28" x="1430.099731"/>
     <use xlink:href="#FreeSans-43" x="1463.399719"/>
     <use xlink:href="#FreeSans-44" x="1534.299713"/>
     <use xlink:href="#FreeSans-46" x="1604.099701"/>
     <use xlink:href="#FreeSans-29" x="1663.999695"/>
     <use xlink:href="#FreeSans-20" x="1697.299683"/>
     <use xlink:href="#FreeSans-43" x="1722.299667"/>
     <use xlink:href="#FreeSans-6f" x="1793.199661"/>
     <use xlink:href="#FreeSans-6d" x="1846.599655"/>
     <use xlink:href="#FreeSans-70" x="1927.799637"/>
     <use xlink:href="#FreeSans-61" x="1983.699631"/>
     <use xlink:href="#FreeSans-72" x="2037.999619"/>
     <use xlink:href="#FreeSans-69" x="2071.199615"/>
     <use xlink:href="#FreeSans-73" x="2093.399612"/>
     <use xlink:href="#FreeSans-6f" x="2142.6996"/>
     <use xlink:href="#FreeSans-6e" x="2196.099594"/>
    </g>
   </g>
   <g id="legend_1">
    <g id="patch_7">
     <path d="M 96 113.675625 
L 274.816875 113.675625 
L 274.816875 57.84 
L 96 57.84 
z
" style="fill: #ffffff; opacity: 0.8; stroke: #808080; stroke-linejoin: miter"/>
    </g>
    <g id="line2d_25">
     <path d="M 104.4 67.33125 
L 109.2 67.33125 
" style="fill: none; stroke: #0000ff; stroke-width: 6; stroke-linecap: square"/>
    </g>
    <g id="text_15">
     <!-- Random Glitch Sample CDF -->
     <g transform="translate(122.4 71.53125) scale(0.12 -0.12)">
      <defs>
       <path id="FreeSans-52" d="M 3347 2304 
Q 3552 2214 3689 2092 
Q 3827 1971 3888 1817 
Q 3949 1664 3968 1529 
Q 3987 1395 3987 1210 
Q 3987 1152 3984 1043 
Q 3981 934 3981 883 
Q 3981 621 4038 441 
Q 4096 262 4262 147 
L 4262 0 
L 3539 0 
Q 3411 294 3411 762 
L 3411 1178 
Q 3411 1606 3225 1808 
Q 3040 2010 2643 2010 
L 1107 2010 
L 1107 0 
L 512 0 
L 512 4666 
L 2662 4666 
Q 3347 4666 3715 4342 
Q 4083 4019 4083 3418 
Q 4083 3021 3910 2758 
Q 3738 2496 3347 2304 
z
M 3462 3334 
Q 3462 3795 3219 3968 
Q 2976 4141 2547 4141 
L 1107 4141 
L 1107 2534 
L 2547 2534 
Q 3021 2534 3241 2726 
Q 3462 2918 3462 3334 
z
" transform="scale(0.015625)"/>
       <path id="FreeSans-64" d="M 3194 4666 
L 3194 0 
L 2720 0 
L 2720 442 
Q 2502 128 2249 -9 
Q 1997 -147 1651 -147 
Q 973 -147 582 342 
Q 192 832 192 1683 
Q 192 2483 585 2966 
Q 979 3450 1632 3450 
Q 2323 3450 2662 2931 
L 2662 4666 
L 3194 4666 
z
M 1722 2950 
Q 1286 2950 1017 2592 
Q 749 2234 749 1651 
Q 749 1062 1017 707 
Q 1286 352 1728 352 
Q 2150 352 2406 704 
Q 2662 1056 2662 1638 
Q 2662 2240 2406 2595 
Q 2150 2950 1722 2950 
z
" transform="scale(0.015625)"/>
       <path id="FreeSans-47" d="M 851 2317 
Q 851 2074 896 1827 
Q 941 1581 1056 1312 
Q 1171 1043 1353 841 
Q 1536 640 1837 509 
Q 2138 378 2522 378 
Q 3162 378 3574 781 
Q 3987 1184 3987 1811 
L 3987 1939 
L 2566 1939 
L 2566 2464 
L 4512 2464 
L 4512 -26 
L 4134 -26 
L 3987 595 
Q 3322 -147 2394 -147 
Q 1773 -147 1283 160 
Q 794 467 525 1020 
Q 256 1574 256 2285 
Q 256 2592 313 2902 
Q 371 3213 531 3552 
Q 691 3891 931 4147 
Q 1171 4403 1577 4572 
Q 1984 4742 2496 4742 
Q 3296 4742 3811 4352 
Q 4326 3962 4448 3251 
L 3840 3251 
Q 3744 3699 3382 3958 
Q 3021 4218 2490 4218 
Q 1747 4218 1299 3696 
Q 851 3174 851 2317 
z
" transform="scale(0.015625)"/>
       <path id="FreeSans-68" d="M 2515 2323 
Q 2515 2675 2300 2828 
Q 2086 2982 1824 2982 
Q 1414 2982 1164 2672 
Q 915 2362 915 1850 
L 915 0 
L 384 0 
L 384 4666 
L 915 4666 
L 915 2893 
Q 1152 3200 1392 3325 
Q 1632 3450 1990 3450 
Q 2477 3450 2761 3203 
Q 3046 2957 3046 2534 
L 3046 0 
L 2515 0 
L 2515 2323 
z
" transform="scale(0.015625)"/>
       <path id="FreeSans-53" d="M 2189 378 
Q 2547 378 2796 461 
Q 3046 544 3164 678 
Q 3283 813 3331 944 
Q 3379 1075 3379 1222 
Q 3379 1754 2522 1978 
L 1363 2285 
Q 902 2406 675 2675 
Q 448 2944 448 3373 
Q 448 4006 893 4374 
Q 1338 4742 2106 4742 
Q 2912 4742 3360 4361 
Q 3808 3981 3814 3296 
L 3251 3296 
Q 3245 3750 2944 3996 
Q 2643 4243 2086 4243 
Q 1613 4243 1328 4025 
Q 1043 3808 1043 3456 
Q 1043 3187 1216 3033 
Q 1389 2880 1811 2765 
L 2982 2451 
Q 3456 2323 3715 2016 
Q 3974 1709 3974 1280 
Q 3974 1094 3926 912 
Q 3878 730 3750 534 
Q 3622 339 3424 192 
Q 3226 45 2896 -51 
Q 2566 -147 2150 -147 
Q 1888 -147 1648 -105 
Q 1408 -64 1158 48 
Q 909 160 729 336 
Q 550 512 432 806 
Q 314 1101 307 1485 
L 870 1485 
L 870 1453 
Q 870 1254 931 1081 
Q 992 909 1129 742 
Q 1267 576 1539 477 
Q 1811 378 2189 378 
z
" transform="scale(0.015625)"/>
      </defs>
      <use xlink:href="#FreeSans-52"/>
      <use xlink:href="#FreeSans-61" x="70.899994"/>
      <use xlink:href="#FreeSans-6e" x="125.199982"/>
      <use xlink:href="#FreeSans-64" x="178.899979"/>
      <use xlink:href="#FreeSans-6f" x="234.799973"/>
      <use xlink:href="#FreeSans-6d" x="288.199966"/>
      <use xlink:href="#FreeSans-20" x="369.399948"/>
      <use xlink:href="#FreeSans-47" x="394.399933"/>
      <use xlink:href="#FreeSans-6c" x="470.899918"/>
      <use xlink:href="#FreeSans-69" x="492.299911"/>
      <use xlink:href="#FreeSans-74" x="514.499908"/>
      <use xlink:href="#FreeSans-63" x="542.499893"/>
      <use xlink:href="#FreeSans-68" x="593.099884"/>
      <use xlink:href="#FreeSans-20" x="646.699875"/>
      <use xlink:href="#FreeSans-53" x="671.69986"/>
      <use xlink:href="#FreeSans-61" x="738.399857"/>
      <use xlink:href="#FreeSans-6d" x="792.699844"/>
      <use xlink:href="#FreeSans-70" x="873.899826"/>
      <use xlink:href="#FreeSans-6c" x="929.79982"/>
      <use xlink:href="#FreeSans-65" x="951.199814"/>
      <use xlink:href="#FreeSans-20" x="1004.499802"/>
      <use xlink:href="#FreeSans-43" x="1029.499786"/>
      <use xlink:href="#FreeSans-44" x="1100.39978"/>
      <use xlink:href="#FreeSans-46" x="1170.199768"/>
     </g>
    </g>
    <g id="line2d_26">
     <path d="M 104.4 84.695625 
L 109.2 84.695625 
" style="fill: none; stroke: #ffa500; stroke-width: 6; stroke-linecap: square"/>
    </g>
    <g id="text_16">
     <!-- Gaussian Distribution CDF -->
     <g transform="translate(122.4 88.895625) scale(0.12 -0.12)">
      <use xlink:href="#FreeSans-47"/>
      <use xlink:href="#FreeSans-61" x="76.499985"/>
      <use xlink:href="#FreeSans-75" x="130.799973"/>
      <use xlink:href="#FreeSans-73" x="184.499969"/>
      <use xlink:href="#FreeSans-73" x="233.799957"/>
      <use xlink:href="#FreeSans-69" x="283.099945"/>
      <use xlink:href="#FreeSans-61" x="305.299942"/>
      <use xlink:href="#FreeSans-6e" x="359.59993"/>
      <use xlink:href="#FreeSans-20" x="413.299927"/>
      <use xlink:href="#FreeSans-44" x="438.299911"/>
      <use xlink:href="#FreeSans-69" x="508.099899"/>
      <use xlink:href="#FreeSans-73" x="530.299896"/>
      <use xlink:href="#FreeSans-74" x="579.599884"/>
      <use xlink:href="#FreeSans-72" x="607.599869"/>
      <use xlink:href="#FreeSans-69" x="640.799866"/>
      <use xlink:href="#FreeSans-62" x="662.999863"/>
      <use xlink:href="#FreeSans-75" x="718.899857"/>
      <use xlink:href="#FreeSans-74" x="772.599854"/>
      <use xlink:href="#FreeSans-69" x="800.599838"/>
      <use xlink:href="#FreeSans-6f" x="822.799835"/>
      <use xlink:href="#FreeSans-6e" x="876.199829"/>
      <use xlink:href="#FreeSans-20" x="929.899826"/>
      <use xlink:href="#FreeSans-43" x="954.899811"/>
      <use xlink:href="#FreeSans-44" x="1025.799805"/>
      <use xlink:href="#FreeSans-46" x="1095.599792"/>
     </g>
    </g>
    <g id="line2d_27">
     <path d="M 100.8 102.06 
L 112.8 102.06 
" style="fill: none; stroke: #000000; stroke-width: 1.5"/>
    </g>
    <g id="text_17">
     <!-- Max Diff: 0.06 at x=0.54 -->
     <g transform="translate(122.4 106.26) scale(0.12 -0.12)">
      <defs>
       <path id="FreeSans-4d" d="M 3027 0 
L 2400 0 
L 1075 3910 
L 1075 0 
L 512 0 
L 512 4666 
L 1338 4666 
L 2720 602 
L 4077 4666 
L 4902 4666 
L 4902 0 
L 4339 0 
L 4339 3910 
L 3027 0 
z
" transform="scale(0.015625)"/>
       <path id="FreeSans-78" d="M 1824 1734 
L 2982 0 
L 2362 0 
L 1523 1286 
L 672 0 
L 64 0 
L 1248 1709 
L 128 3354 
L 736 3354 
L 1542 2138 
L 2349 3354 
L 2950 3354 
L 1824 1734 
z
" transform="scale(0.015625)"/>
       <path id="FreeSans-66" d="M 1664 3354 
L 1664 2918 
L 1107 2918 
L 1107 0 
L 576 0 
L 576 2918 
L 128 2918 
L 128 3354 
L 576 3354 
L 576 3923 
Q 576 4282 784 4483 
Q 992 4685 1363 4685 
Q 1510 4685 1664 4653 
L 1664 4211 
Q 1542 4218 1478 4218 
Q 1107 4218 1107 3878 
L 1107 3354 
L 1664 3354 
z
" transform="scale(0.015625)"/>
       <path id="FreeSans-3a" d="M 1178 666 
L 1178 0 
L 512 0 
L 512 666 
L 1178 666 
z
M 1178 3354 
L 1178 2688 
L 512 2688 
L 512 3354 
L 1178 3354 
z
" transform="scale(0.015625)"/>
       <path id="FreeSans-3d" d="M 3418 2259 
L 3418 1811 
L 320 1811 
L 320 2259 
L 3418 2259 
z
M 3418 1158 
L 3418 710 
L 320 710 
L 320 1158 
L 3418 1158 
z
" transform="scale(0.015625)"/>
       <path id="FreeSans-35" d="M 3046 4538 
L 3046 3981 
L 1158 3981 
L 979 2714 
Q 1357 2989 1818 2989 
Q 2470 2989 2876 2569 
Q 3283 2150 3283 1478 
Q 3283 1005 3084 633 
Q 2886 262 2534 57 
Q 2182 -147 1728 -147 
Q 1466 -147 1245 -89 
Q 1024 -32 880 48 
Q 736 128 617 259 
Q 499 390 438 489 
Q 378 589 323 739 
Q 269 890 256 947 
Q 243 1005 224 1114 
L 787 1114 
Q 986 352 1715 352 
Q 2176 352 2441 633 
Q 2707 915 2707 1402 
Q 2707 1907 2438 2198 
Q 2170 2490 1715 2490 
Q 1453 2490 1267 2397 
Q 1082 2304 883 2067 
L 365 2067 
L 704 4538 
L 3046 4538 
z
" transform="scale(0.015625)"/>
      </defs>
      <use xlink:href="#FreeSans-4d"/>
      <use xlink:href="#FreeSans-61" x="84.599991"/>
      <use xlink:href="#FreeSans-78" x="138.899979"/>
      <use xlink:href="#FreeSans-20" x="186.499969"/>
      <use xlink:href="#FreeSans-44" x="211.499954"/>
      <use xlink:href="#FreeSans-69" x="281.299942"/>
      <use xlink:href="#FreeSans-66" x="303.499939"/>
      <use xlink:href="#FreeSans-66" x="331.499924"/>
      <use xlink:href="#FreeSans-3a" x="359.499908"/>
      <use xlink:href="#FreeSans-20" x="384.499893"/>
      <use xlink:href="#FreeSans-30" x="409.499878"/>
      <use xlink:href="#FreeSans-2e" x="465.099869"/>
      <use xlink:href="#FreeSans-30" x="490.099854"/>
      <use xlink:href="#FreeSans-36" x="545.699844"/>
      <use xlink:href="#FreeSans-20" x="601.299835"/>
      <use xlink:href="#FreeSans-61" x="626.29982"/>
      <use xlink:href="#FreeSans-74" x="680.599808"/>
      <use xlink:href="#FreeSans-20" x="708.599792"/>
      <use xlink:href="#FreeSans-78" x="733.599777"/>
      <use xlink:href="#FreeSans-3d" x="781.199768"/>
      <use xlink:href="#FreeSans-30" x="839.599762"/>
      <use xlink:href="#FreeSans-2e" x="895.199753"/>
      <use xlink:href="#FreeSans-35" x="920.199738"/>
      <use xlink:href="#FreeSans-34" x="975.799728"/>
     </g>
    </g>
   </g>
  </g>
 </g>
 <defs>
  <clipPath id="pf80fb1c3cb">
   <rect x="90" y="51.84" width="558" height="332.64"/>
  </clipPath>
 </defs>
</svg>
