<?xml version="1.0" encoding="utf-8" standalone="no"?>
<!DOCTYPE svg PUBLIC "-//W3C//DTD SVG 1.1//EN"
  "http://www.w3.org/Graphics/SVG/1.1/DTD/svg11.dtd">
<svg xmlns:xlink="http://www.w3.org/1999/xlink" width="720pt" height="432pt" viewBox="0 0 720 432" xmlns="http://www.w3.org/2000/svg" version="1.1">
 <metadata>
  <rdf:RDF xmlns:dc="http://purl.org/dc/elements/1.1/" xmlns:cc="http://creativecommons.org/ns#" xmlns:rdf="http://www.w3.org/1999/02/22-rdf-syntax-ns#">
   <cc:Work>
    <dc:type rdf:resource="http://purl.org/dc/dcmitype/StillImage"/>
    <dc:date>2025-11-14T13:44:23.114427</dc:date>
    <dc:format>image/svg+xml</dc:format>
    <dc:creator>
     <cc:Agent>
      <dc:title>Matplotlib v3.9.2, https://matplotlib.org/</dc:title>
     </cc:Agent>
    </dc:creator>
   </cc:Work>
  </rdf:RDF>
 </metadata>
 <defs>
  <style type="text/css">*{stroke-linejoin: round; stroke-linecap: butt}</style>
 </defs>
 <g id="figure_1">
  <g id="patch_1">
   <path d="M 0 432 
L 720 432 
L 720 0 
L 0 0 
z
" style="fill: #ffffff"/>
  </g>
  <g id="axes_1">
   <g id="patch_2">
    <path d="M 90 384.48 
L 648 384.48 
L 648 51.84 
L 90 51.84 
z
" style="fill: #ffffff"/>
   </g>
   <g id="patch_3">
    <path d="M 115.363636 384.48 
L 115.363636 383.918298 
L 125.509091 383.918298 
L 125.509091 384.48 
L 135.654545 384.48 
L 135.654545 384.48 
L 145.8 384.48 
L 145.8 384.48 
L 155.945455 384.48 
L 155.945455 383.918298 
L 166.090909 383.918298 
L 166.090909 384.48 
L 176.236364 384.48 
L 176.236364 382.794894 
L 186.381818 382.794894 
L 186.381818 381.109787 
L 196.527273 381.109787 
L 196.527273 377.177872 
L 206.672727 377.177872 
L 206.672727 375.492766 
L 216.818182 375.492766 
L 216.818182 352.462979 
L 226.963636 352.462979 
L 226.963636 329.433191 
L 237.109091 329.433191 
L 237.109091 285.058723 
L 247.254545 285.058723 
L 247.254545 230.011915 
L 257.4 230.011915 
L 257.4 164.854468 
L 267.545455 164.854468 
L 267.545455 96.326809 
L 277.690909 96.326809 
L 277.690909 83.40766 
L 287.836364 83.40766 
L 287.836364 67.68 
L 297.981818 67.68 
L 297.981818 110.369362 
L 308.127273 110.369362 
L 308.127273 159.237447 
L 318.272727 159.237447 
L 318.272727 238.999149 
L 328.418182 238.999149 
L 328.418182 302.471489 
L 338.563636 302.471489 
L 338.563636 341.790638 
L 348.709091 341.790638 
L 348.709091 362.573617 
L 358.854545 362.573617 
L 358.854545 370.999149 
L 369 370.999149 
L 369 381.109787 
L 379.145455 381.109787 
L 379.145455 383.918298 
L 389.290909 383.918298 
L 389.290909 384.48 
L 399.436364 384.48 
L 399.436364 384.48 
L 409.581818 384.48 
L 409.581818 384.48 
L 419.727273 384.48 
L 419.727273 384.48 
L 429.872727 384.48 
L 429.872727 384.48 
L 440.018182 384.48 
L 440.018182 384.48 
L 450.163636 384.48 
L 450.163636 384.48 
L 460.309091 384.48 
L 460.309091 384.48 
L 470.454545 384.48 
L 470.454545 384.48 
L 480.6 384.48 
L 480.6 384.48 
L 490.745455 384.48 
L 490.745455 384.48 
L 500.890909 384.48 
L 500.890909 384.48 
L 511.036364 384.48 
L 511.036364 383.918298 
L 521.181818 383.918298 
L 521.181818 384.48 
L 531.327273 384.48 
L 531.327273 383.918298 
L 541.472727 383.918298 
L 541.472727 384.48 
L 551.618182 384.48 
L 551.618182 383.918298 
L 561.763636 383.918298 
L 561.763636 384.48 
L 571.909091 384.48 
L 571.909091 384.48 
L 582.054545 384.48 
L 582.054545 384.48 
L 592.2 384.48 
L 592.2 384.48 
L 602.345455 384.48 
L 602.345455 384.48 
L 612.490909 384.48 
L 612.490909 383.356596 
L 622.636364 383.356596 
L 622.636364 384.48 
" clip-path="url(#p0381064bf3)" style="fill: none; stroke: #1f77b4; stroke-linejoin: miter"/>
   </g>
   <g id="patch_4">
    <path d="M 181.09441 384.48 
L 181.09441 383.918298 
L 185.638067 383.918298 
L 185.638067 383.918298 
L 190.181723 383.918298 
L 190.181723 384.48 
L 194.72538 384.48 
L 194.72538 382.794894 
L 199.269037 382.794894 
L 199.269037 382.233191 
L 203.812693 382.233191 
L 203.812693 379.986383 
L 208.35635 379.986383 
L 208.35635 376.61617 
L 212.900006 376.61617 
L 212.900006 374.931064 
L 217.443663 374.931064 
L 217.443663 373.80766 
L 221.987319 373.80766 
L 221.987319 368.75234 
L 226.530976 368.75234 
L 226.530976 365.382128 
L 231.074632 365.382128 
L 231.074632 350.21617 
L 235.618289 350.21617 
L 235.618289 340.105532 
L 240.161946 340.105532 
L 240.161946 338.420426 
L 244.705602 338.420426 
L 244.705602 328.871489 
L 249.249259 328.871489 
L 249.249259 317.637447 
L 253.792915 317.637447 
L 253.792915 303.033191 
L 258.336572 303.033191 
L 258.336572 282.250213 
L 262.880228 282.250213 
L 262.880228 274.948085 
L 267.423885 274.948085 
L 267.423885 266.522553 
L 271.967542 266.522553 
L 271.967542 251.918298 
L 276.511198 251.918298 
L 276.511198 260.34383 
L 281.054855 260.34383 
L 281.054855 252.48 
L 285.598511 252.48 
L 285.598511 233.382128 
L 290.142168 233.382128 
L 290.142168 244.054468 
L 294.685824 244.054468 
L 294.685824 250.233191 
L 299.229481 250.233191 
L 299.229481 277.756596 
L 303.773138 277.756596 
L 303.773138 269.892766 
L 308.316794 269.892766 
L 308.316794 300.786383 
L 312.860451 300.786383 
L 312.860451 300.224681 
L 317.404107 300.224681 
L 317.404107 316.514043 
L 321.947764 316.514043 
L 321.947764 331.118298 
L 326.49142 331.118298 
L 326.49142 332.803404 
L 331.035077 332.803404 
L 331.035077 336.735319 
L 335.578733 336.735319 
L 335.578733 347.40766 
L 340.12239 347.40766 
L 340.12239 353.024681 
L 344.666047 353.024681 
L 344.666047 365.382128 
L 349.209703 365.382128 
L 349.209703 369.314043 
L 353.75336 369.314043 
L 353.75336 372.122553 
L 358.297016 372.122553 
L 358.297016 374.931064 
L 362.840673 374.931064 
L 362.840673 377.177872 
L 367.384329 377.177872 
L 367.384329 381.109787 
L 371.927986 381.109787 
L 371.927986 382.794894 
L 376.471643 382.794894 
L 376.471643 381.109787 
L 381.015299 381.109787 
L 381.015299 383.356596 
L 385.558956 383.356596 
L 385.558956 383.356596 
L 390.102612 383.356596 
L 390.102612 383.356596 
L 394.646269 383.356596 
L 394.646269 384.48 
L 399.189925 384.48 
L 399.189925 383.356596 
L 403.733582 383.356596 
L 403.733582 383.918298 
L 408.277238 383.918298 
L 408.277238 384.48 
" clip-path="url(#p0381064bf3)" style="fill: none; stroke: #ff7f0e; stroke-linejoin: miter"/>
   </g>
   <g id="patch_5">
    <path d="M 180.694616 384.48 
L 180.694616 383.356596 
L 185.271258 383.356596 
L 185.271258 383.918298 
L 189.8479 383.918298 
L 189.8479 381.109787 
L 194.424542 381.109787 
L 194.424542 382.794894 
L 199.001184 382.794894 
L 199.001184 380.548085 
L 203.577827 380.548085 
L 203.577827 379.424681 
L 208.154469 379.424681 
L 208.154469 378.301277 
L 212.731111 378.301277 
L 212.731111 377.177872 
L 217.307753 377.177872 
L 217.307753 369.314043 
L 221.884395 369.314043 
L 221.884395 368.190638 
L 226.461037 368.190638 
L 226.461037 361.450213 
L 231.03768 361.450213 
L 231.03768 360.888511 
L 235.614322 360.888511 
L 235.614322 347.40766 
L 240.190964 347.40766 
L 240.190964 332.241702 
L 244.767606 332.241702 
L 244.767606 321.569362 
L 249.344248 321.569362 
L 249.344248 315.95234 
L 253.92089 315.95234 
L 253.92089 290.675745 
L 258.497533 290.675745 
L 258.497533 279.441702 
L 263.074175 279.441702 
L 263.074175 282.811915 
L 267.650817 282.811915 
L 267.650817 265.399149 
L 272.227459 265.399149 
L 272.227459 269.331064 
L 276.804101 269.331064 
L 276.804101 237.875745 
L 281.380743 237.875745 
L 281.380743 257.535319 
L 285.957385 257.535319 
L 285.957385 246.862979 
L 290.534028 246.862979 
L 290.534028 265.399149 
L 295.11067 265.399149 
L 295.11067 241.80766 
L 299.687312 241.80766 
L 299.687312 279.441702 
L 304.263954 279.441702 
L 304.263954 260.905532 
L 308.840596 260.905532 
L 308.840596 292.922553 
L 313.417238 292.922553 
L 313.417238 301.909787 
L 317.993881 301.909787 
L 317.993881 310.897021 
L 322.570523 310.897021 
L 322.570523 322.692766 
L 327.147165 322.692766 
L 327.147165 336.173617 
L 331.723807 336.173617 
L 331.723807 347.969362 
L 336.300449 347.969362 
L 336.300449 342.914043 
L 340.877091 342.914043 
L 340.877091 356.394894 
L 345.453734 356.394894 
L 345.453734 360.326809 
L 350.030376 360.326809 
L 350.030376 368.75234 
L 354.607018 368.75234 
L 354.607018 375.492766 
L 359.18366 375.492766 
L 359.18366 373.80766 
L 363.760302 373.80766 
L 363.760302 377.177872 
L 368.336944 377.177872 
L 368.336944 383.356596 
L 372.913587 383.356596 
L 372.913587 382.233191 
L 377.490229 382.233191 
L 377.490229 384.48 
L 382.066871 384.48 
L 382.066871 384.48 
L 386.643513 384.48 
L 386.643513 383.918298 
L 391.220155 383.918298 
L 391.220155 383.918298 
L 395.796797 383.918298 
L 395.796797 384.48 
L 400.37344 384.48 
L 400.37344 383.918298 
L 404.950082 383.918298 
L 404.950082 383.918298 
L 409.526724 383.918298 
L 409.526724 384.48 
" clip-path="url(#p0381064bf3)" style="fill: none; stroke: #2ca02c; stroke-linejoin: miter"/>
   </g>
   <g id="patch_6">
    <path d="M 90 384.48 
L 90 51.84 
" style="fill: none; stroke: #808080; stroke-width: 0.8; stroke-linejoin: miter; stroke-linecap: square"/>
   </g>
   <g id="patch_7">
    <path d="M 648 384.48 
L 648 51.84 
" style="fill: none; stroke: #808080; stroke-width: 0.8; stroke-linejoin: miter; stroke-linecap: square"/>
   </g>
   <g id="patch_8">
    <path d="M 90 384.48 
L 648 384.48 
" style="fill: none; stroke: #808080; stroke-width: 0.8; stroke-linejoin: miter; stroke-linecap: square"/>
   </g>
   <g id="patch_9">
    <path d="M 90 51.84 
L 648 51.84 
" style="fill: none; stroke: #808080; stroke-width: 0.8; stroke-linejoin: miter; stroke-linecap: square"/>
   </g>
   <g id="matplotlib.axis_1">
    <g id="xtick_1">
     <g id="line2d_1">
      <path d="M 100.697653 384.48 
L 100.697653 51.84 
" clip-path="url(#p0381064bf3)" style="fill: none; stroke: #b0b0b0; stroke-width: 0.5; stroke-linecap: square"/>
     </g>
     <g id="line2d_2">
      <defs>
       <path id="m7967936747" d="M 0 0 
L 0 3.5 
" style="stroke: #000000; stroke-width: 0.8"/>
      </defs>
      <g>
       <use xlink:href="#m7967936747" x="100.697653" y="384.48" style="stroke: #000000; stroke-width: 0.8"/>
      </g>
     </g>
     <g id="text_1">
      <!-- $\mathdefault{−6}$ -->
      <g transform="translate(93.857653 400.22875) scale(0.12 -0.12)">
       <defs>
        <path id="FreeSans-2212" d="M 3418 1709 
L 3418 1261 
L 320 1261 
L 320 1709 
L 3418 1709 
z
" transform="scale(0.015625)"/>
        <path id="FreeSans-36" d="M 275 2067 
Q 275 2669 384 3126 
Q 493 3584 656 3846 
Q 819 4109 1046 4272 
Q 1274 4435 1475 4486 
Q 1677 4538 1901 4538 
Q 2419 4538 2761 4224 
Q 3104 3910 3187 3354 
L 2624 3354 
Q 2554 3680 2355 3859 
Q 2157 4038 1862 4038 
Q 1376 4038 1117 3593 
Q 858 3149 851 2317 
Q 1222 2822 1894 2822 
Q 2502 2822 2892 2419 
Q 3283 2016 3283 1382 
Q 3283 941 3094 592 
Q 2906 243 2566 48 
Q 2227 -147 1798 -147 
Q 275 -147 275 2067 
z
M 1824 2323 
Q 1408 2323 1145 2057 
Q 883 1792 883 1370 
Q 883 934 1145 643 
Q 1408 352 1805 352 
Q 2195 352 2451 630 
Q 2707 909 2707 1338 
Q 2707 1792 2470 2057 
Q 2234 2323 1824 2323 
z
" transform="scale(0.015625)"/>
       </defs>
       <use xlink:href="#FreeSans-2212" transform="translate(0 0.09375)"/>
       <use xlink:href="#FreeSans-36" transform="translate(58.399994 0.09375)"/>
      </g>
     </g>
    </g>
    <g id="xtick_2">
     <g id="line2d_3">
      <path d="M 162.741953 384.48 
L 162.741953 51.84 
" clip-path="url(#p0381064bf3)" style="fill: none; stroke: #b0b0b0; stroke-width: 0.5; stroke-linecap: square"/>
     </g>
     <g id="line2d_4">
      <g>
       <use xlink:href="#m7967936747" x="162.741953" y="384.48" style="stroke: #000000; stroke-width: 0.8"/>
      </g>
     </g>
     <g id="text_2">
      <!-- $\mathdefault{−4}$ -->
      <g transform="translate(155.901953 400.22875) scale(0.12 -0.12)">
       <defs>
        <path id="FreeSans-34" d="M 2093 1088 
L 179 1088 
L 179 1683 
L 2240 4538 
L 2656 4538 
L 2656 1594 
L 3328 1594 
L 3328 1088 
L 2656 1088 
L 2656 0 
L 2093 0 
L 2093 1088 
z
M 2093 1594 
L 2093 3578 
L 672 1594 
L 2093 1594 
z
" transform="scale(0.015625)"/>
       </defs>
       <use xlink:href="#FreeSans-2212" transform="translate(0 0.09375)"/>
       <use xlink:href="#FreeSans-34" transform="translate(58.399994 0.09375)"/>
      </g>
     </g>
    </g>
    <g id="xtick_3">
     <g id="line2d_5">
      <path d="M 224.786254 384.48 
L 224.786254 51.84 
" clip-path="url(#p0381064bf3)" style="fill: none; stroke: #b0b0b0; stroke-width: 0.5; stroke-linecap: square"/>
     </g>
     <g id="line2d_6">
      <g>
       <use xlink:href="#m7967936747" x="224.786254" y="384.48" style="stroke: #000000; stroke-width: 0.8"/>
      </g>
     </g>
     <g id="text_3">
      <!-- $\mathdefault{−2}$ -->
      <g transform="translate(217.946254 400.22875) scale(0.12 -0.12)">
       <defs>
        <path id="FreeSans-32" d="M 320 2963 
Q 365 4538 1818 4538 
Q 2464 4538 2867 4166 
Q 3270 3795 3270 3206 
Q 3270 2362 2310 1837 
L 1670 1491 
Q 1254 1267 1075 1056 
Q 896 845 851 557 
L 3238 557 
L 3238 0 
L 218 0 
Q 256 749 518 1155 
Q 781 1562 1491 1965 
L 2080 2298 
Q 2694 2650 2694 3194 
Q 2694 3558 2438 3801 
Q 2182 4045 1798 4045 
Q 947 4045 883 2963 
L 320 2963 
z
" transform="scale(0.015625)"/>
       </defs>
       <use xlink:href="#FreeSans-2212" transform="translate(0 0.09375)"/>
       <use xlink:href="#FreeSans-32" transform="translate(58.399994 0.09375)"/>
      </g>
     </g>
    </g>
    <g id="xtick_4">
     <g id="line2d_7">
      <path d="M 286.830554 384.48 
L 286.830554 51.84 
" clip-path="url(#p0381064bf3)" style="fill: none; stroke: #b0b0b0; stroke-width: 0.5; stroke-linecap: square"/>
     </g>
     <g id="line2d_8">
      <g>
       <use xlink:href="#m7967936747" x="286.830554" y="384.48" style="stroke: #000000; stroke-width: 0.8"/>
      </g>
     </g>
     <g id="text_4">
      <!-- $\mathdefault{0}$ -->
      <g transform="translate(283.470554 400.22875) scale(0.12 -0.12)">
       <defs>
        <path id="FreeSans-30" d="M 275 2195 
Q 275 2765 371 3200 
Q 467 3635 614 3881 
Q 762 4128 966 4281 
Q 1171 4435 1360 4486 
Q 1549 4538 1760 4538 
Q 3245 4538 3245 2157 
Q 3245 1600 3149 1168 
Q 3053 736 2864 445 
Q 2675 154 2396 3 
Q 2118 -147 1760 -147 
Q 1030 -147 652 451 
Q 275 1050 275 2195 
z
M 2669 2208 
Q 2669 4038 1760 4038 
Q 851 4038 851 2189 
Q 851 1568 950 1152 
Q 1050 736 1251 528 
Q 1453 320 1747 320 
Q 2221 320 2445 781 
Q 2669 1242 2669 2208 
z
" transform="scale(0.015625)"/>
       </defs>
       <use xlink:href="#FreeSans-30" transform="translate(0 0.09375)"/>
      </g>
     </g>
    </g>
    <g id="xtick_5">
     <g id="line2d_9">
      <path d="M 348.874855 384.48 
L 348.874855 51.84 
" clip-path="url(#p0381064bf3)" style="fill: none; stroke: #b0b0b0; stroke-width: 0.5; stroke-linecap: square"/>
     </g>
     <g id="line2d_10">
      <g>
       <use xlink:href="#m7967936747" x="348.874855" y="384.48" style="stroke: #000000; stroke-width: 0.8"/>
      </g>
     </g>
     <g id="text_5">
      <!-- $\mathdefault{2}$ -->
      <g transform="translate(345.514855 400.22875) scale(0.12 -0.12)">
       <use xlink:href="#FreeSans-32" transform="translate(0 0.09375)"/>
      </g>
     </g>
    </g>
    <g id="xtick_6">
     <g id="line2d_11">
      <path d="M 410.919155 384.48 
L 410.919155 51.84 
" clip-path="url(#p0381064bf3)" style="fill: none; stroke: #b0b0b0; stroke-width: 0.5; stroke-linecap: square"/>
     </g>
     <g id="line2d_12">
      <g>
       <use xlink:href="#m7967936747" x="410.919155" y="384.48" style="stroke: #000000; stroke-width: 0.8"/>
      </g>
     </g>
     <g id="text_6">
      <!-- $\mathdefault{4}$ -->
      <g transform="translate(407.559155 400.22875) scale(0.12 -0.12)">
       <use xlink:href="#FreeSans-34" transform="translate(0 0.09375)"/>
      </g>
     </g>
    </g>
    <g id="xtick_7">
     <g id="line2d_13">
      <path d="M 472.963456 384.48 
L 472.963456 51.84 
" clip-path="url(#p0381064bf3)" style="fill: none; stroke: #b0b0b0; stroke-width: 0.5; stroke-linecap: square"/>
     </g>
     <g id="line2d_14">
      <g>
       <use xlink:href="#m7967936747" x="472.963456" y="384.48" style="stroke: #000000; stroke-width: 0.8"/>
      </g>
     </g>
     <g id="text_7">
      <!-- $\mathdefault{6}$ -->
      <g transform="translate(469.603456 400.22875) scale(0.12 -0.12)">
       <use xlink:href="#FreeSans-36" transform="translate(0 0.09375)"/>
      </g>
     </g>
    </g>
    <g id="xtick_8">
     <g id="line2d_15">
      <path d="M 535.007756 384.48 
L 535.007756 51.84 
" clip-path="url(#p0381064bf3)" style="fill: none; stroke: #b0b0b0; stroke-width: 0.5; stroke-linecap: square"/>
     </g>
     <g id="line2d_16">
      <g>
       <use xlink:href="#m7967936747" x="535.007756" y="384.48" style="stroke: #000000; stroke-width: 0.8"/>
      </g>
     </g>
     <g id="text_8">
      <!-- $\mathdefault{8}$ -->
      <g transform="translate(531.647756 400.22875) scale(0.12 -0.12)">
       <defs>
        <path id="FreeSans-38" d="M 2502 2387 
Q 3283 2016 3283 1254 
Q 3283 634 2857 243 
Q 2432 -147 1760 -147 
Q 1318 -147 969 29 
Q 621 205 429 528 
Q 237 851 237 1261 
Q 237 2016 1011 2387 
Q 666 2605 531 2809 
Q 397 3014 397 3328 
Q 397 3859 777 4198 
Q 1158 4538 1760 4538 
Q 2362 4538 2742 4198 
Q 3123 3859 3123 3328 
Q 3123 3008 2988 2803 
Q 2854 2598 2502 2387 
z
M 2332 3843 
Q 2118 4038 1760 4038 
Q 1402 4038 1187 3843 
Q 973 3648 973 3322 
Q 973 3002 1187 2806 
Q 1402 2611 1760 2611 
Q 2112 2611 2329 2803 
Q 2547 2995 2547 3315 
Q 2547 3648 2332 3843 
z
M 2444 1891 
Q 2182 2138 1760 2138 
Q 1338 2138 1075 1891 
Q 813 1645 813 1248 
Q 813 851 1072 601 
Q 1331 352 1747 352 
Q 2176 352 2441 598 
Q 2707 845 2707 1248 
Q 2707 1645 2444 1891 
z
" transform="scale(0.015625)"/>
       </defs>
       <use xlink:href="#FreeSans-38" transform="translate(0 0.09375)"/>
      </g>
     </g>
    </g>
    <g id="xtick_9">
     <g id="line2d_17">
      <path d="M 597.052057 384.48 
L 597.052057 51.84 
" clip-path="url(#p0381064bf3)" style="fill: none; stroke: #b0b0b0; stroke-width: 0.5; stroke-linecap: square"/>
     </g>
     <g id="line2d_18">
      <g>
       <use xlink:href="#m7967936747" x="597.052057" y="384.48" style="stroke: #000000; stroke-width: 0.8"/>
      </g>
     </g>
     <g id="text_9">
      <!-- $\mathdefault{10}$ -->
      <g transform="translate(590.332057 400.22875) scale(0.12 -0.12)">
       <defs>
        <path id="FreeSans-31" d="M 1658 3232 
L 653 3232 
L 653 3635 
Q 1306 3718 1504 3865 
Q 1702 4013 1850 4538 
L 2221 4538 
L 2221 0 
L 1658 0 
L 1658 3232 
z
" transform="scale(0.015625)"/>
       </defs>
       <use xlink:href="#FreeSans-31" transform="translate(0 0.09375)"/>
       <use xlink:href="#FreeSans-30" transform="translate(55.599991 0.09375)"/>
      </g>
     </g>
    </g>
    <g id="text_10">
     <!-- Standardized Amplitude -->
     <g transform="translate(293.743125 418.513875) scale(0.144 -0.144)">
      <defs>
       <path id="FreeSans-53" d="M 2189 378 
Q 2547 378 2796 461 
Q 3046 544 3164 678 
Q 3283 813 3331 944 
Q 3379 1075 3379 1222 
Q 3379 1754 2522 1978 
L 1363 2285 
Q 902 2406 675 2675 
Q 448 2944 448 3373 
Q 448 4006 893 4374 
Q 1338 4742 2106 4742 
Q 2912 4742 3360 4361 
Q 3808 3981 3814 3296 
L 3251 3296 
Q 3245 3750 2944 3996 
Q 2643 4243 2086 4243 
Q 1613 4243 1328 4025 
Q 1043 3808 1043 3456 
Q 1043 3187 1216 3033 
Q 1389 2880 1811 2765 
L 2982 2451 
Q 3456 2323 3715 2016 
Q 3974 1709 3974 1280 
Q 3974 1094 3926 912 
Q 3878 730 3750 534 
Q 3622 339 3424 192 
Q 3226 45 2896 -51 
Q 2566 -147 2150 -147 
Q 1888 -147 1648 -105 
Q 1408 -64 1158 48 
Q 909 160 729 336 
Q 550 512 432 806 
Q 314 1101 307 1485 
L 870 1485 
L 870 1453 
Q 870 1254 931 1081 
Q 992 909 1129 742 
Q 1267 576 1539 477 
Q 1811 378 2189 378 
z
" transform="scale(0.015625)"/>
       <path id="FreeSans-74" d="M 1664 3354 
L 1664 2918 
L 1114 2918 
L 1114 621 
Q 1114 442 1174 381 
Q 1235 320 1408 320 
Q 1568 320 1664 346 
L 1664 -102 
Q 1414 -147 1229 -147 
Q 915 -147 748 -9 
Q 582 128 582 384 
L 582 2918 
L 128 2918 
L 128 3354 
L 582 3354 
L 582 4275 
L 1114 4275 
L 1114 3354 
L 1664 3354 
z
" transform="scale(0.015625)"/>
       <path id="FreeSans-61" d="M 339 2362 
Q 378 3450 1683 3450 
Q 2304 3450 2624 3216 
Q 2944 2982 2944 2534 
L 2944 563 
Q 2944 301 3232 301 
Q 3290 301 3347 314 
L 3347 -90 
Q 3123 -147 2982 -147 
Q 2726 -147 2595 -28 
Q 2464 90 2432 346 
Q 2150 83 1878 -32 
Q 1606 -147 1293 -147 
Q 954 -147 707 -25 
Q 461 96 326 320 
Q 192 544 192 845 
Q 192 992 221 1113 
Q 250 1235 285 1328 
Q 320 1421 409 1501 
Q 499 1581 560 1632 
Q 621 1683 765 1731 
Q 909 1779 985 1801 
Q 1062 1824 1254 1856 
Q 1446 1888 1536 1901 
Q 1626 1914 1856 1946 
Q 2170 1984 2291 2067 
Q 2413 2150 2413 2317 
L 2413 2458 
Q 2413 2701 2217 2829 
Q 2022 2957 1664 2957 
Q 1293 2957 1101 2813 
Q 909 2669 877 2362 
L 339 2362 
z
M 1408 320 
Q 1850 320 2131 553 
Q 2413 787 2413 1056 
L 2413 1658 
Q 2253 1581 1929 1529 
Q 1606 1478 1369 1440 
Q 1133 1402 941 1258 
Q 749 1114 749 858 
Q 749 602 921 461 
Q 1094 320 1408 320 
z
" transform="scale(0.015625)"/>
       <path id="FreeSans-6e" d="M 384 3354 
L 877 3354 
L 877 2790 
Q 1101 3142 1360 3296 
Q 1619 3450 1990 3450 
Q 2477 3450 2765 3200 
Q 3053 2950 3053 2534 
L 3053 0 
L 2522 0 
L 2522 2323 
Q 2522 2624 2336 2803 
Q 2150 2982 1830 2982 
Q 1421 2982 1171 2672 
Q 922 2362 922 1850 
L 922 0 
L 384 0 
L 384 3354 
z
" transform="scale(0.015625)"/>
       <path id="FreeSans-64" d="M 3194 4666 
L 3194 0 
L 2720 0 
L 2720 442 
Q 2502 128 2249 -9 
Q 1997 -147 1651 -147 
Q 973 -147 582 342 
Q 192 832 192 1683 
Q 192 2483 585 2966 
Q 979 3450 1632 3450 
Q 2323 3450 2662 2931 
L 2662 4666 
L 3194 4666 
z
M 1722 2950 
Q 1286 2950 1017 2592 
Q 749 2234 749 1651 
Q 749 1062 1017 707 
Q 1286 352 1728 352 
Q 2150 352 2406 704 
Q 2662 1056 2662 1638 
Q 2662 2240 2406 2595 
Q 2150 2950 1722 2950 
z
" transform="scale(0.015625)"/>
       <path id="FreeSans-72" d="M 1997 2886 
Q 1459 2874 1190 2637 
Q 922 2400 922 1741 
L 922 0 
L 384 0 
L 384 3354 
L 877 3354 
L 877 2746 
Q 1107 3123 1321 3286 
Q 1536 3450 1792 3450 
Q 1862 3450 1997 3430 
L 1997 2886 
z
" transform="scale(0.015625)"/>
       <path id="FreeSans-69" d="M 960 3354 
L 960 0 
L 429 0 
L 429 3354 
L 960 3354 
z
M 960 4666 
L 960 3994 
L 422 3994 
L 422 4666 
L 960 4666 
z
" transform="scale(0.015625)"/>
       <path id="FreeSans-7a" d="M 2829 3354 
L 2829 2880 
L 838 467 
L 2918 467 
L 2918 0 
L 192 0 
L 192 480 
L 2195 2886 
L 326 2886 
L 326 3354 
L 2829 3354 
z
" transform="scale(0.015625)"/>
       <path id="FreeSans-65" d="M 3219 1498 
L 749 1498 
Q 762 973 1021 659 
Q 1280 346 1734 346 
Q 2387 346 2611 1018 
L 3149 1018 
Q 3046 467 2668 160 
Q 2291 -147 1715 -147 
Q 1011 -147 601 329 
Q 192 806 192 1632 
Q 192 2458 611 2954 
Q 1030 3450 1728 3450 
Q 3219 3450 3219 1498 
z
M 762 1933 
L 2650 1933 
Q 2650 2368 2387 2662 
Q 2125 2957 1721 2957 
Q 1318 2957 1056 2678 
Q 794 2400 762 1933 
z
" transform="scale(0.015625)"/>
       <path id="FreeSans-20" transform="scale(0.015625)"/>
       <path id="FreeSans-41" d="M 3021 1402 
L 1222 1402 
L 730 0 
L 96 0 
L 1760 4666 
L 2528 4666 
L 4166 0 
L 3501 0 
L 3021 1402 
z
M 2854 1901 
L 2138 4026 
L 1370 1901 
L 2854 1901 
z
" transform="scale(0.015625)"/>
       <path id="FreeSans-6d" d="M 384 3354 
L 877 3354 
L 877 2880 
Q 1094 3181 1334 3315 
Q 1574 3450 1907 3450 
Q 2528 3450 2810 2938 
Q 3046 3219 3276 3334 
Q 3507 3450 3840 3450 
Q 4307 3450 4560 3210 
Q 4813 2970 4813 2515 
L 4813 0 
L 4275 0 
L 4275 2310 
Q 4275 2630 4112 2806 
Q 3949 2982 3654 2982 
Q 3328 2982 3097 2726 
Q 2867 2470 2867 2106 
L 2867 0 
L 2330 0 
L 2330 2310 
Q 2330 2630 2166 2806 
Q 2003 2982 1709 2982 
Q 1382 2982 1152 2726 
Q 922 2470 922 2106 
L 922 0 
L 384 0 
L 384 3354 
z
" transform="scale(0.015625)"/>
       <path id="FreeSans-70" d="M 384 -1395 
L 384 3354 
L 877 3354 
L 877 2848 
Q 1254 3450 1946 3450 
Q 2611 3450 2998 2957 
Q 3386 2464 3386 1619 
Q 3386 1222 3283 892 
Q 3181 563 2995 336 
Q 2810 109 2541 -19 
Q 2272 -147 1952 -147 
Q 1331 -147 922 352 
L 922 -1395 
L 384 -1395 
z
M 1856 2950 
Q 1434 2950 1178 2595 
Q 922 2240 922 1651 
Q 922 1062 1178 707 
Q 1434 352 1856 352 
Q 2291 352 2560 707 
Q 2829 1062 2829 1632 
Q 2829 2234 2563 2592 
Q 2298 2950 1856 2950 
z
" transform="scale(0.015625)"/>
       <path id="FreeSans-6c" d="M 922 4666 
L 922 0 
L 384 0 
L 384 4666 
L 922 4666 
z
" transform="scale(0.015625)"/>
       <path id="FreeSans-75" d="M 3053 0 
L 2573 0 
L 2573 467 
Q 2336 134 2080 -6 
Q 1824 -147 1453 -147 
Q 966 -147 675 102 
Q 384 352 384 768 
L 384 3354 
L 915 3354 
L 915 979 
Q 915 678 1100 499 
Q 1286 320 1606 320 
Q 2022 320 2272 630 
Q 2522 941 2522 1453 
L 2522 3354 
L 3053 3354 
L 3053 0 
z
" transform="scale(0.015625)"/>
      </defs>
      <use xlink:href="#FreeSans-53"/>
      <use xlink:href="#FreeSans-74" x="66.699997"/>
      <use xlink:href="#FreeSans-61" x="94.699982"/>
      <use xlink:href="#FreeSans-6e" x="148.999969"/>
      <use xlink:href="#FreeSans-64" x="202.699966"/>
      <use xlink:href="#FreeSans-61" x="258.59996"/>
      <use xlink:href="#FreeSans-72" x="312.899948"/>
      <use xlink:href="#FreeSans-64" x="346.099945"/>
      <use xlink:href="#FreeSans-69" x="401.999939"/>
      <use xlink:href="#FreeSans-7a" x="424.199936"/>
      <use xlink:href="#FreeSans-65" x="472.799927"/>
      <use xlink:href="#FreeSans-64" x="526.099915"/>
      <use xlink:href="#FreeSans-20" x="581.999908"/>
      <use xlink:href="#FreeSans-41" x="606.999893"/>
      <use xlink:href="#FreeSans-6d" x="673.599884"/>
      <use xlink:href="#FreeSans-70" x="754.799866"/>
      <use xlink:href="#FreeSans-6c" x="810.69986"/>
      <use xlink:href="#FreeSans-69" x="832.099854"/>
      <use xlink:href="#FreeSans-74" x="854.29985"/>
      <use xlink:href="#FreeSans-75" x="882.299835"/>
      <use xlink:href="#FreeSans-64" x="935.999832"/>
      <use xlink:href="#FreeSans-65" x="991.899826"/>
     </g>
    </g>
   </g>
   <g id="matplotlib.axis_2">
    <g id="ytick_1">
     <g id="line2d_19">
      <path d="M 90 384.48 
L 648 384.48 
" clip-path="url(#p0381064bf3)" style="fill: none; stroke: #b0b0b0; stroke-width: 0.5; stroke-linecap: square"/>
     </g>
     <g id="line2d_20">
      <defs>
       <path id="m202b3827a5" d="M 0 0 
L -3.5 0 
" style="stroke: #000000; stroke-width: 0.8"/>
      </defs>
      <g>
       <use xlink:href="#m202b3827a5" x="90" y="384.48" style="stroke: #000000; stroke-width: 0.8"/>
      </g>
     </g>
     <g id="text_11">
      <!-- $\mathdefault{0}$ -->
      <g transform="translate(76.28 388.854375) scale(0.12 -0.12)">
       <use xlink:href="#FreeSans-30" transform="translate(0 0.09375)"/>
      </g>
     </g>
    </g>
    <g id="ytick_2">
     <g id="line2d_21">
      <path d="M 90 328.309787 
L 648 328.309787 
" clip-path="url(#p0381064bf3)" style="fill: none; stroke: #b0b0b0; stroke-width: 0.5; stroke-linecap: square"/>
     </g>
     <g id="line2d_22">
      <g>
       <use xlink:href="#m202b3827a5" x="90" y="328.309787" style="stroke: #000000; stroke-width: 0.8"/>
      </g>
     </g>
     <g id="text_12">
      <!-- $\mathdefault{100}$ -->
      <g transform="translate(62.96 332.684162) scale(0.12 -0.12)">
       <use xlink:href="#FreeSans-31" transform="translate(0 0.09375)"/>
       <use xlink:href="#FreeSans-30" transform="translate(55.599991 0.09375)"/>
       <use xlink:href="#FreeSans-30" transform="translate(111.199982 0.09375)"/>
      </g>
     </g>
    </g>
    <g id="ytick_3">
     <g id="line2d_23">
      <path d="M 90 272.139574 
L 648 272.139574 
" clip-path="url(#p0381064bf3)" style="fill: none; stroke: #b0b0b0; stroke-width: 0.5; stroke-linecap: square"/>
     </g>
     <g id="line2d_24">
      <g>
       <use xlink:href="#m202b3827a5" x="90" y="272.139574" style="stroke: #000000; stroke-width: 0.8"/>
      </g>
     </g>
     <g id="text_13">
      <!-- $\mathdefault{200}$ -->
      <g transform="translate(62.96 276.513949) scale(0.12 -0.12)">
       <use xlink:href="#FreeSans-32" transform="translate(0 0.09375)"/>
       <use xlink:href="#FreeSans-30" transform="translate(55.599991 0.09375)"/>
       <use xlink:href="#FreeSans-30" transform="translate(111.199982 0.09375)"/>
      </g>
     </g>
    </g>
    <g id="ytick_4">
     <g id="line2d_25">
      <path d="M 90 215.969362 
L 648 215.969362 
" clip-path="url(#p0381064bf3)" style="fill: none; stroke: #b0b0b0; stroke-width: 0.5; stroke-linecap: square"/>
     </g>
     <g id="line2d_26">
      <g>
       <use xlink:href="#m202b3827a5" x="90" y="215.969362" style="stroke: #000000; stroke-width: 0.8"/>
      </g>
     </g>
     <g id="text_14">
      <!-- $\mathdefault{300}$ -->
      <g transform="translate(62.96 220.343737) scale(0.12 -0.12)">
       <defs>
        <path id="FreeSans-33" d="M 1728 4045 
Q 1242 4045 1059 3779 
Q 877 3514 864 3072 
L 301 3072 
Q 333 4538 1722 4538 
Q 2368 4538 2736 4205 
Q 3104 3872 3104 3290 
Q 3104 2598 2470 2349 
Q 2880 2208 3059 1955 
Q 3238 1702 3238 1267 
Q 3238 621 2819 237 
Q 2400 -147 1702 -147 
Q 992 -147 624 214 
Q 256 576 205 1318 
L 768 1318 
Q 800 826 1030 589 
Q 1261 352 1722 352 
Q 2163 352 2412 592 
Q 2662 832 2662 1261 
Q 2662 2086 1722 2086 
L 1485 2080 
L 1414 2080 
L 1414 2560 
Q 2022 2573 2275 2713 
Q 2528 2854 2528 3270 
Q 2528 3629 2313 3837 
Q 2099 4045 1728 4045 
z
" transform="scale(0.015625)"/>
       </defs>
       <use xlink:href="#FreeSans-33" transform="translate(0 0.09375)"/>
       <use xlink:href="#FreeSans-30" transform="translate(55.599991 0.09375)"/>
       <use xlink:href="#FreeSans-30" transform="translate(111.199982 0.09375)"/>
      </g>
     </g>
    </g>
    <g id="ytick_5">
     <g id="line2d_27">
      <path d="M 90 159.799149 
L 648 159.799149 
" clip-path="url(#p0381064bf3)" style="fill: none; stroke: #b0b0b0; stroke-width: 0.5; stroke-linecap: square"/>
     </g>
     <g id="line2d_28">
      <g>
       <use xlink:href="#m202b3827a5" x="90" y="159.799149" style="stroke: #000000; stroke-width: 0.8"/>
      </g>
     </g>
     <g id="text_15">
      <!-- $\mathdefault{400}$ -->
      <g transform="translate(62.96 164.173524) scale(0.12 -0.12)">
       <use xlink:href="#FreeSans-34" transform="translate(0 0.09375)"/>
       <use xlink:href="#FreeSans-30" transform="translate(55.599991 0.09375)"/>
       <use xlink:href="#FreeSans-30" transform="translate(111.199982 0.09375)"/>
      </g>
     </g>
    </g>
    <g id="ytick_6">
     <g id="line2d_29">
      <path d="M 90 103.628936 
L 648 103.628936 
" clip-path="url(#p0381064bf3)" style="fill: none; stroke: #b0b0b0; stroke-width: 0.5; stroke-linecap: square"/>
     </g>
     <g id="line2d_30">
      <g>
       <use xlink:href="#m202b3827a5" x="90" y="103.628936" style="stroke: #000000; stroke-width: 0.8"/>
      </g>
     </g>
     <g id="text_16">
      <!-- $\mathdefault{500}$ -->
      <g transform="translate(62.96 108.003311) scale(0.12 -0.12)">
       <defs>
        <path id="FreeSans-35" d="M 3046 4538 
L 3046 3981 
L 1158 3981 
L 979 2714 
Q 1357 2989 1818 2989 
Q 2470 2989 2876 2569 
Q 3283 2150 3283 1478 
Q 3283 1005 3084 633 
Q 2886 262 2534 57 
Q 2182 -147 1728 -147 
Q 1466 -147 1245 -89 
Q 1024 -32 880 48 
Q 736 128 617 259 
Q 499 390 438 489 
Q 378 589 323 739 
Q 269 890 256 947 
Q 243 1005 224 1114 
L 787 1114 
Q 986 352 1715 352 
Q 2176 352 2441 633 
Q 2707 915 2707 1402 
Q 2707 1907 2438 2198 
Q 2170 2490 1715 2490 
Q 1453 2490 1267 2397 
Q 1082 2304 883 2067 
L 365 2067 
L 704 4538 
L 3046 4538 
z
" transform="scale(0.015625)"/>
       </defs>
       <use xlink:href="#FreeSans-35" transform="translate(0 0.09375)"/>
       <use xlink:href="#FreeSans-30" transform="translate(55.599991 0.09375)"/>
       <use xlink:href="#FreeSans-30" transform="translate(111.199982 0.09375)"/>
      </g>
     </g>
    </g>
    <g id="text_17">
     <!-- Density -->
     <g transform="translate(54.82125 241.49475) rotate(-90) scale(0.144 -0.144)">
      <defs>
       <path id="FreeSans-44" d="M 512 0 
L 512 4666 
L 2310 4666 
Q 3200 4666 3705 4045 
Q 4211 3424 4211 2336 
Q 4211 1901 4128 1533 
Q 4045 1165 3881 883 
Q 3718 602 3488 403 
Q 3258 205 2960 102 
Q 2662 0 2310 0 
L 512 0 
z
M 1107 525 
L 2208 525 
Q 2899 525 3257 985 
Q 3616 1446 3616 2330 
Q 3616 3219 3257 3680 
Q 2899 4141 2208 4141 
L 1107 4141 
L 1107 525 
z
" transform="scale(0.015625)"/>
       <path id="FreeSans-73" d="M 781 998 
Q 819 698 988 522 
Q 1158 346 1600 346 
Q 1952 346 2166 490 
Q 2381 634 2381 870 
Q 2381 1056 2259 1165 
Q 2138 1274 1862 1338 
L 1363 1459 
Q 768 1600 534 1814 
Q 301 2029 301 2426 
Q 301 2893 653 3171 
Q 1005 3450 1587 3450 
Q 2170 3450 2483 3181 
Q 2797 2912 2803 2419 
L 2240 2419 
Q 2221 2957 1568 2957 
Q 1242 2957 1050 2819 
Q 858 2682 858 2451 
Q 858 2272 1005 2160 
Q 1152 2048 1478 1971 
L 1990 1850 
Q 2490 1728 2714 1507 
Q 2938 1286 2938 915 
Q 2938 595 2768 355 
Q 2598 115 2284 -16 
Q 1971 -147 1555 -147 
Q 896 -147 566 134 
Q 237 416 218 998 
L 781 998 
z
" transform="scale(0.015625)"/>
       <path id="FreeSans-79" d="M 2419 3354 
L 2995 3354 
L 1504 -704 
Q 1242 -1395 640 -1395 
Q 442 -1395 282 -1312 
L 282 -832 
Q 454 -870 563 -870 
Q 730 -870 826 -796 
Q 922 -723 992 -544 
L 1197 -13 
L 64 3354 
L 634 3354 
L 1491 742 
L 2419 3354 
z
" transform="scale(0.015625)"/>
      </defs>
      <use xlink:href="#FreeSans-44"/>
      <use xlink:href="#FreeSans-65" x="69.799988"/>
      <use xlink:href="#FreeSans-6e" x="123.099976"/>
      <use xlink:href="#FreeSans-73" x="176.799973"/>
      <use xlink:href="#FreeSans-69" x="226.09996"/>
      <use xlink:href="#FreeSans-74" x="248.299957"/>
      <use xlink:href="#FreeSans-79" x="276.299942"/>
     </g>
    </g>
   </g>
   <g id="text_18">
    <!-- Standardized Amplitude Distributions of Clean, Glitch, and Gaussian Samples -->
    <g transform="translate(126.837 45.84) scale(0.144 -0.144)">
     <defs>
      <path id="FreeSans-62" d="M 384 4666 
L 915 4666 
L 915 2899 
Q 1280 3450 1952 3450 
Q 2618 3450 3002 2976 
Q 3386 2502 3386 1690 
Q 3386 1274 3280 931 
Q 3174 589 2985 352 
Q 2797 115 2525 -16 
Q 2253 -147 1926 -147 
Q 1242 -147 864 429 
L 864 0 
L 384 0 
L 384 4666 
z
M 1850 2950 
Q 1427 2950 1171 2595 
Q 915 2240 915 1651 
Q 915 1062 1171 707 
Q 1427 352 1850 352 
Q 2285 352 2557 707 
Q 2829 1062 2829 1632 
Q 2829 2234 2563 2592 
Q 2298 2950 1850 2950 
z
" transform="scale(0.015625)"/>
      <path id="FreeSans-6f" d="M 1702 3450 
Q 2426 3450 2826 2973 
Q 3226 2496 3226 1626 
Q 3226 1216 3120 883 
Q 3014 550 2819 323 
Q 2624 96 2342 -25 
Q 2061 -147 1709 -147 
Q 992 -147 592 329 
Q 192 806 192 1651 
Q 192 2496 595 2973 
Q 998 3450 1702 3450 
z
M 1709 2957 
Q 1261 2957 1005 2608 
Q 749 2259 749 1651 
Q 749 1043 1005 694 
Q 1261 346 1709 346 
Q 2150 346 2409 694 
Q 2669 1043 2669 1632 
Q 2669 2253 2416 2605 
Q 2163 2957 1709 2957 
z
" transform="scale(0.015625)"/>
      <path id="FreeSans-66" d="M 1664 3354 
L 1664 2918 
L 1107 2918 
L 1107 0 
L 576 0 
L 576 2918 
L 128 2918 
L 128 3354 
L 576 3354 
L 576 3923 
Q 576 4282 784 4483 
Q 992 4685 1363 4685 
Q 1510 4685 1664 4653 
L 1664 4211 
Q 1542 4218 1478 4218 
Q 1107 4218 1107 3878 
L 1107 3354 
L 1664 3354 
z
" transform="scale(0.015625)"/>
      <path id="FreeSans-43" d="M 256 2278 
Q 256 2598 310 2912 
Q 365 3226 518 3565 
Q 672 3904 899 4157 
Q 1126 4410 1513 4576 
Q 1901 4742 2387 4742 
Q 3910 4742 4186 3219 
L 3578 3219 
Q 3475 3718 3174 3968 
Q 2874 4218 2317 4218 
Q 1638 4218 1244 3699 
Q 851 3181 851 2285 
Q 851 1709 1036 1277 
Q 1222 845 1564 611 
Q 1907 378 2368 378 
Q 2944 378 3251 701 
Q 3558 1024 3667 1702 
L 4282 1702 
Q 4211 1088 3974 675 
Q 3738 262 3334 57 
Q 2931 -147 2362 -147 
Q 1882 -147 1501 16 
Q 1120 179 893 428 
Q 666 678 515 1014 
Q 365 1350 310 1657 
Q 256 1965 256 2278 
z
" transform="scale(0.015625)"/>
      <path id="FreeSans-2c" d="M 557 666 
L 1229 666 
L 1229 -102 
Q 1229 -941 557 -941 
L 557 -698 
Q 742 -685 819 -563 
Q 896 -442 896 -115 
L 896 0 
L 557 0 
L 557 666 
z
" transform="scale(0.015625)"/>
      <path id="FreeSans-47" d="M 851 2317 
Q 851 2074 896 1827 
Q 941 1581 1056 1312 
Q 1171 1043 1353 841 
Q 1536 640 1837 509 
Q 2138 378 2522 378 
Q 3162 378 3574 781 
Q 3987 1184 3987 1811 
L 3987 1939 
L 2566 1939 
L 2566 2464 
L 4512 2464 
L 4512 -26 
L 4134 -26 
L 3987 595 
Q 3322 -147 2394 -147 
Q 1773 -147 1283 160 
Q 794 467 525 1020 
Q 256 1574 256 2285 
Q 256 2592 313 2902 
Q 371 3213 531 3552 
Q 691 3891 931 4147 
Q 1171 4403 1577 4572 
Q 1984 4742 2496 4742 
Q 3296 4742 3811 4352 
Q 4326 3962 4448 3251 
L 3840 3251 
Q 3744 3699 3382 3958 
Q 3021 4218 2490 4218 
Q 1747 4218 1299 3696 
Q 851 3174 851 2317 
z
" transform="scale(0.015625)"/>
      <path id="FreeSans-63" d="M 3008 2227 
L 2470 2227 
Q 2419 2579 2214 2768 
Q 2010 2957 1677 2957 
Q 1242 2957 995 2601 
Q 749 2246 749 1619 
Q 749 1024 998 685 
Q 1248 346 1690 346 
Q 2374 346 2509 1152 
L 3046 1152 
Q 2995 538 2636 195 
Q 2278 -147 1677 -147 
Q 992 -147 592 329 
Q 192 806 192 1619 
Q 192 2451 598 2950 
Q 1005 3450 1683 3450 
Q 2266 3450 2614 3136 
Q 2963 2822 3008 2227 
z
" transform="scale(0.015625)"/>
      <path id="FreeSans-68" d="M 2515 2323 
Q 2515 2675 2300 2828 
Q 2086 2982 1824 2982 
Q 1414 2982 1164 2672 
Q 915 2362 915 1850 
L 915 0 
L 384 0 
L 384 4666 
L 915 4666 
L 915 2893 
Q 1152 3200 1392 3325 
Q 1632 3450 1990 3450 
Q 2477 3450 2761 3203 
Q 3046 2957 3046 2534 
L 3046 0 
L 2515 0 
L 2515 2323 
z
" transform="scale(0.015625)"/>
     </defs>
     <use xlink:href="#FreeSans-53"/>
     <use xlink:href="#FreeSans-74" x="66.699997"/>
     <use xlink:href="#FreeSans-61" x="94.699982"/>
     <use xlink:href="#FreeSans-6e" x="148.999969"/>
     <use xlink:href="#FreeSans-64" x="202.699966"/>
     <use xlink:href="#FreeSans-61" x="258.59996"/>
     <use xlink:href="#FreeSans-72" x="312.899948"/>
     <use xlink:href="#FreeSans-64" x="346.099945"/>
     <use xlink:href="#FreeSans-69" x="401.999939"/>
     <use xlink:href="#FreeSans-7a" x="424.199936"/>
     <use xlink:href="#FreeSans-65" x="472.799927"/>
     <use xlink:href="#FreeSans-64" x="526.099915"/>
     <use xlink:href="#FreeSans-20" x="581.999908"/>
     <use xlink:href="#FreeSans-41" x="606.999893"/>
     <use xlink:href="#FreeSans-6d" x="673.599884"/>
     <use xlink:href="#FreeSans-70" x="754.799866"/>
     <use xlink:href="#FreeSans-6c" x="810.69986"/>
     <use xlink:href="#FreeSans-69" x="832.099854"/>
     <use xlink:href="#FreeSans-74" x="854.29985"/>
     <use xlink:href="#FreeSans-75" x="882.299835"/>
     <use xlink:href="#FreeSans-64" x="935.999832"/>
     <use xlink:href="#FreeSans-65" x="991.899826"/>
     <use xlink:href="#FreeSans-20" x="1045.199814"/>
     <use xlink:href="#FreeSans-44" x="1070.199799"/>
     <use xlink:href="#FreeSans-69" x="1139.999786"/>
     <use xlink:href="#FreeSans-73" x="1162.199783"/>
     <use xlink:href="#FreeSans-74" x="1211.499771"/>
     <use xlink:href="#FreeSans-72" x="1239.499756"/>
     <use xlink:href="#FreeSans-69" x="1272.699753"/>
     <use xlink:href="#FreeSans-62" x="1294.89975"/>
     <use xlink:href="#FreeSans-75" x="1350.799744"/>
     <use xlink:href="#FreeSans-74" x="1404.499741"/>
     <use xlink:href="#FreeSans-69" x="1432.499725"/>
     <use xlink:href="#FreeSans-6f" x="1454.699722"/>
     <use xlink:href="#FreeSans-6e" x="1508.099716"/>
     <use xlink:href="#FreeSans-73" x="1561.799713"/>
     <use xlink:href="#FreeSans-20" x="1611.099701"/>
     <use xlink:href="#FreeSans-6f" x="1636.099686"/>
     <use xlink:href="#FreeSans-66" x="1689.49968"/>
     <use xlink:href="#FreeSans-20" x="1717.499664"/>
     <use xlink:href="#FreeSans-43" x="1742.499649"/>
     <use xlink:href="#FreeSans-6c" x="1813.399643"/>
     <use xlink:href="#FreeSans-65" x="1834.799637"/>
     <use xlink:href="#FreeSans-61" x="1888.099625"/>
     <use xlink:href="#FreeSans-6e" x="1942.399612"/>
     <use xlink:href="#FreeSans-2c" x="1996.099609"/>
     <use xlink:href="#FreeSans-20" x="2023.899597"/>
     <use xlink:href="#FreeSans-47" x="2048.899582"/>
     <use xlink:href="#FreeSans-6c" x="2125.399567"/>
     <use xlink:href="#FreeSans-69" x="2146.799561"/>
     <use xlink:href="#FreeSans-74" x="2168.999557"/>
     <use xlink:href="#FreeSans-63" x="2196.999542"/>
     <use xlink:href="#FreeSans-68" x="2247.599533"/>
     <use xlink:href="#FreeSans-2c" x="2301.199524"/>
     <use xlink:href="#FreeSans-20" x="2328.999512"/>
     <use xlink:href="#FreeSans-61" x="2353.999496"/>
     <use xlink:href="#FreeSans-6e" x="2408.299484"/>
     <use xlink:href="#FreeSans-64" x="2461.999481"/>
     <use xlink:href="#FreeSans-20" x="2517.899475"/>
     <use xlink:href="#FreeSans-47" x="2542.89946"/>
     <use xlink:href="#FreeSans-61" x="2619.399445"/>
     <use xlink:href="#FreeSans-75" x="2673.699432"/>
     <use xlink:href="#FreeSans-73" x="2727.399429"/>
     <use xlink:href="#FreeSans-73" x="2776.699417"/>
     <use xlink:href="#FreeSans-69" x="2825.999405"/>
     <use xlink:href="#FreeSans-61" x="2848.199402"/>
     <use xlink:href="#FreeSans-6e" x="2902.49939"/>
     <use xlink:href="#FreeSans-20" x="2956.199387"/>
     <use xlink:href="#FreeSans-53" x="2981.199371"/>
     <use xlink:href="#FreeSans-61" x="3047.899368"/>
     <use xlink:href="#FreeSans-6d" x="3102.199356"/>
     <use xlink:href="#FreeSans-70" x="3183.399338"/>
     <use xlink:href="#FreeSans-6c" x="3239.299332"/>
     <use xlink:href="#FreeSans-65" x="3260.699326"/>
     <use xlink:href="#FreeSans-73" x="3313.999313"/>
    </g>
   </g>
   <g id="legend_1">
    <g id="patch_10">
     <path d="M 451.87875 113.818125 
L 642 113.818125 
L 642 57.84 
L 451.87875 57.84 
z
" style="fill: #ffffff; opacity: 0.8; stroke: #808080; stroke-linejoin: miter"/>
    </g>
    <g id="patch_11">
     <path d="M 456.67875 71.53125 
L 468.67875 71.53125 
L 468.67875 63.13125 
L 456.67875 63.13125 
L 456.67875 71.53125 
z
" style="fill: none; stroke: #1f77b4; stroke-linejoin: miter"/>
    </g>
    <g id="text_19">
     <!-- Random Glitch Sample -->
     <g transform="translate(478.27875 71.53125) scale(0.12 -0.12)">
      <defs>
       <path id="FreeSans-52" d="M 3347 2304 
Q 3552 2214 3689 2092 
Q 3827 1971 3888 1817 
Q 3949 1664 3968 1529 
Q 3987 1395 3987 1210 
Q 3987 1152 3984 1043 
Q 3981 934 3981 883 
Q 3981 621 4038 441 
Q 4096 262 4262 147 
L 4262 0 
L 3539 0 
Q 3411 294 3411 762 
L 3411 1178 
Q 3411 1606 3225 1808 
Q 3040 2010 2643 2010 
L 1107 2010 
L 1107 0 
L 512 0 
L 512 4666 
L 2662 4666 
Q 3347 4666 3715 4342 
Q 4083 4019 4083 3418 
Q 4083 3021 3910 2758 
Q 3738 2496 3347 2304 
z
M 3462 3334 
Q 3462 3795 3219 3968 
Q 2976 4141 2547 4141 
L 1107 4141 
L 1107 2534 
L 2547 2534 
Q 3021 2534 3241 2726 
Q 3462 2918 3462 3334 
z
" transform="scale(0.015625)"/>
      </defs>
      <use xlink:href="#FreeSans-52"/>
      <use xlink:href="#FreeSans-61" x="70.899994"/>
      <use xlink:href="#FreeSans-6e" x="125.199982"/>
      <use xlink:href="#FreeSans-64" x="178.899979"/>
      <use xlink:href="#FreeSans-6f" x="234.799973"/>
      <use xlink:href="#FreeSans-6d" x="288.199966"/>
      <use xlink:href="#FreeSans-20" x="369.399948"/>
      <use xlink:href="#FreeSans-47" x="394.399933"/>
      <use xlink:href="#FreeSans-6c" x="470.899918"/>
      <use xlink:href="#FreeSans-69" x="492.299911"/>
      <use xlink:href="#FreeSans-74" x="514.499908"/>
      <use xlink:href="#FreeSans-63" x="542.499893"/>
      <use xlink:href="#FreeSans-68" x="593.099884"/>
      <use xlink:href="#FreeSans-20" x="646.699875"/>
      <use xlink:href="#FreeSans-53" x="671.69986"/>
      <use xlink:href="#FreeSans-61" x="738.399857"/>
      <use xlink:href="#FreeSans-6d" x="792.699844"/>
      <use xlink:href="#FreeSans-70" x="873.899826"/>
      <use xlink:href="#FreeSans-6c" x="929.79982"/>
      <use xlink:href="#FreeSans-65" x="951.199814"/>
     </g>
    </g>
    <g id="patch_12">
     <path d="M 456.67875 89.038125 
L 468.67875 89.038125 
L 468.67875 80.638125 
L 456.67875 80.638125 
L 456.67875 89.038125 
z
" style="fill: none; stroke: #ff7f0e; stroke-linejoin: miter"/>
    </g>
    <g id="text_20">
     <!-- Random Clean Sample -->
     <g transform="translate(478.27875 89.038125) scale(0.12 -0.12)">
      <use xlink:href="#FreeSans-52"/>
      <use xlink:href="#FreeSans-61" x="70.899994"/>
      <use xlink:href="#FreeSans-6e" x="125.199982"/>
      <use xlink:href="#FreeSans-64" x="178.899979"/>
      <use xlink:href="#FreeSans-6f" x="234.799973"/>
      <use xlink:href="#FreeSans-6d" x="288.199966"/>
      <use xlink:href="#FreeSans-20" x="369.399948"/>
      <use xlink:href="#FreeSans-43" x="394.399933"/>
      <use xlink:href="#FreeSans-6c" x="465.299927"/>
      <use xlink:href="#FreeSans-65" x="486.699921"/>
      <use xlink:href="#FreeSans-61" x="539.999908"/>
      <use xlink:href="#FreeSans-6e" x="594.299896"/>
      <use xlink:href="#FreeSans-20" x="647.999893"/>
      <use xlink:href="#FreeSans-53" x="672.999878"/>
      <use xlink:href="#FreeSans-61" x="739.699875"/>
      <use xlink:href="#FreeSans-6d" x="793.999863"/>
      <use xlink:href="#FreeSans-70" x="875.199844"/>
      <use xlink:href="#FreeSans-6c" x="931.099838"/>
      <use xlink:href="#FreeSans-65" x="952.499832"/>
     </g>
    </g>
    <g id="patch_13">
     <path d="M 456.67875 106.4025 
L 468.67875 106.4025 
L 468.67875 98.0025 
L 456.67875 98.0025 
L 456.67875 106.4025 
z
" style="fill: none; stroke: #2ca02c; stroke-linejoin: miter"/>
    </g>
    <g id="text_21">
     <!-- Random Gaussian Distribution -->
     <g transform="translate(478.27875 106.4025) scale(0.12 -0.12)">
      <use xlink:href="#FreeSans-52"/>
      <use xlink:href="#FreeSans-61" x="70.899994"/>
      <use xlink:href="#FreeSans-6e" x="125.199982"/>
      <use xlink:href="#FreeSans-64" x="178.899979"/>
      <use xlink:href="#FreeSans-6f" x="234.799973"/>
      <use xlink:href="#FreeSans-6d" x="288.199966"/>
      <use xlink:href="#FreeSans-20" x="369.399948"/>
      <use xlink:href="#FreeSans-47" x="394.399933"/>
      <use xlink:href="#FreeSans-61" x="470.899918"/>
      <use xlink:href="#FreeSans-75" x="525.199905"/>
      <use xlink:href="#FreeSans-73" x="578.899902"/>
      <use xlink:href="#FreeSans-73" x="628.19989"/>
      <use xlink:href="#FreeSans-69" x="677.499878"/>
      <use xlink:href="#FreeSans-61" x="699.699875"/>
      <use xlink:href="#FreeSans-6e" x="753.999863"/>
      <use xlink:href="#FreeSans-20" x="807.69986"/>
      <use xlink:href="#FreeSans-44" x="832.699844"/>
      <use xlink:href="#FreeSans-69" x="902.499832"/>
      <use xlink:href="#FreeSans-73" x="924.699829"/>
      <use xlink:href="#FreeSans-74" x="973.999817"/>
      <use xlink:href="#FreeSans-72" x="1001.999802"/>
      <use xlink:href="#FreeSans-69" x="1035.199799"/>
      <use xlink:href="#FreeSans-62" x="1057.399796"/>
      <use xlink:href="#FreeSans-75" x="1113.299789"/>
      <use xlink:href="#FreeSans-74" x="1166.999786"/>
      <use xlink:href="#FreeSans-69" x="1194.999771"/>
      <use xlink:href="#FreeSans-6f" x="1217.199768"/>
      <use xlink:href="#FreeSans-6e" x="1270.599762"/>
     </g>
    </g>
   </g>
  </g>
 </g>
 <defs>
  <clipPath id="p0381064bf3">
   <rect x="90" y="51.84" width="558" height="332.64"/>
  </clipPath>
 </defs>
</svg>
