<?xml version="1.0" encoding="utf-8" standalone="no"?>
<!DOCTYPE svg PUBLIC "-//W3C//DTD SVG 1.1//EN"
  "http://www.w3.org/Graphics/SVG/1.1/DTD/svg11.dtd">
<svg xmlns:xlink="http://www.w3.org/1999/xlink" width="720pt" height="432pt" viewBox="0 0 720 432" xmlns="http://www.w3.org/2000/svg" version="1.1">
 <metadata>
  <rdf:RDF xmlns:dc="http://purl.org/dc/elements/1.1/" xmlns:cc="http://creativecommons.org/ns#" xmlns:rdf="http://www.w3.org/1999/02/22-rdf-syntax-ns#">
   <cc:Work>
    <dc:type rdf:resource="http://purl.org/dc/dcmitype/StillImage"/>
    <dc:date>2025-11-14T13:24:15.261805</dc:date>
    <dc:format>image/svg+xml</dc:format>
    <dc:creator>
     <cc:Agent>
      <dc:title>Matplotlib v3.9.2, https://matplotlib.org/</dc:title>
     </cc:Agent>
    </dc:creator>
   </cc:Work>
  </rdf:RDF>
 </metadata>
 <defs>
  <style type="text/css">*{stroke-linejoin: round; stroke-linecap: butt}</style>
 </defs>
 <g id="figure_1">
  <g id="patch_1">
   <path d="M 0 432 
L 720 432 
L 720 0 
L 0 0 
z
" style="fill: #ffffff"/>
  </g>
  <g id="axes_1">
   <g id="patch_2">
    <path d="M 90 384.48 
L 648 384.48 
L 648 51.84 
L 90 51.84 
z
" style="fill: #ffffff"/>
   </g>
   <g id="line2d_1">
    <path d="M 115.363636 369.36 
L 171.727273 368.846776 
L 228.090909 367.472097 
L 284.454545 365.266531 
L 340.818182 360.70969 
L 397.181818 351.270544 
L 453.545455 331.550935 
L 509.909091 293.808593 
L 566.272727 218.028937 
L 622.636364 66.96 
" clip-path="url(#paf840813c1)" style="fill: none; stroke: #0000ff; stroke-width: 1.5; stroke-linecap: square"/>
    <defs>
     <path id="m47e6a431fa" d="M 0 3 
C 0.795609 3 1.55874 2.683901 2.12132 2.12132 
C 2.683901 1.55874 3 0.795609 3 0 
C 3 -0.795609 2.683901 -1.55874 2.12132 -2.12132 
C 1.55874 -2.683901 0.795609 -3 0 -3 
C -0.795609 -3 -1.55874 -2.683901 -2.12132 -2.12132 
C -2.683901 -1.55874 -3 -0.795609 -3 0 
C -3 0.795609 -2.683901 1.55874 -2.12132 2.12132 
C -1.55874 2.683901 -0.795609 3 0 3 
z
" style="stroke: #0000ff"/>
    </defs>
    <g clip-path="url(#paf840813c1)">
     <use xlink:href="#m47e6a431fa" x="115.363636" y="369.36" style="fill: #0000ff; stroke: #0000ff"/>
     <use xlink:href="#m47e6a431fa" x="171.727273" y="368.846776" style="fill: #0000ff; stroke: #0000ff"/>
     <use xlink:href="#m47e6a431fa" x="228.090909" y="367.472097" style="fill: #0000ff; stroke: #0000ff"/>
     <use xlink:href="#m47e6a431fa" x="284.454545" y="365.266531" style="fill: #0000ff; stroke: #0000ff"/>
     <use xlink:href="#m47e6a431fa" x="340.818182" y="360.70969" style="fill: #0000ff; stroke: #0000ff"/>
     <use xlink:href="#m47e6a431fa" x="397.181818" y="351.270544" style="fill: #0000ff; stroke: #0000ff"/>
     <use xlink:href="#m47e6a431fa" x="453.545455" y="331.550935" style="fill: #0000ff; stroke: #0000ff"/>
     <use xlink:href="#m47e6a431fa" x="509.909091" y="293.808593" style="fill: #0000ff; stroke: #0000ff"/>
     <use xlink:href="#m47e6a431fa" x="566.272727" y="218.028937" style="fill: #0000ff; stroke: #0000ff"/>
     <use xlink:href="#m47e6a431fa" x="622.636364" y="66.96" style="fill: #0000ff; stroke: #0000ff"/>
    </g>
   </g>
   <g id="patch_3">
    <path d="M 90 384.48 
L 90 51.84 
" style="fill: none; stroke: #808080; stroke-width: 0.8; stroke-linejoin: miter; stroke-linecap: square"/>
   </g>
   <g id="patch_4">
    <path d="M 648 384.48 
L 648 51.84 
" style="fill: none; stroke: #808080; stroke-width: 0.8; stroke-linejoin: miter; stroke-linecap: square"/>
   </g>
   <g id="patch_5">
    <path d="M 90 384.48 
L 648 384.48 
" style="fill: none; stroke: #808080; stroke-width: 0.8; stroke-linejoin: miter; stroke-linecap: square"/>
   </g>
   <g id="patch_6">
    <path d="M 90 51.84 
L 648 51.84 
" style="fill: none; stroke: #808080; stroke-width: 0.8; stroke-linejoin: miter; stroke-linecap: square"/>
   </g>
   <g id="matplotlib.axis_1">
    <g id="xtick_1">
     <g id="line2d_2">
      <path d="M 115.363636 384.48 
L 115.363636 51.84 
" clip-path="url(#paf840813c1)" style="fill: none; stroke: #b0b0b0; stroke-width: 0.5; stroke-linecap: square"/>
     </g>
     <g id="line2d_3">
      <defs>
       <path id="m9ad402a69f" d="M 0 0 
L 0 3.5 
" style="stroke: #000000; stroke-width: 0.8"/>
      </defs>
      <g>
       <use xlink:href="#m9ad402a69f" x="115.363636" y="384.48" style="stroke: #000000; stroke-width: 0.8"/>
      </g>
     </g>
     <g id="text_1">
      <!-- $\mathdefault{2}$ -->
      <g transform="translate(112.003636 400.22875) scale(0.12 -0.12)">
       <defs>
        <path id="FreeSans-32" d="M 320 2963 
Q 365 4538 1818 4538 
Q 2464 4538 2867 4166 
Q 3270 3795 3270 3206 
Q 3270 2362 2310 1837 
L 1670 1491 
Q 1254 1267 1075 1056 
Q 896 845 851 557 
L 3238 557 
L 3238 0 
L 218 0 
Q 256 749 518 1155 
Q 781 1562 1491 1965 
L 2080 2298 
Q 2694 2650 2694 3194 
Q 2694 3558 2438 3801 
Q 2182 4045 1798 4045 
Q 947 4045 883 2963 
L 320 2963 
z
" transform="scale(0.015625)"/>
       </defs>
       <use xlink:href="#FreeSans-32" transform="translate(0 0.09375)"/>
      </g>
     </g>
    </g>
    <g id="xtick_2">
     <g id="line2d_4">
      <path d="M 171.727273 384.48 
L 171.727273 51.84 
" clip-path="url(#paf840813c1)" style="fill: none; stroke: #b0b0b0; stroke-width: 0.5; stroke-linecap: square"/>
     </g>
     <g id="line2d_5">
      <g>
       <use xlink:href="#m9ad402a69f" x="171.727273" y="384.48" style="stroke: #000000; stroke-width: 0.8"/>
      </g>
     </g>
     <g id="text_2">
      <!-- $\mathdefault{4}$ -->
      <g transform="translate(168.367273 400.22875) scale(0.12 -0.12)">
       <defs>
        <path id="FreeSans-34" d="M 2093 1088 
L 179 1088 
L 179 1683 
L 2240 4538 
L 2656 4538 
L 2656 1594 
L 3328 1594 
L 3328 1088 
L 2656 1088 
L 2656 0 
L 2093 0 
L 2093 1088 
z
M 2093 1594 
L 2093 3578 
L 672 1594 
L 2093 1594 
z
" transform="scale(0.015625)"/>
       </defs>
       <use xlink:href="#FreeSans-34" transform="translate(0 0.09375)"/>
      </g>
     </g>
    </g>
    <g id="xtick_3">
     <g id="line2d_6">
      <path d="M 228.090909 384.48 
L 228.090909 51.84 
" clip-path="url(#paf840813c1)" style="fill: none; stroke: #b0b0b0; stroke-width: 0.5; stroke-linecap: square"/>
     </g>
     <g id="line2d_7">
      <g>
       <use xlink:href="#m9ad402a69f" x="228.090909" y="384.48" style="stroke: #000000; stroke-width: 0.8"/>
      </g>
     </g>
     <g id="text_3">
      <!-- $\mathdefault{8}$ -->
      <g transform="translate(224.730909 400.22875) scale(0.12 -0.12)">
       <defs>
        <path id="FreeSans-38" d="M 2502 2387 
Q 3283 2016 3283 1254 
Q 3283 634 2857 243 
Q 2432 -147 1760 -147 
Q 1318 -147 969 29 
Q 621 205 429 528 
Q 237 851 237 1261 
Q 237 2016 1011 2387 
Q 666 2605 531 2809 
Q 397 3014 397 3328 
Q 397 3859 777 4198 
Q 1158 4538 1760 4538 
Q 2362 4538 2742 4198 
Q 3123 3859 3123 3328 
Q 3123 3008 2988 2803 
Q 2854 2598 2502 2387 
z
M 2332 3843 
Q 2118 4038 1760 4038 
Q 1402 4038 1187 3843 
Q 973 3648 973 3322 
Q 973 3002 1187 2806 
Q 1402 2611 1760 2611 
Q 2112 2611 2329 2803 
Q 2547 2995 2547 3315 
Q 2547 3648 2332 3843 
z
M 2444 1891 
Q 2182 2138 1760 2138 
Q 1338 2138 1075 1891 
Q 813 1645 813 1248 
Q 813 851 1072 601 
Q 1331 352 1747 352 
Q 2176 352 2441 598 
Q 2707 845 2707 1248 
Q 2707 1645 2444 1891 
z
" transform="scale(0.015625)"/>
       </defs>
       <use xlink:href="#FreeSans-38" transform="translate(0 0.09375)"/>
      </g>
     </g>
    </g>
    <g id="xtick_4">
     <g id="line2d_8">
      <path d="M 284.454545 384.48 
L 284.454545 51.84 
" clip-path="url(#paf840813c1)" style="fill: none; stroke: #b0b0b0; stroke-width: 0.5; stroke-linecap: square"/>
     </g>
     <g id="line2d_9">
      <g>
       <use xlink:href="#m9ad402a69f" x="284.454545" y="384.48" style="stroke: #000000; stroke-width: 0.8"/>
      </g>
     </g>
     <g id="text_4">
      <!-- $\mathdefault{16}$ -->
      <g transform="translate(277.734545 400.22875) scale(0.12 -0.12)">
       <defs>
        <path id="FreeSans-31" d="M 1658 3232 
L 653 3232 
L 653 3635 
Q 1306 3718 1504 3865 
Q 1702 4013 1850 4538 
L 2221 4538 
L 2221 0 
L 1658 0 
L 1658 3232 
z
" transform="scale(0.015625)"/>
        <path id="FreeSans-36" d="M 275 2067 
Q 275 2669 384 3126 
Q 493 3584 656 3846 
Q 819 4109 1046 4272 
Q 1274 4435 1475 4486 
Q 1677 4538 1901 4538 
Q 2419 4538 2761 4224 
Q 3104 3910 3187 3354 
L 2624 3354 
Q 2554 3680 2355 3859 
Q 2157 4038 1862 4038 
Q 1376 4038 1117 3593 
Q 858 3149 851 2317 
Q 1222 2822 1894 2822 
Q 2502 2822 2892 2419 
Q 3283 2016 3283 1382 
Q 3283 941 3094 592 
Q 2906 243 2566 48 
Q 2227 -147 1798 -147 
Q 275 -147 275 2067 
z
M 1824 2323 
Q 1408 2323 1145 2057 
Q 883 1792 883 1370 
Q 883 934 1145 643 
Q 1408 352 1805 352 
Q 2195 352 2451 630 
Q 2707 909 2707 1338 
Q 2707 1792 2470 2057 
Q 2234 2323 1824 2323 
z
" transform="scale(0.015625)"/>
       </defs>
       <use xlink:href="#FreeSans-31" transform="translate(0 0.09375)"/>
       <use xlink:href="#FreeSans-36" transform="translate(55.599991 0.09375)"/>
      </g>
     </g>
    </g>
    <g id="xtick_5">
     <g id="line2d_10">
      <path d="M 340.818182 384.48 
L 340.818182 51.84 
" clip-path="url(#paf840813c1)" style="fill: none; stroke: #b0b0b0; stroke-width: 0.5; stroke-linecap: square"/>
     </g>
     <g id="line2d_11">
      <g>
       <use xlink:href="#m9ad402a69f" x="340.818182" y="384.48" style="stroke: #000000; stroke-width: 0.8"/>
      </g>
     </g>
     <g id="text_5">
      <!-- $\mathdefault{32}$ -->
      <g transform="translate(334.098182 400.22875) scale(0.12 -0.12)">
       <defs>
        <path id="FreeSans-33" d="M 1728 4045 
Q 1242 4045 1059 3779 
Q 877 3514 864 3072 
L 301 3072 
Q 333 4538 1722 4538 
Q 2368 4538 2736 4205 
Q 3104 3872 3104 3290 
Q 3104 2598 2470 2349 
Q 2880 2208 3059 1955 
Q 3238 1702 3238 1267 
Q 3238 621 2819 237 
Q 2400 -147 1702 -147 
Q 992 -147 624 214 
Q 256 576 205 1318 
L 768 1318 
Q 800 826 1030 589 
Q 1261 352 1722 352 
Q 2163 352 2412 592 
Q 2662 832 2662 1261 
Q 2662 2086 1722 2086 
L 1485 2080 
L 1414 2080 
L 1414 2560 
Q 2022 2573 2275 2713 
Q 2528 2854 2528 3270 
Q 2528 3629 2313 3837 
Q 2099 4045 1728 4045 
z
" transform="scale(0.015625)"/>
       </defs>
       <use xlink:href="#FreeSans-33" transform="translate(0 0.09375)"/>
       <use xlink:href="#FreeSans-32" transform="translate(55.599991 0.09375)"/>
      </g>
     </g>
    </g>
    <g id="xtick_6">
     <g id="line2d_12">
      <path d="M 397.181818 384.48 
L 397.181818 51.84 
" clip-path="url(#paf840813c1)" style="fill: none; stroke: #b0b0b0; stroke-width: 0.5; stroke-linecap: square"/>
     </g>
     <g id="line2d_13">
      <g>
       <use xlink:href="#m9ad402a69f" x="397.181818" y="384.48" style="stroke: #000000; stroke-width: 0.8"/>
      </g>
     </g>
     <g id="text_6">
      <!-- $\mathdefault{64}$ -->
      <g transform="translate(390.461818 400.22875) scale(0.12 -0.12)">
       <use xlink:href="#FreeSans-36" transform="translate(0 0.09375)"/>
       <use xlink:href="#FreeSans-34" transform="translate(55.599991 0.09375)"/>
      </g>
     </g>
    </g>
    <g id="xtick_7">
     <g id="line2d_14">
      <path d="M 453.545455 384.48 
L 453.545455 51.84 
" clip-path="url(#paf840813c1)" style="fill: none; stroke: #b0b0b0; stroke-width: 0.5; stroke-linecap: square"/>
     </g>
     <g id="line2d_15">
      <g>
       <use xlink:href="#m9ad402a69f" x="453.545455" y="384.48" style="stroke: #000000; stroke-width: 0.8"/>
      </g>
     </g>
     <g id="text_7">
      <!-- $\mathdefault{128}$ -->
      <g transform="translate(443.525455 400.22875) scale(0.12 -0.12)">
       <use xlink:href="#FreeSans-31" transform="translate(0 0.09375)"/>
       <use xlink:href="#FreeSans-32" transform="translate(55.599991 0.09375)"/>
       <use xlink:href="#FreeSans-38" transform="translate(111.199982 0.09375)"/>
      </g>
     </g>
    </g>
    <g id="xtick_8">
     <g id="line2d_16">
      <path d="M 509.909091 384.48 
L 509.909091 51.84 
" clip-path="url(#paf840813c1)" style="fill: none; stroke: #b0b0b0; stroke-width: 0.5; stroke-linecap: square"/>
     </g>
     <g id="line2d_17">
      <g>
       <use xlink:href="#m9ad402a69f" x="509.909091" y="384.48" style="stroke: #000000; stroke-width: 0.8"/>
      </g>
     </g>
     <g id="text_8">
      <!-- $\mathdefault{256}$ -->
      <g transform="translate(499.889091 400.22875) scale(0.12 -0.12)">
       <defs>
        <path id="FreeSans-35" d="M 3046 4538 
L 3046 3981 
L 1158 3981 
L 979 2714 
Q 1357 2989 1818 2989 
Q 2470 2989 2876 2569 
Q 3283 2150 3283 1478 
Q 3283 1005 3084 633 
Q 2886 262 2534 57 
Q 2182 -147 1728 -147 
Q 1466 -147 1245 -89 
Q 1024 -32 880 48 
Q 736 128 617 259 
Q 499 390 438 489 
Q 378 589 323 739 
Q 269 890 256 947 
Q 243 1005 224 1114 
L 787 1114 
Q 986 352 1715 352 
Q 2176 352 2441 633 
Q 2707 915 2707 1402 
Q 2707 1907 2438 2198 
Q 2170 2490 1715 2490 
Q 1453 2490 1267 2397 
Q 1082 2304 883 2067 
L 365 2067 
L 704 4538 
L 3046 4538 
z
" transform="scale(0.015625)"/>
       </defs>
       <use xlink:href="#FreeSans-32" transform="translate(0 0.09375)"/>
       <use xlink:href="#FreeSans-35" transform="translate(55.599991 0.09375)"/>
       <use xlink:href="#FreeSans-36" transform="translate(111.199982 0.09375)"/>
      </g>
     </g>
    </g>
    <g id="xtick_9">
     <g id="line2d_18">
      <path d="M 566.272727 384.48 
L 566.272727 51.84 
" clip-path="url(#paf840813c1)" style="fill: none; stroke: #b0b0b0; stroke-width: 0.5; stroke-linecap: square"/>
     </g>
     <g id="line2d_19">
      <g>
       <use xlink:href="#m9ad402a69f" x="566.272727" y="384.48" style="stroke: #000000; stroke-width: 0.8"/>
      </g>
     </g>
     <g id="text_9">
      <!-- $\mathdefault{512}$ -->
      <g transform="translate(556.252727 400.22875) scale(0.12 -0.12)">
       <use xlink:href="#FreeSans-35" transform="translate(0 0.09375)"/>
       <use xlink:href="#FreeSans-31" transform="translate(55.599991 0.09375)"/>
       <use xlink:href="#FreeSans-32" transform="translate(111.199982 0.09375)"/>
      </g>
     </g>
    </g>
    <g id="xtick_10">
     <g id="line2d_20">
      <path d="M 622.636364 384.48 
L 622.636364 51.84 
" clip-path="url(#paf840813c1)" style="fill: none; stroke: #b0b0b0; stroke-width: 0.5; stroke-linecap: square"/>
     </g>
     <g id="line2d_21">
      <g>
       <use xlink:href="#m9ad402a69f" x="622.636364" y="384.48" style="stroke: #000000; stroke-width: 0.8"/>
      </g>
     </g>
     <g id="text_10">
      <!-- $\mathdefault{1024}$ -->
      <g transform="translate(609.256364 400.22875) scale(0.12 -0.12)">
       <defs>
        <path id="FreeSans-30" d="M 275 2195 
Q 275 2765 371 3200 
Q 467 3635 614 3881 
Q 762 4128 966 4281 
Q 1171 4435 1360 4486 
Q 1549 4538 1760 4538 
Q 3245 4538 3245 2157 
Q 3245 1600 3149 1168 
Q 3053 736 2864 445 
Q 2675 154 2396 3 
Q 2118 -147 1760 -147 
Q 1030 -147 652 451 
Q 275 1050 275 2195 
z
M 2669 2208 
Q 2669 4038 1760 4038 
Q 851 4038 851 2189 
Q 851 1568 950 1152 
Q 1050 736 1251 528 
Q 1453 320 1747 320 
Q 2221 320 2445 781 
Q 2669 1242 2669 2208 
z
" transform="scale(0.015625)"/>
       </defs>
       <use xlink:href="#FreeSans-31" transform="translate(0 0.09375)"/>
       <use xlink:href="#FreeSans-30" transform="translate(55.599991 0.09375)"/>
       <use xlink:href="#FreeSans-32" transform="translate(111.199982 0.09375)"/>
       <use xlink:href="#FreeSans-34" transform="translate(166.799973 0.09375)"/>
      </g>
     </g>
    </g>
    <g id="text_11">
     <!-- Sample Count -->
     <g transform="translate(325.772812 418.2175) scale(0.14 -0.14)">
      <defs>
       <path id="FreeSans-53" d="M 2189 378 
Q 2547 378 2796 461 
Q 3046 544 3164 678 
Q 3283 813 3331 944 
Q 3379 1075 3379 1222 
Q 3379 1754 2522 1978 
L 1363 2285 
Q 902 2406 675 2675 
Q 448 2944 448 3373 
Q 448 4006 893 4374 
Q 1338 4742 2106 4742 
Q 2912 4742 3360 4361 
Q 3808 3981 3814 3296 
L 3251 3296 
Q 3245 3750 2944 3996 
Q 2643 4243 2086 4243 
Q 1613 4243 1328 4025 
Q 1043 3808 1043 3456 
Q 1043 3187 1216 3033 
Q 1389 2880 1811 2765 
L 2982 2451 
Q 3456 2323 3715 2016 
Q 3974 1709 3974 1280 
Q 3974 1094 3926 912 
Q 3878 730 3750 534 
Q 3622 339 3424 192 
Q 3226 45 2896 -51 
Q 2566 -147 2150 -147 
Q 1888 -147 1648 -105 
Q 1408 -64 1158 48 
Q 909 160 729 336 
Q 550 512 432 806 
Q 314 1101 307 1485 
L 870 1485 
L 870 1453 
Q 870 1254 931 1081 
Q 992 909 1129 742 
Q 1267 576 1539 477 
Q 1811 378 2189 378 
z
" transform="scale(0.015625)"/>
       <path id="FreeSans-61" d="M 339 2362 
Q 378 3450 1683 3450 
Q 2304 3450 2624 3216 
Q 2944 2982 2944 2534 
L 2944 563 
Q 2944 301 3232 301 
Q 3290 301 3347 314 
L 3347 -90 
Q 3123 -147 2982 -147 
Q 2726 -147 2595 -28 
Q 2464 90 2432 346 
Q 2150 83 1878 -32 
Q 1606 -147 1293 -147 
Q 954 -147 707 -25 
Q 461 96 326 320 
Q 192 544 192 845 
Q 192 992 221 1113 
Q 250 1235 285 1328 
Q 320 1421 409 1501 
Q 499 1581 560 1632 
Q 621 1683 765 1731 
Q 909 1779 985 1801 
Q 1062 1824 1254 1856 
Q 1446 1888 1536 1901 
Q 1626 1914 1856 1946 
Q 2170 1984 2291 2067 
Q 2413 2150 2413 2317 
L 2413 2458 
Q 2413 2701 2217 2829 
Q 2022 2957 1664 2957 
Q 1293 2957 1101 2813 
Q 909 2669 877 2362 
L 339 2362 
z
M 1408 320 
Q 1850 320 2131 553 
Q 2413 787 2413 1056 
L 2413 1658 
Q 2253 1581 1929 1529 
Q 1606 1478 1369 1440 
Q 1133 1402 941 1258 
Q 749 1114 749 858 
Q 749 602 921 461 
Q 1094 320 1408 320 
z
" transform="scale(0.015625)"/>
       <path id="FreeSans-6d" d="M 384 3354 
L 877 3354 
L 877 2880 
Q 1094 3181 1334 3315 
Q 1574 3450 1907 3450 
Q 2528 3450 2810 2938 
Q 3046 3219 3276 3334 
Q 3507 3450 3840 3450 
Q 4307 3450 4560 3210 
Q 4813 2970 4813 2515 
L 4813 0 
L 4275 0 
L 4275 2310 
Q 4275 2630 4112 2806 
Q 3949 2982 3654 2982 
Q 3328 2982 3097 2726 
Q 2867 2470 2867 2106 
L 2867 0 
L 2330 0 
L 2330 2310 
Q 2330 2630 2166 2806 
Q 2003 2982 1709 2982 
Q 1382 2982 1152 2726 
Q 922 2470 922 2106 
L 922 0 
L 384 0 
L 384 3354 
z
" transform="scale(0.015625)"/>
       <path id="FreeSans-70" d="M 384 -1395 
L 384 3354 
L 877 3354 
L 877 2848 
Q 1254 3450 1946 3450 
Q 2611 3450 2998 2957 
Q 3386 2464 3386 1619 
Q 3386 1222 3283 892 
Q 3181 563 2995 336 
Q 2810 109 2541 -19 
Q 2272 -147 1952 -147 
Q 1331 -147 922 352 
L 922 -1395 
L 384 -1395 
z
M 1856 2950 
Q 1434 2950 1178 2595 
Q 922 2240 922 1651 
Q 922 1062 1178 707 
Q 1434 352 1856 352 
Q 2291 352 2560 707 
Q 2829 1062 2829 1632 
Q 2829 2234 2563 2592 
Q 2298 2950 1856 2950 
z
" transform="scale(0.015625)"/>
       <path id="FreeSans-6c" d="M 922 4666 
L 922 0 
L 384 0 
L 384 4666 
L 922 4666 
z
" transform="scale(0.015625)"/>
       <path id="FreeSans-65" d="M 3219 1498 
L 749 1498 
Q 762 973 1021 659 
Q 1280 346 1734 346 
Q 2387 346 2611 1018 
L 3149 1018 
Q 3046 467 2668 160 
Q 2291 -147 1715 -147 
Q 1011 -147 601 329 
Q 192 806 192 1632 
Q 192 2458 611 2954 
Q 1030 3450 1728 3450 
Q 3219 3450 3219 1498 
z
M 762 1933 
L 2650 1933 
Q 2650 2368 2387 2662 
Q 2125 2957 1721 2957 
Q 1318 2957 1056 2678 
Q 794 2400 762 1933 
z
" transform="scale(0.015625)"/>
       <path id="FreeSans-20" transform="scale(0.015625)"/>
       <path id="FreeSans-43" d="M 256 2278 
Q 256 2598 310 2912 
Q 365 3226 518 3565 
Q 672 3904 899 4157 
Q 1126 4410 1513 4576 
Q 1901 4742 2387 4742 
Q 3910 4742 4186 3219 
L 3578 3219 
Q 3475 3718 3174 3968 
Q 2874 4218 2317 4218 
Q 1638 4218 1244 3699 
Q 851 3181 851 2285 
Q 851 1709 1036 1277 
Q 1222 845 1564 611 
Q 1907 378 2368 378 
Q 2944 378 3251 701 
Q 3558 1024 3667 1702 
L 4282 1702 
Q 4211 1088 3974 675 
Q 3738 262 3334 57 
Q 2931 -147 2362 -147 
Q 1882 -147 1501 16 
Q 1120 179 893 428 
Q 666 678 515 1014 
Q 365 1350 310 1657 
Q 256 1965 256 2278 
z
" transform="scale(0.015625)"/>
       <path id="FreeSans-6f" d="M 1702 3450 
Q 2426 3450 2826 2973 
Q 3226 2496 3226 1626 
Q 3226 1216 3120 883 
Q 3014 550 2819 323 
Q 2624 96 2342 -25 
Q 2061 -147 1709 -147 
Q 992 -147 592 329 
Q 192 806 192 1651 
Q 192 2496 595 2973 
Q 998 3450 1702 3450 
z
M 1709 2957 
Q 1261 2957 1005 2608 
Q 749 2259 749 1651 
Q 749 1043 1005 694 
Q 1261 346 1709 346 
Q 2150 346 2409 694 
Q 2669 1043 2669 1632 
Q 2669 2253 2416 2605 
Q 2163 2957 1709 2957 
z
" transform="scale(0.015625)"/>
       <path id="FreeSans-75" d="M 3053 0 
L 2573 0 
L 2573 467 
Q 2336 134 2080 -6 
Q 1824 -147 1453 -147 
Q 966 -147 675 102 
Q 384 352 384 768 
L 384 3354 
L 915 3354 
L 915 979 
Q 915 678 1100 499 
Q 1286 320 1606 320 
Q 2022 320 2272 630 
Q 2522 941 2522 1453 
L 2522 3354 
L 3053 3354 
L 3053 0 
z
" transform="scale(0.015625)"/>
       <path id="FreeSans-6e" d="M 384 3354 
L 877 3354 
L 877 2790 
Q 1101 3142 1360 3296 
Q 1619 3450 1990 3450 
Q 2477 3450 2765 3200 
Q 3053 2950 3053 2534 
L 3053 0 
L 2522 0 
L 2522 2323 
Q 2522 2624 2336 2803 
Q 2150 2982 1830 2982 
Q 1421 2982 1171 2672 
Q 922 2362 922 1850 
L 922 0 
L 384 0 
L 384 3354 
z
" transform="scale(0.015625)"/>
       <path id="FreeSans-74" d="M 1664 3354 
L 1664 2918 
L 1114 2918 
L 1114 621 
Q 1114 442 1174 381 
Q 1235 320 1408 320 
Q 1568 320 1664 346 
L 1664 -102 
Q 1414 -147 1229 -147 
Q 915 -147 748 -9 
Q 582 128 582 384 
L 582 2918 
L 128 2918 
L 128 3354 
L 582 3354 
L 582 4275 
L 1114 4275 
L 1114 3354 
L 1664 3354 
z
" transform="scale(0.015625)"/>
      </defs>
      <use xlink:href="#FreeSans-53"/>
      <use xlink:href="#FreeSans-61" x="66.699997"/>
      <use xlink:href="#FreeSans-6d" x="120.999985"/>
      <use xlink:href="#FreeSans-70" x="202.199966"/>
      <use xlink:href="#FreeSans-6c" x="258.09996"/>
      <use xlink:href="#FreeSans-65" x="279.499954"/>
      <use xlink:href="#FreeSans-20" x="332.799942"/>
      <use xlink:href="#FreeSans-43" x="357.799927"/>
      <use xlink:href="#FreeSans-6f" x="428.699921"/>
      <use xlink:href="#FreeSans-75" x="482.099915"/>
      <use xlink:href="#FreeSans-6e" x="535.799911"/>
      <use xlink:href="#FreeSans-74" x="589.499908"/>
     </g>
    </g>
   </g>
   <g id="matplotlib.axis_2">
    <g id="ytick_1">
     <g id="line2d_22">
      <path d="M 90 369.951969 
L 648 369.951969 
" clip-path="url(#paf840813c1)" style="fill: none; stroke: #b0b0b0; stroke-width: 0.5; stroke-linecap: square"/>
     </g>
     <g id="line2d_23">
      <defs>
       <path id="m5869ad9851" d="M 0 0 
L -3.5 0 
" style="stroke: #000000; stroke-width: 0.8"/>
      </defs>
      <g>
       <use xlink:href="#m5869ad9851" x="90" y="369.951969" style="stroke: #000000; stroke-width: 0.8"/>
      </g>
     </g>
     <g id="text_12">
      <!-- $\mathdefault{0}$ -->
      <g transform="translate(76.28 374.326344) scale(0.12 -0.12)">
       <use xlink:href="#FreeSans-30" transform="translate(0 0.09375)"/>
      </g>
     </g>
    </g>
    <g id="ytick_2">
     <g id="line2d_24">
      <path d="M 90 323.326446 
L 648 323.326446 
" clip-path="url(#paf840813c1)" style="fill: none; stroke: #b0b0b0; stroke-width: 0.5; stroke-linecap: square"/>
     </g>
     <g id="line2d_25">
      <g>
       <use xlink:href="#m5869ad9851" x="90" y="323.326446" style="stroke: #000000; stroke-width: 0.8"/>
      </g>
     </g>
     <g id="text_13">
      <!-- $\mathdefault{100}$ -->
      <g transform="translate(62.96 327.700821) scale(0.12 -0.12)">
       <use xlink:href="#FreeSans-31" transform="translate(0 0.09375)"/>
       <use xlink:href="#FreeSans-30" transform="translate(55.599991 0.09375)"/>
       <use xlink:href="#FreeSans-30" transform="translate(111.199982 0.09375)"/>
      </g>
     </g>
    </g>
    <g id="ytick_3">
     <g id="line2d_26">
      <path d="M 90 276.700924 
L 648 276.700924 
" clip-path="url(#paf840813c1)" style="fill: none; stroke: #b0b0b0; stroke-width: 0.5; stroke-linecap: square"/>
     </g>
     <g id="line2d_27">
      <g>
       <use xlink:href="#m5869ad9851" x="90" y="276.700924" style="stroke: #000000; stroke-width: 0.8"/>
      </g>
     </g>
     <g id="text_14">
      <!-- $\mathdefault{200}$ -->
      <g transform="translate(62.96 281.075299) scale(0.12 -0.12)">
       <use xlink:href="#FreeSans-32" transform="translate(0 0.09375)"/>
       <use xlink:href="#FreeSans-30" transform="translate(55.599991 0.09375)"/>
       <use xlink:href="#FreeSans-30" transform="translate(111.199982 0.09375)"/>
      </g>
     </g>
    </g>
    <g id="ytick_4">
     <g id="line2d_28">
      <path d="M 90 230.075402 
L 648 230.075402 
" clip-path="url(#paf840813c1)" style="fill: none; stroke: #b0b0b0; stroke-width: 0.5; stroke-linecap: square"/>
     </g>
     <g id="line2d_29">
      <g>
       <use xlink:href="#m5869ad9851" x="90" y="230.075402" style="stroke: #000000; stroke-width: 0.8"/>
      </g>
     </g>
     <g id="text_15">
      <!-- $\mathdefault{300}$ -->
      <g transform="translate(62.96 234.449777) scale(0.12 -0.12)">
       <use xlink:href="#FreeSans-33" transform="translate(0 0.09375)"/>
       <use xlink:href="#FreeSans-30" transform="translate(55.599991 0.09375)"/>
       <use xlink:href="#FreeSans-30" transform="translate(111.199982 0.09375)"/>
      </g>
     </g>
    </g>
    <g id="ytick_5">
     <g id="line2d_30">
      <path d="M 90 183.44988 
L 648 183.44988 
" clip-path="url(#paf840813c1)" style="fill: none; stroke: #b0b0b0; stroke-width: 0.5; stroke-linecap: square"/>
     </g>
     <g id="line2d_31">
      <g>
       <use xlink:href="#m5869ad9851" x="90" y="183.44988" style="stroke: #000000; stroke-width: 0.8"/>
      </g>
     </g>
     <g id="text_16">
      <!-- $\mathdefault{400}$ -->
      <g transform="translate(62.96 187.824255) scale(0.12 -0.12)">
       <use xlink:href="#FreeSans-34" transform="translate(0 0.09375)"/>
       <use xlink:href="#FreeSans-30" transform="translate(55.599991 0.09375)"/>
       <use xlink:href="#FreeSans-30" transform="translate(111.199982 0.09375)"/>
      </g>
     </g>
    </g>
    <g id="ytick_6">
     <g id="line2d_32">
      <path d="M 90 136.824358 
L 648 136.824358 
" clip-path="url(#paf840813c1)" style="fill: none; stroke: #b0b0b0; stroke-width: 0.5; stroke-linecap: square"/>
     </g>
     <g id="line2d_33">
      <g>
       <use xlink:href="#m5869ad9851" x="90" y="136.824358" style="stroke: #000000; stroke-width: 0.8"/>
      </g>
     </g>
     <g id="text_17">
      <!-- $\mathdefault{500}$ -->
      <g transform="translate(62.96 141.198733) scale(0.12 -0.12)">
       <use xlink:href="#FreeSans-35" transform="translate(0 0.09375)"/>
       <use xlink:href="#FreeSans-30" transform="translate(55.599991 0.09375)"/>
       <use xlink:href="#FreeSans-30" transform="translate(111.199982 0.09375)"/>
      </g>
     </g>
    </g>
    <g id="ytick_7">
     <g id="line2d_34">
      <path d="M 90 90.198835 
L 648 90.198835 
" clip-path="url(#paf840813c1)" style="fill: none; stroke: #b0b0b0; stroke-width: 0.5; stroke-linecap: square"/>
     </g>
     <g id="line2d_35">
      <g>
       <use xlink:href="#m5869ad9851" x="90" y="90.198835" style="stroke: #000000; stroke-width: 0.8"/>
      </g>
     </g>
     <g id="text_18">
      <!-- $\mathdefault{600}$ -->
      <g transform="translate(62.96 94.57321) scale(0.12 -0.12)">
       <use xlink:href="#FreeSans-36" transform="translate(0 0.09375)"/>
       <use xlink:href="#FreeSans-30" transform="translate(55.599991 0.09375)"/>
       <use xlink:href="#FreeSans-30" transform="translate(111.199982 0.09375)"/>
      </g>
     </g>
    </g>
    <g id="text_19">
     <!-- Q-Transform calculation Time (seconds) -->
     <g transform="translate(54.908437 340.787969) rotate(-90) scale(0.14 -0.14)">
      <defs>
       <path id="FreeSans-51" d="M 4704 -6 
L 4403 -378 
L 3731 179 
Q 3181 -147 2509 -147 
Q 1498 -147 877 528 
Q 256 1203 256 2297 
Q 256 3392 877 4067 
Q 1498 4742 2509 4742 
Q 3514 4742 4138 4070 
Q 4762 3398 4762 2310 
Q 4762 1210 4102 486 
L 4704 -6 
z
M 3091 1312 
L 3661 845 
Q 4166 1414 4166 2304 
Q 4166 3162 3708 3690 
Q 3251 4218 2508 4218 
Q 1766 4218 1308 3690 
Q 851 3162 851 2298 
Q 851 1728 1056 1293 
Q 1261 858 1635 618 
Q 2010 378 2502 378 
Q 2886 378 3270 557 
L 2797 954 
L 3091 1312 
z
" transform="scale(0.015625)"/>
       <path id="FreeSans-2d" d="M 1837 1997 
L 1837 1536 
L 294 1536 
L 294 1997 
L 1837 1997 
z
" transform="scale(0.015625)"/>
       <path id="FreeSans-54" d="M 2323 4141 
L 2323 0 
L 1728 0 
L 1728 4141 
L 192 4141 
L 192 4666 
L 3853 4666 
L 3853 4141 
L 2323 4141 
z
" transform="scale(0.015625)"/>
       <path id="FreeSans-72" d="M 1997 2886 
Q 1459 2874 1190 2637 
Q 922 2400 922 1741 
L 922 0 
L 384 0 
L 384 3354 
L 877 3354 
L 877 2746 
Q 1107 3123 1321 3286 
Q 1536 3450 1792 3450 
Q 1862 3450 1997 3430 
L 1997 2886 
z
" transform="scale(0.015625)"/>
       <path id="FreeSans-73" d="M 781 998 
Q 819 698 988 522 
Q 1158 346 1600 346 
Q 1952 346 2166 490 
Q 2381 634 2381 870 
Q 2381 1056 2259 1165 
Q 2138 1274 1862 1338 
L 1363 1459 
Q 768 1600 534 1814 
Q 301 2029 301 2426 
Q 301 2893 653 3171 
Q 1005 3450 1587 3450 
Q 2170 3450 2483 3181 
Q 2797 2912 2803 2419 
L 2240 2419 
Q 2221 2957 1568 2957 
Q 1242 2957 1050 2819 
Q 858 2682 858 2451 
Q 858 2272 1005 2160 
Q 1152 2048 1478 1971 
L 1990 1850 
Q 2490 1728 2714 1507 
Q 2938 1286 2938 915 
Q 2938 595 2768 355 
Q 2598 115 2284 -16 
Q 1971 -147 1555 -147 
Q 896 -147 566 134 
Q 237 416 218 998 
L 781 998 
z
" transform="scale(0.015625)"/>
       <path id="FreeSans-66" d="M 1664 3354 
L 1664 2918 
L 1107 2918 
L 1107 0 
L 576 0 
L 576 2918 
L 128 2918 
L 128 3354 
L 576 3354 
L 576 3923 
Q 576 4282 784 4483 
Q 992 4685 1363 4685 
Q 1510 4685 1664 4653 
L 1664 4211 
Q 1542 4218 1478 4218 
Q 1107 4218 1107 3878 
L 1107 3354 
L 1664 3354 
z
" transform="scale(0.015625)"/>
       <path id="FreeSans-63" d="M 3008 2227 
L 2470 2227 
Q 2419 2579 2214 2768 
Q 2010 2957 1677 2957 
Q 1242 2957 995 2601 
Q 749 2246 749 1619 
Q 749 1024 998 685 
Q 1248 346 1690 346 
Q 2374 346 2509 1152 
L 3046 1152 
Q 2995 538 2636 195 
Q 2278 -147 1677 -147 
Q 992 -147 592 329 
Q 192 806 192 1619 
Q 192 2451 598 2950 
Q 1005 3450 1683 3450 
Q 2266 3450 2614 3136 
Q 2963 2822 3008 2227 
z
" transform="scale(0.015625)"/>
       <path id="FreeSans-69" d="M 960 3354 
L 960 0 
L 429 0 
L 429 3354 
L 960 3354 
z
M 960 4666 
L 960 3994 
L 422 3994 
L 422 4666 
L 960 4666 
z
" transform="scale(0.015625)"/>
       <path id="FreeSans-28" d="M 1510 4666 
L 1862 4666 
Q 986 3251 986 1658 
Q 986 70 1862 -1357 
L 1510 -1357 
Q 1030 -730 748 86 
Q 467 902 467 1657 
Q 467 2413 748 3225 
Q 1030 4038 1510 4666 
z
" transform="scale(0.015625)"/>
       <path id="FreeSans-64" d="M 3194 4666 
L 3194 0 
L 2720 0 
L 2720 442 
Q 2502 128 2249 -9 
Q 1997 -147 1651 -147 
Q 973 -147 582 342 
Q 192 832 192 1683 
Q 192 2483 585 2966 
Q 979 3450 1632 3450 
Q 2323 3450 2662 2931 
L 2662 4666 
L 3194 4666 
z
M 1722 2950 
Q 1286 2950 1017 2592 
Q 749 2234 749 1651 
Q 749 1062 1017 707 
Q 1286 352 1728 352 
Q 2150 352 2406 704 
Q 2662 1056 2662 1638 
Q 2662 2240 2406 2595 
Q 2150 2950 1722 2950 
z
" transform="scale(0.015625)"/>
       <path id="FreeSans-29" d="M 595 -1357 
L 243 -1357 
Q 1120 58 1120 1651 
Q 1120 3238 243 4666 
L 595 4666 
Q 1075 4038 1356 3222 
Q 1638 2406 1638 1651 
Q 1638 896 1356 83 
Q 1075 -730 595 -1357 
z
" transform="scale(0.015625)"/>
      </defs>
      <use xlink:href="#FreeSans-51"/>
      <use xlink:href="#FreeSans-2d" x="78.399994"/>
      <use xlink:href="#FreeSans-54" x="111.699982"/>
      <use xlink:href="#FreeSans-72" x="174.899979"/>
      <use xlink:href="#FreeSans-61" x="208.099976"/>
      <use xlink:href="#FreeSans-6e" x="262.399963"/>
      <use xlink:href="#FreeSans-73" x="316.09996"/>
      <use xlink:href="#FreeSans-66" x="365.399948"/>
      <use xlink:href="#FreeSans-6f" x="393.399933"/>
      <use xlink:href="#FreeSans-72" x="446.799927"/>
      <use xlink:href="#FreeSans-6d" x="479.999924"/>
      <use xlink:href="#FreeSans-20" x="561.199905"/>
      <use xlink:href="#FreeSans-63" x="586.19989"/>
      <use xlink:href="#FreeSans-61" x="636.799881"/>
      <use xlink:href="#FreeSans-6c" x="691.099869"/>
      <use xlink:href="#FreeSans-63" x="712.499863"/>
      <use xlink:href="#FreeSans-75" x="763.099854"/>
      <use xlink:href="#FreeSans-6c" x="816.79985"/>
      <use xlink:href="#FreeSans-61" x="838.199844"/>
      <use xlink:href="#FreeSans-74" x="892.499832"/>
      <use xlink:href="#FreeSans-69" x="920.499817"/>
      <use xlink:href="#FreeSans-6f" x="942.699814"/>
      <use xlink:href="#FreeSans-6e" x="996.099808"/>
      <use xlink:href="#FreeSans-20" x="1049.799805"/>
      <use xlink:href="#FreeSans-54" x="1074.799789"/>
      <use xlink:href="#FreeSans-69" x="1137.999786"/>
      <use xlink:href="#FreeSans-6d" x="1160.199783"/>
      <use xlink:href="#FreeSans-65" x="1241.399765"/>
      <use xlink:href="#FreeSans-20" x="1294.699753"/>
      <use xlink:href="#FreeSans-28" x="1319.699738"/>
      <use xlink:href="#FreeSans-73" x="1352.999725"/>
      <use xlink:href="#FreeSans-65" x="1402.299713"/>
      <use xlink:href="#FreeSans-63" x="1455.599701"/>
      <use xlink:href="#FreeSans-6f" x="1506.199692"/>
      <use xlink:href="#FreeSans-6e" x="1559.599686"/>
      <use xlink:href="#FreeSans-64" x="1613.299683"/>
      <use xlink:href="#FreeSans-73" x="1669.199677"/>
      <use xlink:href="#FreeSans-29" x="1718.499664"/>
     </g>
    </g>
   </g>
   <g id="text_20">
    <!-- Q-Transform Calculation Time vs Sample Count -->
    <g transform="translate(202.4825 45.84) scale(0.16 -0.16)">
     <defs>
      <path id="FreeSans-76" d="M 1824 0 
L 1242 0 
L 64 3354 
L 666 3354 
L 1562 634 
L 2509 3354 
L 3110 3354 
L 1824 0 
z
" transform="scale(0.015625)"/>
     </defs>
     <use xlink:href="#FreeSans-51"/>
     <use xlink:href="#FreeSans-2d" x="78.399994"/>
     <use xlink:href="#FreeSans-54" x="111.699982"/>
     <use xlink:href="#FreeSans-72" x="174.899979"/>
     <use xlink:href="#FreeSans-61" x="208.099976"/>
     <use xlink:href="#FreeSans-6e" x="262.399963"/>
     <use xlink:href="#FreeSans-73" x="316.09996"/>
     <use xlink:href="#FreeSans-66" x="365.399948"/>
     <use xlink:href="#FreeSans-6f" x="393.399933"/>
     <use xlink:href="#FreeSans-72" x="446.799927"/>
     <use xlink:href="#FreeSans-6d" x="479.999924"/>
     <use xlink:href="#FreeSans-20" x="561.199905"/>
     <use xlink:href="#FreeSans-43" x="586.19989"/>
     <use xlink:href="#FreeSans-61" x="657.099884"/>
     <use xlink:href="#FreeSans-6c" x="711.399872"/>
     <use xlink:href="#FreeSans-63" x="732.799866"/>
     <use xlink:href="#FreeSans-75" x="783.399857"/>
     <use xlink:href="#FreeSans-6c" x="837.099854"/>
     <use xlink:href="#FreeSans-61" x="858.499847"/>
     <use xlink:href="#FreeSans-74" x="912.799835"/>
     <use xlink:href="#FreeSans-69" x="940.79982"/>
     <use xlink:href="#FreeSans-6f" x="962.999817"/>
     <use xlink:href="#FreeSans-6e" x="1016.399811"/>
     <use xlink:href="#FreeSans-20" x="1070.099808"/>
     <use xlink:href="#FreeSans-54" x="1095.099792"/>
     <use xlink:href="#FreeSans-69" x="1158.299789"/>
     <use xlink:href="#FreeSans-6d" x="1180.499786"/>
     <use xlink:href="#FreeSans-65" x="1261.699768"/>
     <use xlink:href="#FreeSans-20" x="1314.999756"/>
     <use xlink:href="#FreeSans-76" x="1339.999741"/>
     <use xlink:href="#FreeSans-73" x="1389.599731"/>
     <use xlink:href="#FreeSans-20" x="1438.899719"/>
     <use xlink:href="#FreeSans-53" x="1463.899704"/>
     <use xlink:href="#FreeSans-61" x="1530.599701"/>
     <use xlink:href="#FreeSans-6d" x="1584.899689"/>
     <use xlink:href="#FreeSans-70" x="1666.09967"/>
     <use xlink:href="#FreeSans-6c" x="1721.999664"/>
     <use xlink:href="#FreeSans-65" x="1743.399658"/>
     <use xlink:href="#FreeSans-20" x="1796.699646"/>
     <use xlink:href="#FreeSans-43" x="1821.699631"/>
     <use xlink:href="#FreeSans-6f" x="1892.599625"/>
     <use xlink:href="#FreeSans-75" x="1945.999619"/>
     <use xlink:href="#FreeSans-6e" x="1999.699615"/>
     <use xlink:href="#FreeSans-74" x="2053.399612"/>
    </g>
   </g>
  </g>
 </g>
 <defs>
  <clipPath id="paf840813c1">
   <rect x="90" y="51.84" width="558" height="332.64"/>
  </clipPath>
 </defs>
</svg>
